ISO-10303-21;
HEADER;
FILE_DESCRIPTION(('Open CASCADE Model'),'2;1');
FILE_NAME('Open CASCADE Shape Model','2026-09-26T21:59:03',('Author'),(
    'Open CASCADE'),'Open CASCADE STEP processor 7.7','Open CASCADE 7.7'
  ,'Unknown');
FILE_SCHEMA(('AUTOMOTIVE_DESIGN { 1 0 10303 214 1 1 1 1 }'));
ENDSEC;
DATA;
#1 = APPLICATION_PROTOCOL_DEFINITION('international standard',
  'automotive_design',2000,#2);
#2 = APPLICATION_CONTEXT(
  'core data for automotive mechanical design processes');
#3 = SHAPE_DEFINITION_REPRESENTATION(#4,#10);
#4 = PRODUCT_DEFINITION_SHAPE('','',#5);
#5 = PRODUCT_DEFINITION('design','',#6,#9);
#6 = PRODUCT_DEFINITION_FORMATION('','',#7);
#7 = PRODUCT('Open CASCADE STEP translator 7.7 1',
  'Open CASCADE STEP translator 7.7 1','',(#8));
#8 = PRODUCT_CONTEXT('',#2,'mechanical');
#9 = PRODUCT_DEFINITION_CONTEXT('part definition',#2,'design');
#10 = SHAPE_REPRESENTATION('',(#11,#15,#19,#23,#27,#31,#35,#39,#43,#47,
    #51,#55,#59,#63,#67,#71,#75,#79,#83,#87,#91,#95,#99),#103);
#11 = AXIS2_PLACEMENT_3D('',#12,#13,#14);
#12 = CARTESIAN_POINT('',(0.,0.,0.));
#13 = DIRECTION('',(0.,0.,1.));
#14 = DIRECTION('',(1.,0.,-0.));
#15 = AXIS2_PLACEMENT_3D('',#16,#17,#18);
#16 = CARTESIAN_POINT('',(0.,0.,0.));
#17 = DIRECTION('',(0.,0.,1.));
#18 = DIRECTION('',(1.,0.,-0.));
#19 = AXIS2_PLACEMENT_3D('',#20,#21,#22);
#20 = CARTESIAN_POINT('',(0.,0.,0.));
#21 = DIRECTION('',(0.,0.,1.));
#22 = DIRECTION('',(1.,0.,-0.));
#23 = AXIS2_PLACEMENT_3D('',#24,#25,#26);
#24 = CARTESIAN_POINT('',(0.,0.,0.));
#25 = DIRECTION('',(0.,0.,1.));
#26 = DIRECTION('',(1.,0.,-0.));
#27 = AXIS2_PLACEMENT_3D('',#28,#29,#30);
#28 = CARTESIAN_POINT('',(0.,0.,0.));
#29 = DIRECTION('',(0.,0.,1.));
#30 = DIRECTION('',(1.,0.,-0.));
#31 = AXIS2_PLACEMENT_3D('',#32,#33,#34);
#32 = CARTESIAN_POINT('',(0.,0.,0.));
#33 = DIRECTION('',(0.,0.,1.));
#34 = DIRECTION('',(1.,0.,-0.));
#35 = AXIS2_PLACEMENT_3D('',#36,#37,#38);
#36 = CARTESIAN_POINT('',(0.,0.,0.));
#37 = DIRECTION('',(0.,0.,1.));
#38 = DIRECTION('',(1.,0.,-0.));
#39 = AXIS2_PLACEMENT_3D('',#40,#41,#42);
#40 = CARTESIAN_POINT('',(0.,0.,0.));
#41 = DIRECTION('',(0.,0.,1.));
#42 = DIRECTION('',(1.,0.,-0.));
#43 = AXIS2_PLACEMENT_3D('',#44,#45,#46);
#44 = CARTESIAN_POINT('',(0.,0.,0.));
#45 = DIRECTION('',(0.,0.,1.));
#46 = DIRECTION('',(1.,0.,-0.));
#47 = AXIS2_PLACEMENT_3D('',#48,#49,#50);
#48 = CARTESIAN_POINT('',(0.,0.,0.));
#49 = DIRECTION('',(0.,0.,1.));
#50 = DIRECTION('',(1.,0.,-0.));
#51 = AXIS2_PLACEMENT_3D('',#52,#53,#54);
#52 = CARTESIAN_POINT('',(0.,0.,0.));
#53 = DIRECTION('',(0.,0.,1.));
#54 = DIRECTION('',(1.,0.,-0.));
#55 = AXIS2_PLACEMENT_3D('',#56,#57,#58);
#56 = CARTESIAN_POINT('',(0.,0.,0.));
#57 = DIRECTION('',(0.,0.,1.));
#58 = DIRECTION('',(1.,0.,-0.));
#59 = AXIS2_PLACEMENT_3D('',#60,#61,#62);
#60 = CARTESIAN_POINT('',(0.,0.,0.));
#61 = DIRECTION('',(0.,0.,1.));
#62 = DIRECTION('',(1.,0.,-0.));
#63 = AXIS2_PLACEMENT_3D('',#64,#65,#66);
#64 = CARTESIAN_POINT('',(0.,0.,0.));
#65 = DIRECTION('',(0.,0.,1.));
#66 = DIRECTION('',(1.,0.,-0.));
#67 = AXIS2_PLACEMENT_3D('',#68,#69,#70);
#68 = CARTESIAN_POINT('',(0.,0.,0.));
#69 = DIRECTION('',(0.,0.,1.));
#70 = DIRECTION('',(1.,0.,-0.));
#71 = AXIS2_PLACEMENT_3D('',#72,#73,#74);
#72 = CARTESIAN_POINT('',(0.,0.,0.));
#73 = DIRECTION('',(0.,0.,1.));
#74 = DIRECTION('',(1.,0.,-0.));
#75 = AXIS2_PLACEMENT_3D('',#76,#77,#78);
#76 = CARTESIAN_POINT('',(0.,0.,0.));
#77 = DIRECTION('',(0.,0.,1.));
#78 = DIRECTION('',(1.,0.,-0.));
#79 = AXIS2_PLACEMENT_3D('',#80,#81,#82);
#80 = CARTESIAN_POINT('',(0.,0.,0.));
#81 = DIRECTION('',(0.,0.,1.));
#82 = DIRECTION('',(1.,0.,-0.));
#83 = AXIS2_PLACEMENT_3D('',#84,#85,#86);
#84 = CARTESIAN_POINT('',(0.,0.,0.));
#85 = DIRECTION('',(0.,0.,1.));
#86 = DIRECTION('',(1.,0.,-0.));
#87 = AXIS2_PLACEMENT_3D('',#88,#89,#90);
#88 = CARTESIAN_POINT('',(0.,0.,0.));
#89 = DIRECTION('',(0.,0.,1.));
#90 = DIRECTION('',(1.,0.,-0.));
#91 = AXIS2_PLACEMENT_3D('',#92,#93,#94);
#92 = CARTESIAN_POINT('',(0.,0.,0.));
#93 = DIRECTION('',(0.,0.,1.));
#94 = DIRECTION('',(1.,0.,-0.));
#95 = AXIS2_PLACEMENT_3D('',#96,#97,#98);
#96 = CARTESIAN_POINT('',(0.,0.,0.));
#97 = DIRECTION('',(0.,0.,1.));
#98 = DIRECTION('',(1.,0.,-0.));
#99 = AXIS2_PLACEMENT_3D('',#100,#101,#102);
#100 = CARTESIAN_POINT('',(0.,0.,0.));
#101 = DIRECTION('',(0.,0.,1.));
#102 = DIRECTION('',(1.,0.,-0.));
#103 = ( GEOMETRIC_REPRESENTATION_CONTEXT(3) 
GLOBAL_UNCERTAINTY_ASSIGNED_CONTEXT((#107)) GLOBAL_UNIT_ASSIGNED_CONTEXT
((#104,#105,#106)) REPRESENTATION_CONTEXT('Context #1',
  '3D Context with UNIT and UNCERTAINTY') );
#104 = ( LENGTH_UNIT() NAMED_UNIT(*) SI_UNIT(.MILLI.,.METRE.) );
#105 = ( NAMED_UNIT(*) PLANE_ANGLE_UNIT() SI_UNIT($,.RADIAN.) );
#106 = ( NAMED_UNIT(*) SI_UNIT($,.STERADIAN.) SOLID_ANGLE_UNIT() );
#107 = UNCERTAINTY_MEASURE_WITH_UNIT(LENGTH_MEASURE(1.E-07),#104,
  'distance_accuracy_value','confusion accuracy');
#108 = PRODUCT_RELATED_PRODUCT_CATEGORY('part',$,(#7));
#109 = SHAPE_DEFINITION_REPRESENTATION(#110,#116);
#110 = PRODUCT_DEFINITION_SHAPE('','',#111);
#111 = PRODUCT_DEFINITION('design','',#112,#115);
#112 = PRODUCT_DEFINITION_FORMATION('','',#113);
#113 = PRODUCT('Open CASCADE STEP translator 7.7 1.1',
  'Open CASCADE STEP translator 7.7 1.1','',(#114));
#114 = PRODUCT_CONTEXT('',#2,'mechanical');
#115 = PRODUCT_DEFINITION_CONTEXT('part definition',#2,'design');
#116 = GEOMETRICALLY_BOUNDED_WIREFRAME_SHAPE_REPRESENTATION('',(#11,#117
    ),#126);
#117 = GEOMETRIC_CURVE_SET('',(#118));
#118 = TRIMMED_CURVE('',#119,(#124,PARAMETER_VALUE(0.)),(#125,
    PARAMETER_VALUE(6.28318530718)),.T.,.PARAMETER.);
#119 = CIRCLE('',#120,3.456992506693);
#120 = AXIS2_PLACEMENT_3D('',#121,#122,#123);
#121 = CARTESIAN_POINT('',(29.479855060694,15.308474169902,
    294.61173892881));
#122 = DIRECTION('',(8.924900929811E-02,-0.82353947433,-0.5601940276));
#123 = DIRECTION('',(6.938893903907E-18,0.562438525995,-0.826839104347)
  );
#124 = CARTESIAN_POINT('',(29.479855060694,17.252819939742,
    291.75336234085));
#125 = CARTESIAN_POINT('',(29.479855060694,17.252819939742,
    291.75336234085));
#126 = ( GEOMETRIC_REPRESENTATION_CONTEXT(3) 
GLOBAL_UNCERTAINTY_ASSIGNED_CONTEXT((#130)) GLOBAL_UNIT_ASSIGNED_CONTEXT
((#127,#128,#129)) REPRESENTATION_CONTEXT('Context #1',
  '3D Context with UNIT and UNCERTAINTY') );
#127 = ( LENGTH_UNIT() NAMED_UNIT(*) SI_UNIT(.MILLI.,.METRE.) );
#128 = ( NAMED_UNIT(*) PLANE_ANGLE_UNIT() SI_UNIT($,.RADIAN.) );
#129 = ( NAMED_UNIT(*) SI_UNIT($,.STERADIAN.) SOLID_ANGLE_UNIT() );
#130 = UNCERTAINTY_MEASURE_WITH_UNIT(LENGTH_MEASURE(1.E-07),#127,
  'distance_accuracy_value','confusion accuracy');
#131 = CONTEXT_DEPENDENT_SHAPE_REPRESENTATION(#132,#134);
#132 = ( REPRESENTATION_RELATIONSHIP('','',#116,#10) 
REPRESENTATION_RELATIONSHIP_WITH_TRANSFORMATION(#133) 
SHAPE_REPRESENTATION_RELATIONSHIP() );
#133 = ITEM_DEFINED_TRANSFORMATION('','',#11,#15);
#134 = PRODUCT_DEFINITION_SHAPE('Placement','Placement of an item',#135
  );
#135 = NEXT_ASSEMBLY_USAGE_OCCURRENCE('1','','',#5,#111,$);
#136 = PRODUCT_RELATED_PRODUCT_CATEGORY('part',$,(#113));
#137 = SHAPE_DEFINITION_REPRESENTATION(#138,#144);
#138 = PRODUCT_DEFINITION_SHAPE('','',#139);
#139 = PRODUCT_DEFINITION('design','',#140,#143);
#140 = PRODUCT_DEFINITION_FORMATION('','',#141);
#141 = PRODUCT('Open CASCADE STEP translator 7.7 1.2',
  'Open CASCADE STEP translator 7.7 1.2','',(#142));
#142 = PRODUCT_CONTEXT('',#2,'mechanical');
#143 = PRODUCT_DEFINITION_CONTEXT('part definition',#2,'design');
#144 = GEOMETRICALLY_BOUNDED_WIREFRAME_SHAPE_REPRESENTATION('',(#11,#145
    ),#154);
#145 = GEOMETRIC_CURVE_SET('',(#146));
#146 = TRIMMED_CURVE('',#147,(#152,PARAMETER_VALUE(0.)),(#153,
    PARAMETER_VALUE(6.28318530718)),.T.,.PARAMETER.);
#147 = CIRCLE('',#148,3.461133360095);
#148 = AXIS2_PLACEMENT_3D('',#149,#150,#151);
#149 = CARTESIAN_POINT('',(29.709111710025,13.643368579141,
    293.52593854844));
#150 = DIRECTION('',(8.924900929811E-02,-0.82353947433,-0.5601940276));
#151 = DIRECTION('',(6.938893903907E-18,0.562438525995,-0.826839104347)
  );
#152 = CARTESIAN_POINT('',(29.709111710025,15.590043324465,
    290.66413814095));
#153 = CARTESIAN_POINT('',(29.709111710025,15.590043324465,
    290.66413814095));
#154 = ( GEOMETRIC_REPRESENTATION_CONTEXT(3) 
GLOBAL_UNCERTAINTY_ASSIGNED_CONTEXT((#158)) GLOBAL_UNIT_ASSIGNED_CONTEXT
((#155,#156,#157)) REPRESENTATION_CONTEXT('Context #1',
  '3D Context with UNIT and UNCERTAINTY') );
#155 = ( LENGTH_UNIT() NAMED_UNIT(*) SI_UNIT(.MILLI.,.METRE.) );
#156 = ( NAMED_UNIT(*) PLANE_ANGLE_UNIT() SI_UNIT($,.RADIAN.) );
#157 = ( NAMED_UNIT(*) SI_UNIT($,.STERADIAN.) SOLID_ANGLE_UNIT() );
#158 = UNCERTAINTY_MEASURE_WITH_UNIT(LENGTH_MEASURE(1.E-07),#155,
  'distance_accuracy_value','confusion accuracy');
#159 = CONTEXT_DEPENDENT_SHAPE_REPRESENTATION(#160,#162);
#160 = ( REPRESENTATION_RELATIONSHIP('','',#144,#10) 
REPRESENTATION_RELATIONSHIP_WITH_TRANSFORMATION(#161) 
SHAPE_REPRESENTATION_RELATIONSHIP() );
#161 = ITEM_DEFINED_TRANSFORMATION('','',#11,#19);
#162 = PRODUCT_DEFINITION_SHAPE('Placement','Placement of an item',#163
  );
#163 = NEXT_ASSEMBLY_USAGE_OCCURRENCE('2','','',#5,#139,$);
#164 = PRODUCT_RELATED_PRODUCT_CATEGORY('part',$,(#141));
#165 = SHAPE_DEFINITION_REPRESENTATION(#166,#172);
#166 = PRODUCT_DEFINITION_SHAPE('','',#167);
#167 = PRODUCT_DEFINITION('design','',#168,#171);
#168 = PRODUCT_DEFINITION_FORMATION('','',#169);
#169 = PRODUCT('Open CASCADE STEP translator 7.7 1.3',
  'Open CASCADE STEP translator 7.7 1.3','',(#170));
#170 = PRODUCT_CONTEXT('',#2,'mechanical');
#171 = PRODUCT_DEFINITION_CONTEXT('part definition',#2,'design');
#172 = GEOMETRICALLY_BOUNDED_WIREFRAME_SHAPE_REPRESENTATION('',(#11,#173
    ),#182);
#173 = GEOMETRIC_CURVE_SET('',(#174));
#174 = TRIMMED_CURVE('',#175,(#180,PARAMETER_VALUE(0.)),(#181,
    PARAMETER_VALUE(6.28318530718)),.T.,.PARAMETER.);
#175 = CIRCLE('',#176,3.487636508014);
#176 = AXIS2_PLACEMENT_3D('',#177,#178,#179);
#177 = CARTESIAN_POINT('',(-17.93881317897,31.322682136769,
    259.94446184863));
#178 = DIRECTION('',(8.924900929811E-02,-0.82353947433,-0.5601940276));
#179 = DIRECTION('',(6.938893903907E-18,0.562438525995,-0.826839104347)
  );
#180 = CARTESIAN_POINT('',(-17.93881317897,33.284263273543,
    257.06074760206));
#181 = CARTESIAN_POINT('',(-17.93881317897,33.284263273543,
    257.06074760206));
#182 = ( GEOMETRIC_REPRESENTATION_CONTEXT(3) 
GLOBAL_UNCERTAINTY_ASSIGNED_CONTEXT((#186)) GLOBAL_UNIT_ASSIGNED_CONTEXT
((#183,#184,#185)) REPRESENTATION_CONTEXT('Context #1',
  '3D Context with UNIT and UNCERTAINTY') );
#183 = ( LENGTH_UNIT() NAMED_UNIT(*) SI_UNIT(.MILLI.,.METRE.) );
#184 = ( NAMED_UNIT(*) PLANE_ANGLE_UNIT() SI_UNIT($,.RADIAN.) );
#185 = ( NAMED_UNIT(*) SI_UNIT($,.STERADIAN.) SOLID_ANGLE_UNIT() );
#186 = UNCERTAINTY_MEASURE_WITH_UNIT(LENGTH_MEASURE(1.E-07),#183,
  'distance_accuracy_value','confusion accuracy');
#187 = CONTEXT_DEPENDENT_SHAPE_REPRESENTATION(#188,#190);
#188 = ( REPRESENTATION_RELATIONSHIP('','',#172,#10) 
REPRESENTATION_RELATIONSHIP_WITH_TRANSFORMATION(#189) 
SHAPE_REPRESENTATION_RELATIONSHIP() );
#189 = ITEM_DEFINED_TRANSFORMATION('','',#11,#23);
#190 = PRODUCT_DEFINITION_SHAPE('Placement','Placement of an item',#191
  );
#191 = NEXT_ASSEMBLY_USAGE_OCCURRENCE('3','','',#5,#167,$);
#192 = PRODUCT_RELATED_PRODUCT_CATEGORY('part',$,(#169));
#193 = SHAPE_DEFINITION_REPRESENTATION(#194,#200);
#194 = PRODUCT_DEFINITION_SHAPE('','',#195);
#195 = PRODUCT_DEFINITION('design','',#196,#199);
#196 = PRODUCT_DEFINITION_FORMATION('','',#197);
#197 = PRODUCT('Open CASCADE STEP translator 7.7 1.4',
  'Open CASCADE STEP translator 7.7 1.4','',(#198));
#198 = PRODUCT_CONTEXT('',#2,'mechanical');
#199 = PRODUCT_DEFINITION_CONTEXT('part definition',#2,'design');
#200 = GEOMETRICALLY_BOUNDED_WIREFRAME_SHAPE_REPRESENTATION('',(#11,#201
    ),#210);
#201 = GEOMETRIC_CURVE_SET('',(#202));
#202 = TRIMMED_CURVE('',#203,(#208,PARAMETER_VALUE(0.)),(#209,
    PARAMETER_VALUE(6.28318530718)),.T.,.PARAMETER.);
#203 = CIRCLE('',#204,3.49900888137);
#204 = AXIS2_PLACEMENT_3D('',#205,#206,#207);
#205 = CARTESIAN_POINT('',(29.805156614935,12.822837136004,
    292.96240513237));
#206 = DIRECTION('',(8.924900929811E-02,-0.82353947433,-0.5601940276));
#207 = DIRECTION('',(6.938893903907E-18,0.562438525995,-0.826839104347)
  );
#208 = CARTESIAN_POINT('',(29.805156614935,14.790814533685,
    290.0692877628));
#209 = CARTESIAN_POINT('',(29.805156614935,14.790814533685,
    290.0692877628));
#210 = ( GEOMETRIC_REPRESENTATION_CONTEXT(3) 
GLOBAL_UNCERTAINTY_ASSIGNED_CONTEXT((#214)) GLOBAL_UNIT_ASSIGNED_CONTEXT
((#211,#212,#213)) REPRESENTATION_CONTEXT('Context #1',
  '3D Context with UNIT and UNCERTAINTY') );
#211 = ( LENGTH_UNIT() NAMED_UNIT(*) SI_UNIT(.MILLI.,.METRE.) );
#212 = ( NAMED_UNIT(*) PLANE_ANGLE_UNIT() SI_UNIT($,.RADIAN.) );
#213 = ( NAMED_UNIT(*) SI_UNIT($,.STERADIAN.) SOLID_ANGLE_UNIT() );
#214 = UNCERTAINTY_MEASURE_WITH_UNIT(LENGTH_MEASURE(1.E-07),#211,
  'distance_accuracy_value','confusion accuracy');
#215 = CONTEXT_DEPENDENT_SHAPE_REPRESENTATION(#216,#218);
#216 = ( REPRESENTATION_RELATIONSHIP('','',#200,#10) 
REPRESENTATION_RELATIONSHIP_WITH_TRANSFORMATION(#217) 
SHAPE_REPRESENTATION_RELATIONSHIP() );
#217 = ITEM_DEFINED_TRANSFORMATION('','',#11,#27);
#218 = PRODUCT_DEFINITION_SHAPE('Placement','Placement of an item',#219
  );
#219 = NEXT_ASSEMBLY_USAGE_OCCURRENCE('4','','',#5,#195,$);
#220 = PRODUCT_RELATED_PRODUCT_CATEGORY('part',$,(#197));
#221 = SHAPE_DEFINITION_REPRESENTATION(#222,#228);
#222 = PRODUCT_DEFINITION_SHAPE('','',#223);
#223 = PRODUCT_DEFINITION('design','',#224,#227);
#224 = PRODUCT_DEFINITION_FORMATION('','',#225);
#225 = PRODUCT('Open CASCADE STEP translator 7.7 1.5',
  'Open CASCADE STEP translator 7.7 1.5','',(#226));
#226 = PRODUCT_CONTEXT('',#2,'mechanical');
#227 = PRODUCT_DEFINITION_CONTEXT('part definition',#2,'design');
#228 = GEOMETRICALLY_BOUNDED_WIREFRAME_SHAPE_REPRESENTATION('',(#11,#229
    ),#238);
#229 = GEOMETRIC_CURVE_SET('',(#230));
#230 = TRIMMED_CURVE('',#231,(#236,PARAMETER_VALUE(0.)),(#237,
    PARAMETER_VALUE(6.28318530718)),.T.,.PARAMETER.);
#231 = CIRCLE('',#232,3.518266523895);
#232 = AXIS2_PLACEMENT_3D('',#233,#234,#235);
#233 = CARTESIAN_POINT('',(-17.84215281625,30.516895152029,
    259.35935070427));
#234 = DIRECTION('',(8.924900929811E-02,-0.82353947433,-0.5601940276));
#235 = DIRECTION('',(6.938893903907E-18,0.562438525995,-0.826839104347)
  );
#236 = CARTESIAN_POINT('',(-17.84215281625,32.495703789786,
    256.4503103628));
#237 = CARTESIAN_POINT('',(-17.84215281625,32.495703789786,
    256.4503103628));
#238 = ( GEOMETRIC_REPRESENTATION_CONTEXT(3) 
GLOBAL_UNCERTAINTY_ASSIGNED_CONTEXT((#242)) GLOBAL_UNIT_ASSIGNED_CONTEXT
((#239,#240,#241)) REPRESENTATION_CONTEXT('Context #1',
  '3D Context with UNIT and UNCERTAINTY') );
#239 = ( LENGTH_UNIT() NAMED_UNIT(*) SI_UNIT(.MILLI.,.METRE.) );
#240 = ( NAMED_UNIT(*) PLANE_ANGLE_UNIT() SI_UNIT($,.RADIAN.) );
#241 = ( NAMED_UNIT(*) SI_UNIT($,.STERADIAN.) SOLID_ANGLE_UNIT() );
#242 = UNCERTAINTY_MEASURE_WITH_UNIT(LENGTH_MEASURE(1.E-07),#239,
  'distance_accuracy_value','confusion accuracy');
#243 = CONTEXT_DEPENDENT_SHAPE_REPRESENTATION(#244,#246);
#244 = ( REPRESENTATION_RELATIONSHIP('','',#228,#10) 
REPRESENTATION_RELATIONSHIP_WITH_TRANSFORMATION(#245) 
SHAPE_REPRESENTATION_RELATIONSHIP() );
#245 = ITEM_DEFINED_TRANSFORMATION('','',#11,#31);
#246 = PRODUCT_DEFINITION_SHAPE('Placement','Placement of an item',#247
  );
#247 = NEXT_ASSEMBLY_USAGE_OCCURRENCE('5','','',#5,#223,$);
#248 = PRODUCT_RELATED_PRODUCT_CATEGORY('part',$,(#225));
#249 = SHAPE_DEFINITION_REPRESENTATION(#250,#256);
#250 = PRODUCT_DEFINITION_SHAPE('','',#251);
#251 = PRODUCT_DEFINITION('design','',#252,#255);
#252 = PRODUCT_DEFINITION_FORMATION('','',#253);
#253 = PRODUCT('Open CASCADE STEP translator 7.7 1.6',
  'Open CASCADE STEP translator 7.7 1.6','',(#254));
#254 = PRODUCT_CONTEXT('',#2,'mechanical');
#255 = PRODUCT_DEFINITION_CONTEXT('part definition',#2,'design');
#256 = GEOMETRICALLY_BOUNDED_WIREFRAME_SHAPE_REPRESENTATION('',(#11,#257
    ),#266);
#257 = GEOMETRIC_CURVE_SET('',(#258));
#258 = TRIMMED_CURVE('',#259,(#264,PARAMETER_VALUE(0.)),(#265,
    PARAMETER_VALUE(6.28318530718)),.T.,.PARAMETER.);
#259 = CIRCLE('',#260,5.450582786728);
#260 = AXIS2_PLACEMENT_3D('',#261,#262,#263);
#261 = CARTESIAN_POINT('',(6.266927732187,-79.96139277433,
    275.39618356511));
#262 = DIRECTION('',(-9.394479820512E-02,0.816952325257,0.56900199749));
#263 = DIRECTION('',(0.,-0.571529640027,0.820581422268));
#264 = CARTESIAN_POINT('',(6.266927732187,-83.07656239236,
    279.86883054043));
#265 = CARTESIAN_POINT('',(6.266927732187,-83.07656239236,
    279.86883054043));
#266 = ( GEOMETRIC_REPRESENTATION_CONTEXT(3) 
GLOBAL_UNCERTAINTY_ASSIGNED_CONTEXT((#270)) GLOBAL_UNIT_ASSIGNED_CONTEXT
((#267,#268,#269)) REPRESENTATION_CONTEXT('Context #1',
  '3D Context with UNIT and UNCERTAINTY') );
#267 = ( LENGTH_UNIT() NAMED_UNIT(*) SI_UNIT(.MILLI.,.METRE.) );
#268 = ( NAMED_UNIT(*) PLANE_ANGLE_UNIT() SI_UNIT($,.RADIAN.) );
#269 = ( NAMED_UNIT(*) SI_UNIT($,.STERADIAN.) SOLID_ANGLE_UNIT() );
#270 = UNCERTAINTY_MEASURE_WITH_UNIT(LENGTH_MEASURE(1.E-07),#267,
  'distance_accuracy_value','confusion accuracy');
#271 = CONTEXT_DEPENDENT_SHAPE_REPRESENTATION(#272,#274);
#272 = ( REPRESENTATION_RELATIONSHIP('','',#256,#10) 
REPRESENTATION_RELATIONSHIP_WITH_TRANSFORMATION(#273) 
SHAPE_REPRESENTATION_RELATIONSHIP() );
#273 = ITEM_DEFINED_TRANSFORMATION('','',#11,#35);
#274 = PRODUCT_DEFINITION_SHAPE('Placement','Placement of an item',#275
  );
#275 = NEXT_ASSEMBLY_USAGE_OCCURRENCE('6','','',#5,#251,$);
#276 = PRODUCT_RELATED_PRODUCT_CATEGORY('part',$,(#253));
#277 = SHAPE_DEFINITION_REPRESENTATION(#278,#284);
#278 = PRODUCT_DEFINITION_SHAPE('','',#279);
#279 = PRODUCT_DEFINITION('design','',#280,#283);
#280 = PRODUCT_DEFINITION_FORMATION('','',#281);
#281 = PRODUCT('Open CASCADE STEP translator 7.7 1.7',
  'Open CASCADE STEP translator 7.7 1.7','',(#282));
#282 = PRODUCT_CONTEXT('',#2,'mechanical');
#283 = PRODUCT_DEFINITION_CONTEXT('part definition',#2,'design');
#284 = GEOMETRICALLY_BOUNDED_WIREFRAME_SHAPE_REPRESENTATION('',(#11,#285
    ),#294);
#285 = GEOMETRIC_CURVE_SET('',(#286));
#286 = TRIMMED_CURVE('',#287,(#292,PARAMETER_VALUE(0.)),(#293,
    PARAMETER_VALUE(6.28318530718)),.T.,.PARAMETER.);
#287 = CIRCLE('',#288,5.446713655119);
#288 = AXIS2_PLACEMENT_3D('',#289,#290,#291);
#289 = CARTESIAN_POINT('',(70.128753580712,-42.07910785759,
    231.55005557875));
#290 = DIRECTION('',(-9.394479820512E-02,0.816952325257,0.56900199749));
#291 = DIRECTION('',(0.,-0.571529640027,0.820581422268));
#292 = CARTESIAN_POINT('',(70.128753580712,-45.19206615223,
    236.01952761656));
#293 = CARTESIAN_POINT('',(70.128753580712,-45.19206615223,
    236.01952761656));
#294 = ( GEOMETRIC_REPRESENTATION_CONTEXT(3) 
GLOBAL_UNCERTAINTY_ASSIGNED_CONTEXT((#298)) GLOBAL_UNIT_ASSIGNED_CONTEXT
((#295,#296,#297)) REPRESENTATION_CONTEXT('Context #1',
  '3D Context with UNIT and UNCERTAINTY') );
#295 = ( LENGTH_UNIT() NAMED_UNIT(*) SI_UNIT(.MILLI.,.METRE.) );
#296 = ( NAMED_UNIT(*) PLANE_ANGLE_UNIT() SI_UNIT($,.RADIAN.) );
#297 = ( NAMED_UNIT(*) SI_UNIT($,.STERADIAN.) SOLID_ANGLE_UNIT() );
#298 = UNCERTAINTY_MEASURE_WITH_UNIT(LENGTH_MEASURE(1.E-07),#295,
  'distance_accuracy_value','confusion accuracy');
#299 = CONTEXT_DEPENDENT_SHAPE_REPRESENTATION(#300,#302);
#300 = ( REPRESENTATION_RELATIONSHIP('','',#284,#10) 
REPRESENTATION_RELATIONSHIP_WITH_TRANSFORMATION(#301) 
SHAPE_REPRESENTATION_RELATIONSHIP() );
#301 = ITEM_DEFINED_TRANSFORMATION('','',#11,#39);
#302 = PRODUCT_DEFINITION_SHAPE('Placement','Placement of an item',#303
  );
#303 = NEXT_ASSEMBLY_USAGE_OCCURRENCE('7','','',#5,#279,$);
#304 = PRODUCT_RELATED_PRODUCT_CATEGORY('part',$,(#281));
#305 = SHAPE_DEFINITION_REPRESENTATION(#306,#312);
#306 = PRODUCT_DEFINITION_SHAPE('','',#307);
#307 = PRODUCT_DEFINITION('design','',#308,#311);
#308 = PRODUCT_DEFINITION_FORMATION('','',#309);
#309 = PRODUCT('Open CASCADE STEP translator 7.7 1.8',
  'Open CASCADE STEP translator 7.7 1.8','',(#310));
#310 = PRODUCT_CONTEXT('',#2,'mechanical');
#311 = PRODUCT_DEFINITION_CONTEXT('part definition',#2,'design');
#312 = GEOMETRICALLY_BOUNDED_WIREFRAME_SHAPE_REPRESENTATION('',(#11,#313
    ),#322);
#313 = GEOMETRIC_CURVE_SET('',(#314));
#314 = TRIMMED_CURVE('',#315,(#320,PARAMETER_VALUE(0.)),(#321,
    PARAMETER_VALUE(6.28318530718)),.T.,.PARAMETER.);
#315 = CIRCLE('',#316,45.535618542657);
#316 = AXIS2_PLACEMENT_3D('',#317,#318,#319);
#317 = CARTESIAN_POINT('',(9.835362943138,-45.05613876324,
    225.86965707387));
#318 = DIRECTION('',(-9.394479820512E-02,0.816952325257,0.56900199749));
#319 = DIRECTION('',(0.,-0.571529640027,0.820581422268));
#320 = CARTESIAN_POINT('',(9.835362943138,-71.08109443732,
    263.23533970144));
#321 = CARTESIAN_POINT('',(9.835362943138,-71.08109443732,
    263.23533970144));
#322 = ( GEOMETRIC_REPRESENTATION_CONTEXT(3) 
GLOBAL_UNCERTAINTY_ASSIGNED_CONTEXT((#326)) GLOBAL_UNIT_ASSIGNED_CONTEXT
((#323,#324,#325)) REPRESENTATION_CONTEXT('Context #1',
  '3D Context with UNIT and UNCERTAINTY') );
#323 = ( LENGTH_UNIT() NAMED_UNIT(*) SI_UNIT(.MILLI.,.METRE.) );
#324 = ( NAMED_UNIT(*) PLANE_ANGLE_UNIT() SI_UNIT($,.RADIAN.) );
#325 = ( NAMED_UNIT(*) SI_UNIT($,.STERADIAN.) SOLID_ANGLE_UNIT() );
#326 = UNCERTAINTY_MEASURE_WITH_UNIT(LENGTH_MEASURE(1.E-07),#323,
  'distance_accuracy_value','confusion accuracy');
#327 = CONTEXT_DEPENDENT_SHAPE_REPRESENTATION(#328,#330);
#328 = ( REPRESENTATION_RELATIONSHIP('','',#312,#10) 
REPRESENTATION_RELATIONSHIP_WITH_TRANSFORMATION(#329) 
SHAPE_REPRESENTATION_RELATIONSHIP() );
#329 = ITEM_DEFINED_TRANSFORMATION('','',#11,#43);
#330 = PRODUCT_DEFINITION_SHAPE('Placement','Placement of an item',#331
  );
#331 = NEXT_ASSEMBLY_USAGE_OCCURRENCE('8','','',#5,#307,$);
#332 = PRODUCT_RELATED_PRODUCT_CATEGORY('part',$,(#309));
#333 = SHAPE_DEFINITION_REPRESENTATION(#334,#340);
#334 = PRODUCT_DEFINITION_SHAPE('','',#335);
#335 = PRODUCT_DEFINITION('design','',#336,#339);
#336 = PRODUCT_DEFINITION_FORMATION('','',#337);
#337 = PRODUCT('Open CASCADE STEP translator 7.7 1.9',
  'Open CASCADE STEP translator 7.7 1.9','',(#338));
#338 = PRODUCT_CONTEXT('',#2,'mechanical');
#339 = PRODUCT_DEFINITION_CONTEXT('part definition',#2,'design');
#340 = GEOMETRICALLY_BOUNDED_WIREFRAME_SHAPE_REPRESENTATION('',(#11,#341
    ),#350);
#341 = GEOMETRIC_CURVE_SET('',(#342));
#342 = TRIMMED_CURVE('',#343,(#348,PARAMETER_VALUE(0.)),(#349,
    PARAMETER_VALUE(6.28318530718)),.T.,.PARAMETER.);
#343 = CIRCLE('',#344,5.268146925433);
#344 = AXIS2_PLACEMENT_3D('',#345,#346,#347);
#345 = CARTESIAN_POINT('',(13.209154611158,-9.992193545175,
    176.08315100513));
#346 = DIRECTION('',(-9.394479820512E-02,0.816952325257,0.56900199749));
#347 = DIRECTION('',(0.,-0.571529640027,0.820581422268));
#348 = CARTESIAN_POINT('',(13.209154611158,-13.00309566107,
    180.40609450191));
#349 = CARTESIAN_POINT('',(13.209154611158,-13.00309566107,
    180.40609450191));
#350 = ( GEOMETRIC_REPRESENTATION_CONTEXT(3) 
GLOBAL_UNCERTAINTY_ASSIGNED_CONTEXT((#354)) GLOBAL_UNIT_ASSIGNED_CONTEXT
((#351,#352,#353)) REPRESENTATION_CONTEXT('Context #1',
  '3D Context with UNIT and UNCERTAINTY') );
#351 = ( LENGTH_UNIT() NAMED_UNIT(*) SI_UNIT(.MILLI.,.METRE.) );
#352 = ( NAMED_UNIT(*) PLANE_ANGLE_UNIT() SI_UNIT($,.RADIAN.) );
#353 = ( NAMED_UNIT(*) SI_UNIT($,.STERADIAN.) SOLID_ANGLE_UNIT() );
#354 = UNCERTAINTY_MEASURE_WITH_UNIT(LENGTH_MEASURE(1.E-07),#351,
  'distance_accuracy_value','confusion accuracy');
#355 = CONTEXT_DEPENDENT_SHAPE_REPRESENTATION(#356,#358);
#356 = ( REPRESENTATION_RELATIONSHIP('','',#340,#10) 
REPRESENTATION_RELATIONSHIP_WITH_TRANSFORMATION(#357) 
SHAPE_REPRESENTATION_RELATIONSHIP() );
#357 = ITEM_DEFINED_TRANSFORMATION('','',#11,#47);
#358 = PRODUCT_DEFINITION_SHAPE('Placement','Placement of an item',#359
  );
#359 = NEXT_ASSEMBLY_USAGE_OCCURRENCE('9','','',#5,#335,$);
#360 = PRODUCT_RELATED_PRODUCT_CATEGORY('part',$,(#337));
#361 = SHAPE_DEFINITION_REPRESENTATION(#362,#368);
#362 = PRODUCT_DEFINITION_SHAPE('','',#363);
#363 = PRODUCT_DEFINITION('design','',#364,#367);
#364 = PRODUCT_DEFINITION_FORMATION('','',#365);
#365 = PRODUCT('Open CASCADE STEP translator 7.7 1.10',
  'Open CASCADE STEP translator 7.7 1.10','',(#366));
#366 = PRODUCT_CONTEXT('',#2,'mechanical');
#367 = PRODUCT_DEFINITION_CONTEXT('part definition',#2,'design');
#368 = GEOMETRICALLY_BOUNDED_WIREFRAME_SHAPE_REPRESENTATION('',(#11,#369
    ),#378);
#369 = GEOMETRIC_CURVE_SET('',(#370));
#370 = TRIMMED_CURVE('',#371,(#376,PARAMETER_VALUE(0.)),(#377,
    PARAMETER_VALUE(6.28318530718)),.T.,.PARAMETER.);
#371 = CIRCLE('',#372,5.303376866602);
#372 = AXIS2_PLACEMENT_3D('',#373,#374,#375);
#373 = CARTESIAN_POINT('',(-50.7205939383,-48.03332810482,
    220.14613517346));
#374 = DIRECTION('',(-9.394479820512E-02,0.816952325257,0.56900199749));
#375 = DIRECTION('',(0.,-0.571529640027,0.820581422268));
#376 = CARTESIAN_POINT('',(-50.7205939383,-51.06436517632,
    224.49798770548));
#377 = CARTESIAN_POINT('',(-50.7205939383,-51.06436517632,
    224.49798770548));
#378 = ( GEOMETRIC_REPRESENTATION_CONTEXT(3) 
GLOBAL_UNCERTAINTY_ASSIGNED_CONTEXT((#382)) GLOBAL_UNIT_ASSIGNED_CONTEXT
((#379,#380,#381)) REPRESENTATION_CONTEXT('Context #1',
  '3D Context with UNIT and UNCERTAINTY') );
#379 = ( LENGTH_UNIT() NAMED_UNIT(*) SI_UNIT(.MILLI.,.METRE.) );
#380 = ( NAMED_UNIT(*) PLANE_ANGLE_UNIT() SI_UNIT($,.RADIAN.) );
#381 = ( NAMED_UNIT(*) SI_UNIT($,.STERADIAN.) SOLID_ANGLE_UNIT() );
#382 = UNCERTAINTY_MEASURE_WITH_UNIT(LENGTH_MEASURE(1.E-07),#379,
  'distance_accuracy_value','confusion accuracy');
#383 = CONTEXT_DEPENDENT_SHAPE_REPRESENTATION(#384,#386);
#384 = ( REPRESENTATION_RELATIONSHIP('','',#368,#10) 
REPRESENTATION_RELATIONSHIP_WITH_TRANSFORMATION(#385) 
SHAPE_REPRESENTATION_RELATIONSHIP() );
#385 = ITEM_DEFINED_TRANSFORMATION('','',#11,#51);
#386 = PRODUCT_DEFINITION_SHAPE('Placement','Placement of an item',#387
  );
#387 = NEXT_ASSEMBLY_USAGE_OCCURRENCE('10','','',#5,#363,$);
#388 = PRODUCT_RELATED_PRODUCT_CATEGORY('part',$,(#365));
#389 = SHAPE_DEFINITION_REPRESENTATION(#390,#396);
#390 = PRODUCT_DEFINITION_SHAPE('','',#391);
#391 = PRODUCT_DEFINITION('design','',#392,#395);
#392 = PRODUCT_DEFINITION_FORMATION('','',#393);
#393 = PRODUCT('Open CASCADE STEP translator 7.7 1.11',
  'Open CASCADE STEP translator 7.7 1.11','',(#394));
#394 = PRODUCT_CONTEXT('',#2,'mechanical');
#395 = PRODUCT_DEFINITION_CONTEXT('part definition',#2,'design');
#396 = GEOMETRICALLY_BOUNDED_WIREFRAME_SHAPE_REPRESENTATION('',(#11,#397
    ),#406);
#397 = GEOMETRIC_CURVE_SET('',(#398));
#398 = TRIMMED_CURVE('',#399,(#404,PARAMETER_VALUE(0.)),(#405,
    PARAMETER_VALUE(6.28318530718)),.T.,.PARAMETER.);
#399 = CIRCLE('',#400,3.756038240889);
#400 = AXIS2_PLACEMENT_3D('',#401,#402,#403);
#401 = CARTESIAN_POINT('',(-79.24258361689,49.075648225099,
    205.51405052989));
#402 = DIRECTION('',(-0.667338750325,0.361548960837,-0.651107780043));
#403 = DIRECTION('',(0.698348901158,0.,-0.715757509393));
#404 = CARTESIAN_POINT('',(-76.61955843866,49.075648225099,
    202.8256379534));
#405 = CARTESIAN_POINT('',(-76.61955843866,49.075648225099,
    202.8256379534));
#406 = ( GEOMETRIC_REPRESENTATION_CONTEXT(3) 
GLOBAL_UNCERTAINTY_ASSIGNED_CONTEXT((#410)) GLOBAL_UNIT_ASSIGNED_CONTEXT
((#407,#408,#409)) REPRESENTATION_CONTEXT('Context #1',
  '3D Context with UNIT and UNCERTAINTY') );
#407 = ( LENGTH_UNIT() NAMED_UNIT(*) SI_UNIT(.MILLI.,.METRE.) );
#408 = ( NAMED_UNIT(*) PLANE_ANGLE_UNIT() SI_UNIT($,.RADIAN.) );
#409 = ( NAMED_UNIT(*) SI_UNIT($,.STERADIAN.) SOLID_ANGLE_UNIT() );
#410 = UNCERTAINTY_MEASURE_WITH_UNIT(LENGTH_MEASURE(1.E-07),#407,
  'distance_accuracy_value','confusion accuracy');
#411 = CONTEXT_DEPENDENT_SHAPE_REPRESENTATION(#412,#414);
#412 = ( REPRESENTATION_RELATIONSHIP('','',#396,#10) 
REPRESENTATION_RELATIONSHIP_WITH_TRANSFORMATION(#413) 
SHAPE_REPRESENTATION_RELATIONSHIP() );
#413 = ITEM_DEFINED_TRANSFORMATION('','',#11,#55);
#414 = PRODUCT_DEFINITION_SHAPE('Placement','Placement of an item',#415
  );
#415 = NEXT_ASSEMBLY_USAGE_OCCURRENCE('11','','',#5,#391,$);
#416 = PRODUCT_RELATED_PRODUCT_CATEGORY('part',$,(#393));
#417 = SHAPE_DEFINITION_REPRESENTATION(#418,#424);
#418 = PRODUCT_DEFINITION_SHAPE('','',#419);
#419 = PRODUCT_DEFINITION('design','',#420,#423);
#420 = PRODUCT_DEFINITION_FORMATION('','',#421);
#421 = PRODUCT('Open CASCADE STEP translator 7.7 1.12',
  'Open CASCADE STEP translator 7.7 1.12','',(#422));
#422 = PRODUCT_CONTEXT('',#2,'mechanical');
#423 = PRODUCT_DEFINITION_CONTEXT('part definition',#2,'design');
#424 = GEOMETRICALLY_BOUNDED_WIREFRAME_SHAPE_REPRESENTATION('',(#11,#425
    ),#434);
#425 = GEOMETRIC_CURVE_SET('',(#426));
#426 = TRIMMED_CURVE('',#427,(#432,PARAMETER_VALUE(0.)),(#433,
    PARAMETER_VALUE(6.28318530718)),.T.,.PARAMETER.);
#427 = CIRCLE('',#428,3.518375089908);
#428 = AXIS2_PLACEMENT_3D('',#429,#430,#431);
#429 = CARTESIAN_POINT('',(-53.06051051818,12.489566803475,
    156.8278381495));
#430 = DIRECTION('',(-0.667338750325,0.361548960837,-0.651107780043));
#431 = DIRECTION('',(0.698348901158,0.,-0.715757509393));
#432 = CARTESIAN_POINT('',(-50.60345714028,12.489566803475,
    154.30953475804));
#433 = CARTESIAN_POINT('',(-50.60345714028,12.489566803475,
    154.30953475804));
#434 = ( GEOMETRIC_REPRESENTATION_CONTEXT(3) 
GLOBAL_UNCERTAINTY_ASSIGNED_CONTEXT((#438)) GLOBAL_UNIT_ASSIGNED_CONTEXT
((#435,#436,#437)) REPRESENTATION_CONTEXT('Context #1',
  '3D Context with UNIT and UNCERTAINTY') );
#435 = ( LENGTH_UNIT() NAMED_UNIT(*) SI_UNIT(.MILLI.,.METRE.) );
#436 = ( NAMED_UNIT(*) PLANE_ANGLE_UNIT() SI_UNIT($,.RADIAN.) );
#437 = ( NAMED_UNIT(*) SI_UNIT($,.STERADIAN.) SOLID_ANGLE_UNIT() );
#438 = UNCERTAINTY_MEASURE_WITH_UNIT(LENGTH_MEASURE(1.E-07),#435,
  'distance_accuracy_value','confusion accuracy');
#439 = CONTEXT_DEPENDENT_SHAPE_REPRESENTATION(#440,#442);
#440 = ( REPRESENTATION_RELATIONSHIP('','',#424,#10) 
REPRESENTATION_RELATIONSHIP_WITH_TRANSFORMATION(#441) 
SHAPE_REPRESENTATION_RELATIONSHIP() );
#441 = ITEM_DEFINED_TRANSFORMATION('','',#11,#59);
#442 = PRODUCT_DEFINITION_SHAPE('Placement','Placement of an item',#443
  );
#443 = NEXT_ASSEMBLY_USAGE_OCCURRENCE('12','','',#5,#419,$);
#444 = PRODUCT_RELATED_PRODUCT_CATEGORY('part',$,(#421));
#445 = SHAPE_DEFINITION_REPRESENTATION(#446,#452);
#446 = PRODUCT_DEFINITION_SHAPE('','',#447);
#447 = PRODUCT_DEFINITION('design','',#448,#451);
#448 = PRODUCT_DEFINITION_FORMATION('','',#449);
#449 = PRODUCT('Open CASCADE STEP translator 7.7 1.13',
  'Open CASCADE STEP translator 7.7 1.13','',(#450));
#450 = PRODUCT_CONTEXT('',#2,'mechanical');
#451 = PRODUCT_DEFINITION_CONTEXT('part definition',#2,'design');
#452 = GEOMETRICALLY_BOUNDED_WIREFRAME_SHAPE_REPRESENTATION('',(#11,#453
    ),#462);
#453 = GEOMETRIC_CURVE_SET('',(#454));
#454 = TRIMMED_CURVE('',#455,(#460,PARAMETER_VALUE(0.)),(#461,
    PARAMETER_VALUE(6.28318530718)),.T.,.PARAMETER.);
#455 = CIRCLE('',#456,3.456730207682);
#456 = AXIS2_PLACEMENT_3D('',#457,#458,#459);
#457 = CARTESIAN_POINT('',(-54.93856986005,13.536685852063,
    154.72662931157));
#458 = DIRECTION('',(-0.667338750325,0.361548960837,-0.651107780043));
#459 = DIRECTION('',(0.698348901158,0.,-0.715757509393));
#460 = CARTESIAN_POINT('',(-52.52456611792,13.536685852063,
    152.25244870748));
#461 = CARTESIAN_POINT('',(-52.52456611792,13.536685852063,
    152.25244870748));
#462 = ( GEOMETRIC_REPRESENTATION_CONTEXT(3) 
GLOBAL_UNCERTAINTY_ASSIGNED_CONTEXT((#466)) GLOBAL_UNIT_ASSIGNED_CONTEXT
((#463,#464,#465)) REPRESENTATION_CONTEXT('Context #1',
  '3D Context with UNIT and UNCERTAINTY') );
#463 = ( LENGTH_UNIT() NAMED_UNIT(*) SI_UNIT(.MILLI.,.METRE.) );
#464 = ( NAMED_UNIT(*) PLANE_ANGLE_UNIT() SI_UNIT($,.RADIAN.) );
#465 = ( NAMED_UNIT(*) SI_UNIT($,.STERADIAN.) SOLID_ANGLE_UNIT() );
#466 = UNCERTAINTY_MEASURE_WITH_UNIT(LENGTH_MEASURE(1.E-07),#463,
  'distance_accuracy_value','confusion accuracy');
#467 = CONTEXT_DEPENDENT_SHAPE_REPRESENTATION(#468,#470);
#468 = ( REPRESENTATION_RELATIONSHIP('','',#452,#10) 
REPRESENTATION_RELATIONSHIP_WITH_TRANSFORMATION(#469) 
SHAPE_REPRESENTATION_RELATIONSHIP() );
#469 = ITEM_DEFINED_TRANSFORMATION('','',#11,#63);
#470 = PRODUCT_DEFINITION_SHAPE('Placement','Placement of an item',#471
  );
#471 = NEXT_ASSEMBLY_USAGE_OCCURRENCE('13','','',#5,#447,$);
#472 = PRODUCT_RELATED_PRODUCT_CATEGORY('part',$,(#449));
#473 = SHAPE_DEFINITION_REPRESENTATION(#474,#480);
#474 = PRODUCT_DEFINITION_SHAPE('','',#475);
#475 = PRODUCT_DEFINITION('design','',#476,#479);
#476 = PRODUCT_DEFINITION_FORMATION('','',#477);
#477 = PRODUCT('Open CASCADE STEP translator 7.7 1.14',
  'Open CASCADE STEP translator 7.7 1.14','',(#478));
#478 = PRODUCT_CONTEXT('',#2,'mechanical');
#479 = PRODUCT_DEFINITION_CONTEXT('part definition',#2,'design');
#480 = GEOMETRICALLY_BOUNDED_WIREFRAME_SHAPE_REPRESENTATION('',(#11,#481
    ),#490);
#481 = GEOMETRIC_CURVE_SET('',(#482));
#482 = TRIMMED_CURVE('',#483,(#488,PARAMETER_VALUE(0.)),(#489,
    PARAMETER_VALUE(6.28318530718)),.T.,.PARAMETER.);
#483 = CIRCLE('',#484,22.46666068361);
#484 = AXIS2_PLACEMENT_3D('',#485,#486,#487);
#485 = CARTESIAN_POINT('',(59.235028254169,-48.54843068395,
    294.36946337091));
#486 = DIRECTION('',(0.671653465488,-0.363675522488,0.645462420781));
#487 = DIRECTION('',(-0.692908876819,0.,0.721025164904));
#488 = CARTESIAN_POINT('',(43.667679634012,-48.54843068395,
    310.56849109516));
#489 = CARTESIAN_POINT('',(43.667679634012,-48.54843068395,
    310.56849109516));
#490 = ( GEOMETRIC_REPRESENTATION_CONTEXT(3) 
GLOBAL_UNCERTAINTY_ASSIGNED_CONTEXT((#494)) GLOBAL_UNIT_ASSIGNED_CONTEXT
((#491,#492,#493)) REPRESENTATION_CONTEXT('Context #1',
  '3D Context with UNIT and UNCERTAINTY') );
#491 = ( LENGTH_UNIT() NAMED_UNIT(*) SI_UNIT(.MILLI.,.METRE.) );
#492 = ( NAMED_UNIT(*) PLANE_ANGLE_UNIT() SI_UNIT($,.RADIAN.) );
#493 = ( NAMED_UNIT(*) SI_UNIT($,.STERADIAN.) SOLID_ANGLE_UNIT() );
#494 = UNCERTAINTY_MEASURE_WITH_UNIT(LENGTH_MEASURE(1.E-07),#491,
  'distance_accuracy_value','confusion accuracy');
#495 = CONTEXT_DEPENDENT_SHAPE_REPRESENTATION(#496,#498);
#496 = ( REPRESENTATION_RELATIONSHIP('','',#480,#10) 
REPRESENTATION_RELATIONSHIP_WITH_TRANSFORMATION(#497) 
SHAPE_REPRESENTATION_RELATIONSHIP() );
#497 = ITEM_DEFINED_TRANSFORMATION('','',#11,#67);
#498 = PRODUCT_DEFINITION_SHAPE('Placement','Placement of an item',#499
  );
#499 = NEXT_ASSEMBLY_USAGE_OCCURRENCE('14','','',#5,#475,$);
#500 = PRODUCT_RELATED_PRODUCT_CATEGORY('part',$,(#477));
#501 = SHAPE_DEFINITION_REPRESENTATION(#502,#508);
#502 = PRODUCT_DEFINITION_SHAPE('','',#503);
#503 = PRODUCT_DEFINITION('design','',#504,#507);
#504 = PRODUCT_DEFINITION_FORMATION('','',#505);
#505 = PRODUCT('Open CASCADE STEP translator 7.7 1.15',
  'Open CASCADE STEP translator 7.7 1.15','',(#506));
#506 = PRODUCT_CONTEXT('',#2,'mechanical');
#507 = PRODUCT_DEFINITION_CONTEXT('part definition',#2,'design');
#508 = GEOMETRICALLY_BOUNDED_WIREFRAME_SHAPE_REPRESENTATION('',(#11,#509
    ),#518);
#509 = GEOMETRIC_CURVE_SET('',(#510));
#510 = TRIMMED_CURVE('',#511,(#516,PARAMETER_VALUE(0.)),(#517,
    PARAMETER_VALUE(6.28318530718)),.T.,.PARAMETER.);
#511 = CIRCLE('',#512,22.527766448543);
#512 = AXIS2_PLACEMENT_3D('',#513,#514,#515);
#513 = CARTESIAN_POINT('',(60.571736808268,-49.38020251216,
    295.60842010538));
#514 = DIRECTION('',(0.671653465488,-0.363675522488,0.645462420781));
#515 = DIRECTION('',(-0.692908876819,0.,0.721025164904));
#516 = CARTESIAN_POINT('',(44.962047461163,-49.38020251216,
    311.85150662387));
#517 = CARTESIAN_POINT('',(44.962047461163,-49.38020251216,
    311.85150662387));
#518 = ( GEOMETRIC_REPRESENTATION_CONTEXT(3) 
GLOBAL_UNCERTAINTY_ASSIGNED_CONTEXT((#522)) GLOBAL_UNIT_ASSIGNED_CONTEXT
((#519,#520,#521)) REPRESENTATION_CONTEXT('Context #1',
  '3D Context with UNIT and UNCERTAINTY') );
#519 = ( LENGTH_UNIT() NAMED_UNIT(*) SI_UNIT(.MILLI.,.METRE.) );
#520 = ( NAMED_UNIT(*) PLANE_ANGLE_UNIT() SI_UNIT($,.RADIAN.) );
#521 = ( NAMED_UNIT(*) SI_UNIT($,.STERADIAN.) SOLID_ANGLE_UNIT() );
#522 = UNCERTAINTY_MEASURE_WITH_UNIT(LENGTH_MEASURE(1.E-07),#519,
  'distance_accuracy_value','confusion accuracy');
#523 = CONTEXT_DEPENDENT_SHAPE_REPRESENTATION(#524,#526);
#524 = ( REPRESENTATION_RELATIONSHIP('','',#508,#10) 
REPRESENTATION_RELATIONSHIP_WITH_TRANSFORMATION(#525) 
SHAPE_REPRESENTATION_RELATIONSHIP() );
#525 = ITEM_DEFINED_TRANSFORMATION('','',#11,#71);
#526 = PRODUCT_DEFINITION_SHAPE('Placement','Placement of an item',#527
  );
#527 = NEXT_ASSEMBLY_USAGE_OCCURRENCE('15','','',#5,#503,$);
#528 = PRODUCT_RELATED_PRODUCT_CATEGORY('part',$,(#505));
#529 = SHAPE_DEFINITION_REPRESENTATION(#530,#536);
#530 = PRODUCT_DEFINITION_SHAPE('','',#531);
#531 = PRODUCT_DEFINITION('design','',#532,#535);
#532 = PRODUCT_DEFINITION_FORMATION('','',#533);
#533 = PRODUCT('Open CASCADE STEP translator 7.7 1.16',
  'Open CASCADE STEP translator 7.7 1.16','',(#534));
#534 = PRODUCT_CONTEXT('',#2,'mechanical');
#535 = PRODUCT_DEFINITION_CONTEXT('part definition',#2,'design');
#536 = GEOMETRICALLY_BOUNDED_WIREFRAME_SHAPE_REPRESENTATION('',(#11,#537
    ),#546);
#537 = GEOMETRIC_CURVE_SET('',(#538));
#538 = TRIMMED_CURVE('',#539,(#544,PARAMETER_VALUE(0.)),(#545,
    PARAMETER_VALUE(6.28318530718)),.T.,.PARAMETER.);
#539 = CIRCLE('',#540,3.579348666144);
#540 = AXIS2_PLACEMENT_3D('',#541,#542,#543);
#541 = CARTESIAN_POINT('',(46.346903096086,-79.11365203052,
    293.65761880443));
#542 = DIRECTION('',(0.671653465488,-0.363675522488,0.645462420781));
#543 = DIRECTION('',(-0.692908876819,0.,0.721025164904));
#544 = CARTESIAN_POINT('',(43.866740632083,-79.11365203052,
    296.23841926668));
#545 = CARTESIAN_POINT('',(43.866740632083,-79.11365203052,
    296.23841926668));
#546 = ( GEOMETRIC_REPRESENTATION_CONTEXT(3) 
GLOBAL_UNCERTAINTY_ASSIGNED_CONTEXT((#550)) GLOBAL_UNIT_ASSIGNED_CONTEXT
((#547,#548,#549)) REPRESENTATION_CONTEXT('Context #1',
  '3D Context with UNIT and UNCERTAINTY') );
#547 = ( LENGTH_UNIT() NAMED_UNIT(*) SI_UNIT(.MILLI.,.METRE.) );
#548 = ( NAMED_UNIT(*) PLANE_ANGLE_UNIT() SI_UNIT($,.RADIAN.) );
#549 = ( NAMED_UNIT(*) SI_UNIT($,.STERADIAN.) SOLID_ANGLE_UNIT() );
#550 = UNCERTAINTY_MEASURE_WITH_UNIT(LENGTH_MEASURE(1.E-07),#547,
  'distance_accuracy_value','confusion accuracy');
#551 = CONTEXT_DEPENDENT_SHAPE_REPRESENTATION(#552,#554);
#552 = ( REPRESENTATION_RELATIONSHIP('','',#536,#10) 
REPRESENTATION_RELATIONSHIP_WITH_TRANSFORMATION(#553) 
SHAPE_REPRESENTATION_RELATIONSHIP() );
#553 = ITEM_DEFINED_TRANSFORMATION('','',#11,#75);
#554 = PRODUCT_DEFINITION_SHAPE('Placement','Placement of an item',#555
  );
#555 = NEXT_ASSEMBLY_USAGE_OCCURRENCE('16','','',#5,#531,$);
#556 = PRODUCT_RELATED_PRODUCT_CATEGORY('part',$,(#533));
#557 = SHAPE_DEFINITION_REPRESENTATION(#558,#564);
#558 = PRODUCT_DEFINITION_SHAPE('','',#559);
#559 = PRODUCT_DEFINITION('design','',#560,#563);
#560 = PRODUCT_DEFINITION_FORMATION('','',#561);
#561 = PRODUCT('Open CASCADE STEP translator 7.7 1.17',
  'Open CASCADE STEP translator 7.7 1.17','',(#562));
#562 = PRODUCT_CONTEXT('',#2,'mechanical');
#563 = PRODUCT_DEFINITION_CONTEXT('part definition',#2,'design');
#564 = GEOMETRICALLY_BOUNDED_WIREFRAME_SHAPE_REPRESENTATION('',(#11,#565
    ),#574);
#565 = GEOMETRIC_CURVE_SET('',(#566));
#566 = TRIMMED_CURVE('',#567,(#572,PARAMETER_VALUE(0.)),(#573,
    PARAMETER_VALUE(6.28318530718)),.T.,.PARAMETER.);
#567 = CIRCLE('',#568,22.553437924331);
#568 = AXIS2_PLACEMENT_3D('',#569,#570,#571);
#569 = CARTESIAN_POINT('',(61.270526321301,-49.7637967241,
    296.21442250596));
#570 = DIRECTION('',(0.671653465488,-0.363675522488,0.645462420781));
#571 = DIRECTION('',(-0.692908876819,0.,0.721025164904));
#572 = CARTESIAN_POINT('',(45.643048980742,-49.7637967241,
    312.47601880451));
#573 = CARTESIAN_POINT('',(45.643048980742,-49.7637967241,
    312.47601880451));
#574 = ( GEOMETRIC_REPRESENTATION_CONTEXT(3) 
GLOBAL_UNCERTAINTY_ASSIGNED_CONTEXT((#578)) GLOBAL_UNIT_ASSIGNED_CONTEXT
((#575,#576,#577)) REPRESENTATION_CONTEXT('Context #1',
  '3D Context with UNIT and UNCERTAINTY') );
#575 = ( LENGTH_UNIT() NAMED_UNIT(*) SI_UNIT(.MILLI.,.METRE.) );
#576 = ( NAMED_UNIT(*) PLANE_ANGLE_UNIT() SI_UNIT($,.RADIAN.) );
#577 = ( NAMED_UNIT(*) SI_UNIT($,.STERADIAN.) SOLID_ANGLE_UNIT() );
#578 = UNCERTAINTY_MEASURE_WITH_UNIT(LENGTH_MEASURE(1.E-07),#575,
  'distance_accuracy_value','confusion accuracy');
#579 = CONTEXT_DEPENDENT_SHAPE_REPRESENTATION(#580,#582);
#580 = ( REPRESENTATION_RELATIONSHIP('','',#564,#10) 
REPRESENTATION_RELATIONSHIP_WITH_TRANSFORMATION(#581) 
SHAPE_REPRESENTATION_RELATIONSHIP() );
#581 = ITEM_DEFINED_TRANSFORMATION('','',#11,#79);
#582 = PRODUCT_DEFINITION_SHAPE('Placement','Placement of an item',#583
  );
#583 = NEXT_ASSEMBLY_USAGE_OCCURRENCE('17','','',#5,#559,$);
#584 = PRODUCT_RELATED_PRODUCT_CATEGORY('part',$,(#561));
#585 = SHAPE_DEFINITION_REPRESENTATION(#586,#592);
#586 = PRODUCT_DEFINITION_SHAPE('','',#587);
#587 = PRODUCT_DEFINITION('design','',#588,#591);
#588 = PRODUCT_DEFINITION_FORMATION('','',#589);
#589 = PRODUCT('Open CASCADE STEP translator 7.7 1.18',
  'Open CASCADE STEP translator 7.7 1.18','',(#590));
#590 = PRODUCT_CONTEXT('',#2,'mechanical');
#591 = PRODUCT_DEFINITION_CONTEXT('part definition',#2,'design');
#592 = GEOMETRICALLY_BOUNDED_WIREFRAME_SHAPE_REPRESENTATION('',(#11,#593
    ),#602);
#593 = GEOMETRIC_CURVE_SET('',(#594));
#594 = TRIMMED_CURVE('',#595,(#600,PARAMETER_VALUE(0.)),(#601,
    PARAMETER_VALUE(6.28318530718)),.T.,.PARAMETER.);
#595 = CIRCLE('',#596,4.124102857475);
#596 = AXIS2_PLACEMENT_3D('',#597,#598,#599);
#597 = CARTESIAN_POINT('',(77.43784691007,-21.18404556892,297.0431601917
    ));
#598 = DIRECTION('',(0.671653465488,-0.363675522488,0.645462420781));
#599 = DIRECTION('',(-0.692908876819,0.,0.721025164904));
#600 = CARTESIAN_POINT('',(74.580219431211,-21.18404556892,
    300.01674213459));
#601 = CARTESIAN_POINT('',(74.580219431211,-21.18404556892,
    300.01674213459));
#602 = ( GEOMETRIC_REPRESENTATION_CONTEXT(3) 
GLOBAL_UNCERTAINTY_ASSIGNED_CONTEXT((#606)) GLOBAL_UNIT_ASSIGNED_CONTEXT
((#603,#604,#605)) REPRESENTATION_CONTEXT('Context #1',
  '3D Context with UNIT and UNCERTAINTY') );
#603 = ( LENGTH_UNIT() NAMED_UNIT(*) SI_UNIT(.MILLI.,.METRE.) );
#604 = ( NAMED_UNIT(*) PLANE_ANGLE_UNIT() SI_UNIT($,.RADIAN.) );
#605 = ( NAMED_UNIT(*) SI_UNIT($,.STERADIAN.) SOLID_ANGLE_UNIT() );
#606 = UNCERTAINTY_MEASURE_WITH_UNIT(LENGTH_MEASURE(1.E-07),#603,
  'distance_accuracy_value','confusion accuracy');
#607 = CONTEXT_DEPENDENT_SHAPE_REPRESENTATION(#608,#610);
#608 = ( REPRESENTATION_RELATIONSHIP('','',#592,#10) 
REPRESENTATION_RELATIONSHIP_WITH_TRANSFORMATION(#609) 
SHAPE_REPRESENTATION_RELATIONSHIP() );
#609 = ITEM_DEFINED_TRANSFORMATION('','',#11,#83);
#610 = PRODUCT_DEFINITION_SHAPE('Placement','Placement of an item',#611
  );
#611 = NEXT_ASSEMBLY_USAGE_OCCURRENCE('18','','',#5,#587,$);
#612 = PRODUCT_RELATED_PRODUCT_CATEGORY('part',$,(#589));
#613 = SHAPE_DEFINITION_REPRESENTATION(#614,#620);
#614 = PRODUCT_DEFINITION_SHAPE('','',#615);
#615 = PRODUCT_DEFINITION('design','',#616,#619);
#616 = PRODUCT_DEFINITION_FORMATION('','',#617);
#617 = PRODUCT('Open CASCADE STEP translator 7.7 1.19',
  'Open CASCADE STEP translator 7.7 1.19','',(#618));
#618 = PRODUCT_CONTEXT('',#2,'mechanical');
#619 = PRODUCT_DEFINITION_CONTEXT('part definition',#2,'design');
#620 = GEOMETRICALLY_BOUNDED_WIREFRAME_SHAPE_REPRESENTATION('',(#11,#621
    ),#630);
#621 = GEOMETRIC_CURVE_SET('',(#622));
#622 = TRIMMED_CURVE('',#623,(#628,PARAMETER_VALUE(0.)),(#629,
    PARAMETER_VALUE(6.28318530718)),.T.,.PARAMETER.);
#623 = CIRCLE('',#624,4.257288049655);
#624 = AXIS2_PLACEMENT_3D('',#625,#626,#627);
#625 = CARTESIAN_POINT('',(47.475686941832,-80.66131296679,
    294.70958092759));
#626 = DIRECTION('',(0.671653465488,-0.363675522488,0.645462420781));
#627 = DIRECTION('',(-0.692908876819,0.,0.721025164904));
#628 = CARTESIAN_POINT('',(44.52577426105,-80.66131296679,
    297.77919274564));
#629 = CARTESIAN_POINT('',(44.52577426105,-80.66131296679,
    297.77919274564));
#630 = ( GEOMETRIC_REPRESENTATION_CONTEXT(3) 
GLOBAL_UNCERTAINTY_ASSIGNED_CONTEXT((#634)) GLOBAL_UNIT_ASSIGNED_CONTEXT
((#631,#632,#633)) REPRESENTATION_CONTEXT('Context #1',
  '3D Context with UNIT and UNCERTAINTY') );
#631 = ( LENGTH_UNIT() NAMED_UNIT(*) SI_UNIT(.MILLI.,.METRE.) );
#632 = ( NAMED_UNIT(*) PLANE_ANGLE_UNIT() SI_UNIT($,.RADIAN.) );
#633 = ( NAMED_UNIT(*) SI_UNIT($,.STERADIAN.) SOLID_ANGLE_UNIT() );
#634 = UNCERTAINTY_MEASURE_WITH_UNIT(LENGTH_MEASURE(1.E-07),#631,
  'distance_accuracy_value','confusion accuracy');
#635 = CONTEXT_DEPENDENT_SHAPE_REPRESENTATION(#636,#638);
#636 = ( REPRESENTATION_RELATIONSHIP('','',#620,#10) 
REPRESENTATION_RELATIONSHIP_WITH_TRANSFORMATION(#637) 
SHAPE_REPRESENTATION_RELATIONSHIP() );
#637 = ITEM_DEFINED_TRANSFORMATION('','',#11,#87);
#638 = PRODUCT_DEFINITION_SHAPE('Placement','Placement of an item',#639
  );
#639 = NEXT_ASSEMBLY_USAGE_OCCURRENCE('19','','',#5,#615,$);
#640 = PRODUCT_RELATED_PRODUCT_CATEGORY('part',$,(#617));
#641 = SHAPE_DEFINITION_REPRESENTATION(#642,#648);
#642 = PRODUCT_DEFINITION_SHAPE('','',#643);
#643 = PRODUCT_DEFINITION('design','',#644,#647);
#644 = PRODUCT_DEFINITION_FORMATION('','',#645);
#645 = PRODUCT('Open CASCADE STEP translator 7.7 1.20',
  'Open CASCADE STEP translator 7.7 1.20','',(#646));
#646 = PRODUCT_CONTEXT('',#2,'mechanical');
#647 = PRODUCT_DEFINITION_CONTEXT('part definition',#2,'design');
#648 = GEOMETRICALLY_BOUNDED_WIREFRAME_SHAPE_REPRESENTATION('',(#11,#649
    ),#658);
#649 = GEOMETRIC_CURVE_SET('',(#650));
#650 = TRIMMED_CURVE('',#651,(#656,PARAMETER_VALUE(0.)),(#657,
    PARAMETER_VALUE(6.28318530718)),.T.,.PARAMETER.);
#651 = CIRCLE('',#652,3.458342483311);
#652 = AXIS2_PLACEMENT_3D('',#653,#654,#655);
#653 = CARTESIAN_POINT('',(82.473485223008,-59.95143460918,
    271.50959873571));
#654 = DIRECTION('',(0.671653465488,-0.363675522488,0.645462420781));
#655 = DIRECTION('',(-0.692908876819,0.,0.721025164904));
#656 = CARTESIAN_POINT('',(80.077169017241,-59.95143460918,
    274.00315069504));
#657 = CARTESIAN_POINT('',(80.077169017241,-59.95143460918,
    274.00315069504));
#658 = ( GEOMETRIC_REPRESENTATION_CONTEXT(3) 
GLOBAL_UNCERTAINTY_ASSIGNED_CONTEXT((#662)) GLOBAL_UNIT_ASSIGNED_CONTEXT
((#659,#660,#661)) REPRESENTATION_CONTEXT('Context #1',
  '3D Context with UNIT and UNCERTAINTY') );
#659 = ( LENGTH_UNIT() NAMED_UNIT(*) SI_UNIT(.MILLI.,.METRE.) );
#660 = ( NAMED_UNIT(*) PLANE_ANGLE_UNIT() SI_UNIT($,.RADIAN.) );
#661 = ( NAMED_UNIT(*) SI_UNIT($,.STERADIAN.) SOLID_ANGLE_UNIT() );
#662 = UNCERTAINTY_MEASURE_WITH_UNIT(LENGTH_MEASURE(1.E-07),#659,
  'distance_accuracy_value','confusion accuracy');
#663 = CONTEXT_DEPENDENT_SHAPE_REPRESENTATION(#664,#666);
#664 = ( REPRESENTATION_RELATIONSHIP('','',#648,#10) 
REPRESENTATION_RELATIONSHIP_WITH_TRANSFORMATION(#665) 
SHAPE_REPRESENTATION_RELATIONSHIP() );
#665 = ITEM_DEFINED_TRANSFORMATION('','',#11,#91);
#666 = PRODUCT_DEFINITION_SHAPE('Placement','Placement of an item',#667
  );
#667 = NEXT_ASSEMBLY_USAGE_OCCURRENCE('20','','',#5,#643,$);
#668 = PRODUCT_RELATED_PRODUCT_CATEGORY('part',$,(#645));
#669 = SHAPE_DEFINITION_REPRESENTATION(#670,#676);
#670 = PRODUCT_DEFINITION_SHAPE('','',#671);
#671 = PRODUCT_DEFINITION('design','',#672,#675);
#672 = PRODUCT_DEFINITION_FORMATION('','',#673);
#673 = PRODUCT('Open CASCADE STEP translator 7.7 1.21',
  'Open CASCADE STEP translator 7.7 1.21','',(#674));
#674 = PRODUCT_CONTEXT('',#2,'mechanical');
#675 = PRODUCT_DEFINITION_CONTEXT('part definition',#2,'design');
#676 = GEOMETRICALLY_BOUNDED_WIREFRAME_SHAPE_REPRESENTATION('',(#11,#677
    ),#686);
#677 = GEOMETRIC_CURVE_SET('',(#678));
#678 = TRIMMED_CURVE('',#679,(#684,PARAMETER_VALUE(0.)),(#685,
    PARAMETER_VALUE(6.28318530718)),.T.,.PARAMETER.);
#679 = CIRCLE('',#680,3.612952378367);
#680 = AXIS2_PLACEMENT_3D('',#681,#682,#683);
#681 = CARTESIAN_POINT('',(83.105152517132,-60.33517750693,
    272.18536321089));
#682 = DIRECTION('',(0.671653465488,-0.363675522488,0.645462420781));
#683 = DIRECTION('',(-0.692908876819,0.,0.721025164904));
#684 = CARTESIAN_POINT('',(80.601705742636,-60.33517750693,
    274.79039279529));
#685 = CARTESIAN_POINT('',(80.601705742636,-60.33517750693,
    274.79039279529));
#686 = ( GEOMETRIC_REPRESENTATION_CONTEXT(3) 
GLOBAL_UNCERTAINTY_ASSIGNED_CONTEXT((#690)) GLOBAL_UNIT_ASSIGNED_CONTEXT
((#687,#688,#689)) REPRESENTATION_CONTEXT('Context #1',
  '3D Context with UNIT and UNCERTAINTY') );
#687 = ( LENGTH_UNIT() NAMED_UNIT(*) SI_UNIT(.MILLI.,.METRE.) );
#688 = ( NAMED_UNIT(*) PLANE_ANGLE_UNIT() SI_UNIT($,.RADIAN.) );
#689 = ( NAMED_UNIT(*) SI_UNIT($,.STERADIAN.) SOLID_ANGLE_UNIT() );
#690 = UNCERTAINTY_MEASURE_WITH_UNIT(LENGTH_MEASURE(1.E-07),#687,
  'distance_accuracy_value','confusion accuracy');
#691 = CONTEXT_DEPENDENT_SHAPE_REPRESENTATION(#692,#694);
#692 = ( REPRESENTATION_RELATIONSHIP('','',#676,#10) 
REPRESENTATION_RELATIONSHIP_WITH_TRANSFORMATION(#693) 
SHAPE_REPRESENTATION_RELATIONSHIP() );
#693 = ITEM_DEFINED_TRANSFORMATION('','',#11,#95);
#694 = PRODUCT_DEFINITION_SHAPE('Placement','Placement of an item',#695
  );
#695 = NEXT_ASSEMBLY_USAGE_OCCURRENCE('21','','',#5,#671,$);
#696 = PRODUCT_RELATED_PRODUCT_CATEGORY('part',$,(#673));
#697 = SHAPE_DEFINITION_REPRESENTATION(#698,#704);
#698 = PRODUCT_DEFINITION_SHAPE('','',#699);
#699 = PRODUCT_DEFINITION('design','',#700,#703);
#700 = PRODUCT_DEFINITION_FORMATION('','',#701);
#701 = PRODUCT('Open CASCADE STEP translator 7.7 1.22',
  'Open CASCADE STEP translator 7.7 1.22','',(#702));
#702 = PRODUCT_CONTEXT('',#2,'mechanical');
#703 = PRODUCT_DEFINITION_CONTEXT('part definition',#2,'design');
#704 = GEOMETRICALLY_BOUNDED_WIREFRAME_SHAPE_REPRESENTATION('',(#11,#705
    ),#714);
#705 = GEOMETRIC_CURVE_SET('',(#706));
#706 = TRIMMED_CURVE('',#707,(#712,PARAMETER_VALUE(0.)),(#713,
    PARAMETER_VALUE(6.28318530718)),.T.,.PARAMETER.);
#707 = CIRCLE('',#708,3.747497337795);
#708 = AXIS2_PLACEMENT_3D('',#709,#710,#711);
#709 = CARTESIAN_POINT('',(84.49114241686,-61.09760680425,
    273.41210884652));
#710 = DIRECTION('',(0.671653465488,-0.363675522488,0.645462420781));
#711 = DIRECTION('',(-0.692908876819,0.,0.721025164904));
#712 = CARTESIAN_POINT('',(81.894468245645,-61.09760680425,
    276.11414873248));
#713 = CARTESIAN_POINT('',(81.894468245645,-61.09760680425,
    276.11414873248));
#714 = ( GEOMETRIC_REPRESENTATION_CONTEXT(3) 
GLOBAL_UNCERTAINTY_ASSIGNED_CONTEXT((#718)) GLOBAL_UNIT_ASSIGNED_CONTEXT
((#715,#716,#717)) REPRESENTATION_CONTEXT('Context #1',
  '3D Context with UNIT and UNCERTAINTY') );
#715 = ( LENGTH_UNIT() NAMED_UNIT(*) SI_UNIT(.MILLI.,.METRE.) );
#716 = ( NAMED_UNIT(*) PLANE_ANGLE_UNIT() SI_UNIT($,.RADIAN.) );
#717 = ( NAMED_UNIT(*) SI_UNIT($,.STERADIAN.) SOLID_ANGLE_UNIT() );
#718 = UNCERTAINTY_MEASURE_WITH_UNIT(LENGTH_MEASURE(1.E-07),#715,
  'distance_accuracy_value','confusion accuracy');
#719 = CONTEXT_DEPENDENT_SHAPE_REPRESENTATION(#720,#722);
#720 = ( REPRESENTATION_RELATIONSHIP('','',#704,#10) 
REPRESENTATION_RELATIONSHIP_WITH_TRANSFORMATION(#721) 
SHAPE_REPRESENTATION_RELATIONSHIP() );
#721 = ITEM_DEFINED_TRANSFORMATION('','',#11,#99);
#722 = PRODUCT_DEFINITION_SHAPE('Placement','Placement of an item',#723
  );
#723 = NEXT_ASSEMBLY_USAGE_OCCURRENCE('22','','',#5,#699,$);
#724 = PRODUCT_RELATED_PRODUCT_CATEGORY('part',$,(#701));
ENDSEC;
END-ISO-10303-21;
