ISO-10303-21;
HEADER;
FILE_DESCRIPTION(('Open CASCADE Model'),'2;1');
FILE_NAME('Open CASCADE Shape Model','2026-09-07T11:32:56',('Author'),(
    'Open CASCADE'),'Open CASCADE STEP processor 7.9','Open CASCADE 7.9'
  ,'Unknown');
FILE_SCHEMA(('AUTOMOTIVE_DESIGN { 1 0 10303 214 1 1 1 1 }'));
ENDSEC;
DATA;
#1 = APPLICATION_PROTOCOL_DEFINITION('international standard',
  'automotive_design',2000,#2);
#2 = APPLICATION_CONTEXT(
  'core data for automotive mechanical design processes');
#3 = SHAPE_DEFINITION_REPRESENTATION(#4,#10);
#4 = PRODUCT_DEFINITION_SHAPE('','',#5);
#5 = PRODUCT_DEFINITION('design','',#6,#9);
#6 = PRODUCT_DEFINITION_FORMATION('','',#7);
#7 = PRODUCT('M64_candidate_distribution_NOT_RELEASED',
  'M64_candidate_distribution_NOT_RELEASED','',(#8));
#8 = PRODUCT_CONTEXT('',#2,'mechanical');
#9 = PRODUCT_DEFINITION_CONTEXT('part definition',#2,'design');
#10 = SHAPE_REPRESENTATION('',(#11,#15),#19);
#11 = AXIS2_PLACEMENT_3D('',#12,#13,#14);
#12 = CARTESIAN_POINT('',(0.,0.,0.));
#13 = DIRECTION('',(0.,0.,1.));
#14 = DIRECTION('',(1.,0.,-0.));
#15 = AXIS2_PLACEMENT_3D('',#16,#17,#18);
#16 = CARTESIAN_POINT('',(0.,0.,0.));
#17 = DIRECTION('',(0.,0.,1.));
#18 = DIRECTION('',(1.,0.,-0.));
#19 = ( GEOMETRIC_REPRESENTATION_CONTEXT(3) 
GLOBAL_UNCERTAINTY_ASSIGNED_CONTEXT((#23)) GLOBAL_UNIT_ASSIGNED_CONTEXT(
(#20,#21,#22)) REPRESENTATION_CONTEXT('Context #1',
  '3D Context with UNIT and UNCERTAINTY') );
#20 = ( LENGTH_UNIT() NAMED_UNIT(*) SI_UNIT(.MILLI.,.METRE.) );
#21 = ( NAMED_UNIT(*) PLANE_ANGLE_UNIT() SI_UNIT($,.RADIAN.) );
#22 = ( NAMED_UNIT(*) SI_UNIT($,.STERADIAN.) SOLID_ANGLE_UNIT() );
#23 = UNCERTAINTY_MEASURE_WITH_UNIT(LENGTH_MEASURE(1.E-07),#20,
  'distance_accuracy_value','confusion accuracy');
#24 = PRODUCT_RELATED_PRODUCT_CATEGORY('part',$,(#7));
#25 = SHAPE_DEFINITION_REPRESENTATION(#26,#32);
#26 = PRODUCT_DEFINITION_SHAPE('','',#27);
#27 = PRODUCT_DEFINITION('design','',#28,#31);
#28 = PRODUCT_DEFINITION_FORMATION('','',#29);
#29 = PRODUCT('closed_native_section','closed_native_section','',(#30));
#30 = PRODUCT_CONTEXT('',#2,'mechanical');
#31 = PRODUCT_DEFINITION_CONTEXT('part definition',#2,'design');
#32 = SHAPE_REPRESENTATION('',(#11,#33,#41,#49,#57,#65,#73,#81,#89,#97,
    #105,#113,#121,#129,#137,#145,#153,#161,#169,#177,#185,#193,#201,
    #209,#217,#225,#233,#241,#249,#257,#265,#273,#281,#289,#297,#305,
    #313,#321,#329,#337,#345,#353,#361,#369,#377,#385,#393,#401,#409,
    #417,#425,#433,#441,#449,#457,#465,#473,#481,#489,#497,#505,#513,
    #521,#529,#537,#545),#553);
#33 = GEOMETRIC_CURVE_SET('',(#34));
#34 = TRIMMED_CURVE('',#35,(#39,PARAMETER_VALUE(-10.34488632977)),(#40,
    PARAMETER_VALUE(29.65511367023)),.T.,.PARAMETER.);
#35 = LINE('',#36,#37);
#36 = CARTESIAN_POINT('',(-9.73008958086,22.5,-0.141669993505));
#37 = VECTOR('',#38,1.);
#38 = DIRECTION('',(-0.990268068742,0.,-0.13917310096));
#39 = CARTESIAN_POINT('',(0.514121026272,22.5,1.298059916089));
#40 = CARTESIAN_POINT('',(-39.09660172339,22.5,-4.268864122311));
#41 = GEOMETRIC_CURVE_SET('',(#42));
#42 = TRIMMED_CURVE('',#43,(#47,PARAMETER_VALUE(0.)),(#48,
    PARAMETER_VALUE(1.5)),.T.,.PARAMETER.);
#43 = LINE('',#44,#45);
#44 = CARTESIAN_POINT('',(0.514121026272,22.5,1.298059916089));
#45 = VECTOR('',#46,1.);
#46 = DIRECTION('',(-0.13917310096,0.,0.990268068742));
#47 = CARTESIAN_POINT('',(0.514121026272,22.5,1.298059916089));
#48 = CARTESIAN_POINT('',(0.305361374831,22.5,2.783462019201));
#49 = GEOMETRIC_CURVE_SET('',(#50));
#50 = TRIMMED_CURVE('',#51,(#55,PARAMETER_VALUE(0.)),(#56,
    PARAMETER_VALUE(1.5)),.T.,.PARAMETER.);
#51 = LINE('',#52,#53);
#52 = CARTESIAN_POINT('',(-39.09660172339,22.5,-4.268864122311));
#53 = VECTOR('',#54,1.);
#54 = DIRECTION('',(-0.13917310096,0.,0.990268068742));
#55 = CARTESIAN_POINT('',(-39.09660172339,22.5,-4.268864122311));
#56 = CARTESIAN_POINT('',(-39.30536137483,22.5,-2.783462019199));
#57 = GEOMETRIC_CURVE_SET('',(#58));
#58 = TRIMMED_CURVE('',#59,(#63,PARAMETER_VALUE(27.577164466288)),(#64,
    PARAMETER_VALUE(28.284271247475)),.T.,.PARAMETER.);
#59 = LINE('',#60,#61);
#60 = CARTESIAN_POINT('',(-22.2834620192,22.5,19.80536137485));
#61 = VECTOR('',#62,1.);
#62 = DIRECTION('',(-0.601815023152,0.,-0.798635510047));
#63 = CARTESIAN_POINT('',(-38.87981389094,22.5,-2.218741434348));
#64 = CARTESIAN_POINT('',(-39.30536137483,22.5,-2.783462019199));
#65 = GEOMETRIC_CURVE_SET('',(#66));
#66 = TRIMMED_CURVE('',#67,(#71,PARAMETER_VALUE(26.162950903914)),(#72,
    PARAMETER_VALUE(27.577164466288)),.T.,.PARAMETER.);
#67 = LINE('',#68,#69);
#68 = CARTESIAN_POINT('',(-22.2834620192,22.5,19.805361374848));
#69 = VECTOR('',#70,1.);
#70 = DIRECTION('',(-0.601815023152,0.,-0.798635510047));
#71 = CARTESIAN_POINT('',(-38.02871892315,22.5,-1.089300264647));
#72 = CARTESIAN_POINT('',(-38.87981389094,22.5,-2.218741434348));
#73 = GEOMETRIC_CURVE_SET('',(#74));
#74 = TRIMMED_CURVE('',#75,(#79,PARAMETER_VALUE(6.230762393159)),(#80,
    PARAMETER_VALUE(19.211517378907)),.T.,.PARAMETER.);
#75 = LINE('',#76,#77);
#76 = CARTESIAN_POINT('',(-20.42967631441,22.5,6.614990699197));
#77 = VECTOR('',#78,1.);
#78 = DIRECTION('',(-0.916067287224,0.,-0.401024594356));
#79 = CARTESIAN_POINT('',(-26.13747391725,22.5,4.116301737948));
#80 = CARTESIAN_POINT('',(-38.02871892315,22.5,-1.089300264647));
#81 = GEOMETRIC_CURVE_SET('',(#82));
#82 = TRIMMED_CURVE('',#83,(#87,PARAMETER_VALUE(25.173001410252)),(#88,
    PARAMETER_VALUE(26.162950903913)),.T.,.PARAMETER.);
#83 = LINE('',#84,#85);
#84 = CARTESIAN_POINT('',(-22.28346201919,22.5,19.805361374847));
#85 = VECTOR('',#86,1.);
#86 = DIRECTION('',(-0.601815023152,0.,-0.798635510047));
#87 = CARTESIAN_POINT('',(-37.43295244571,22.5,-0.298691445856));
#88 = CARTESIAN_POINT('',(-38.02871892315,22.5,-1.089300264647));
#89 = GEOMETRIC_CURVE_SET('',(#90));
#90 = TRIMMED_CURVE('',#91,(#95,PARAMETER_VALUE(29.15511367023)),(#96,
    PARAMETER_VALUE(31.15511367023)),.T.,.PARAMETER.);
#91 = LINE('',#92,#93);
#92 = CARTESIAN_POINT('',(-10.00843578278,22.5,1.838866143978));
#93 = VECTOR('',#94,1.);
#94 = DIRECTION('',(-0.990268068742,0.,-0.13917310096));
#95 = CARTESIAN_POINT('',(-38.87981389094,22.5,-2.218741434348));
#96 = CARTESIAN_POINT('',(-40.86035002842,22.5,-2.497087636268));
#97 = GEOMETRIC_CURVE_SET('',(#98));
#98 = TRIMMED_CURVE('',#99,(#103,PARAMETER_VALUE(5.000000000004)),(#104,
    PARAMETER_VALUE(10.000000000004)),.T.,.PARAMETER.);
#99 = LINE('',#100,#101);
#100 = CARTESIAN_POINT('',(-21.30925031248,22.5,12.873484893645));
#101 = VECTOR('',#102,1.);
#102 = DIRECTION('',(-0.482822360477,0.,-0.875718315569));
#103 = CARTESIAN_POINT('',(-23.72336211486,22.5,8.494893315794));
#104 = CARTESIAN_POINT('',(-26.13747391725,22.5,4.116301737948));
#105 = GEOMETRIC_CURVE_SET('',(#106));
#106 = TRIMMED_CURVE('',#107,(#111,PARAMETER_VALUE(0.)),(#112,
    PARAMETER_VALUE(73.)),.T.,.PARAMETER.);
#107 = LINE('',#108,#109);
#108 = CARTESIAN_POINT('',(-23.72336211486,22.5,8.494893315794));
#109 = VECTOR('',#110,1.);
#110 = DIRECTION('',(-0.13917310096,0.,0.990268068742));
#111 = CARTESIAN_POINT('',(-23.72336211486,22.5,8.494893315794));
#112 = CARTESIAN_POINT('',(-33.88299848494,22.5,80.784462333929));
#113 = GEOMETRIC_CURVE_SET('',(#114));
#114 = TRIMMED_CURVE('',#115,(#119,PARAMETER_VALUE(6.655113670233)),(
    #120,PARAMETER_VALUE(12.655113670233)),.T.,.PARAMETER.);
#115 = LINE('',#116,#117);
#116 = CARTESIAN_POINT('',(-21.35104351101,22.5,82.545713746416));
#117 = VECTOR('',#118,1.);
#118 = DIRECTION('',(-0.990268068742,0.,-0.13917310096));
#119 = CARTESIAN_POINT('',(-27.9413900725,22.5,81.619500939689));
#120 = CARTESIAN_POINT('',(-33.88299848494,22.5,80.784462333929));
#121 = GEOMETRIC_CURVE_SET('',(#122));
#122 = TRIMMED_CURVE('',#123,(#127,PARAMETER_VALUE(0.)),(#128,
    PARAMETER_VALUE(73.000000000001)),.T.,.PARAMETER.);
#123 = LINE('',#124,#125);
#124 = CARTESIAN_POINT('',(-17.78175370241,22.5,9.329931921554));
#125 = VECTOR('',#126,1.);
#126 = DIRECTION('',(-0.13917310096,0.,0.990268068742));
#127 = CARTESIAN_POINT('',(-17.78175370241,22.5,9.329931921554));
#128 = CARTESIAN_POINT('',(-27.9413900725,22.5,81.619500939689));
#129 = GEOMETRIC_CURVE_SET('',(#130));
#130 = TRIMMED_CURVE('',#131,(#135,PARAMETER_VALUE(-11.84488632977)),(
    #136,PARAMETER_VALUE(-9.84488632977)),.T.,.PARAMETER.);
#131 = LINE('',#132,#133);
#132 = CARTESIAN_POINT('',(-10.00843578278,22.5,1.838866143978));
#133 = VECTOR('',#134,1.);
#134 = DIRECTION('',(-0.990268068742,0.,-0.13917310096));
#135 = CARTESIAN_POINT('',(1.721176927464,22.5,3.487355705012));
#136 = CARTESIAN_POINT('',(-0.259359210019,22.5,3.209009503092));
#137 = GEOMETRIC_CURVE_SET('',(#138));
#138 = TRIMMED_CURVE('',#139,(#143,PARAMETER_VALUE(0.)),(#144,
    PARAMETER_VALUE(5.5)),.T.,.PARAMETER.);
#139 = LINE('',#140,#141);
#140 = CARTESIAN_POINT('',(1.721176927464,22.5,3.487355705012));
#141 = VECTOR('',#142,1.);
#142 = DIRECTION('',(-0.13917310096,0.,0.990268068742));
#143 = CARTESIAN_POINT('',(1.721176927464,22.5,3.487355705012));
#144 = CARTESIAN_POINT('',(0.955724872183,22.5,8.933830083091));
#145 = GEOMETRIC_CURVE_SET('',(#146));
#146 = TRIMMED_CURVE('',#147,(#151,PARAMETER_VALUE(0.)),(#152,
    PARAMETER_VALUE(0.707106781186)),.T.,.PARAMETER.);
#147 = LINE('',#148,#149);
#148 = CARTESIAN_POINT('',(0.305361374831,22.5,2.783462019201));
#149 = VECTOR('',#150,1.);
#150 = DIRECTION('',(-0.798635510047,0.,0.601815023152));
#151 = CARTESIAN_POINT('',(0.305361374831,22.5,2.783462019201));
#152 = CARTESIAN_POINT('',(-0.259359210019,22.5,3.209009503092));
#153 = GEOMETRIC_CURVE_SET('',(#154));
#154 = TRIMMED_CURVE('',#155,(#159,PARAMETER_VALUE(0.707106781186)),(
    #160,PARAMETER_VALUE(2.12132034356)),.T.,.PARAMETER.);
#155 = LINE('',#156,#157);
#156 = CARTESIAN_POINT('',(0.305361374831,22.5,2.783462019201));
#157 = VECTOR('',#158,1.);
#158 = DIRECTION('',(-0.798635510047,0.,0.601815023152));
#159 = CARTESIAN_POINT('',(-0.259359210019,22.5,3.209009503092));
#160 = CARTESIAN_POINT('',(-1.388800379721,22.5,4.060104470874));
#161 = GEOMETRIC_CURVE_SET('',(#162));
#162 = TRIMMED_CURVE('',#163,(#167,PARAMETER_VALUE(0.)),(#168,
    PARAMETER_VALUE(1.414213562374)),.T.,.PARAMETER.);
#163 = LINE('',#164,#165);
#164 = CARTESIAN_POINT('',(-1.388800379721,22.5,4.060104470874));
#165 = VECTOR('',#166,1.);
#166 = DIRECTION('',(0.798635510047,0.,-0.601815023152));
#167 = CARTESIAN_POINT('',(-1.388800379721,22.5,4.060104470874));
#168 = CARTESIAN_POINT('',(-0.259359210019,22.5,3.209009503092));
#169 = GEOMETRIC_CURVE_SET('',(#170));
#170 = TRIMMED_CURVE('',#171,(#175,PARAMETER_VALUE(0.)),(#176,
    PARAMETER_VALUE(5.499999999999)),.T.,.PARAMETER.);
#171 = LINE('',#172,#173);
#172 = CARTESIAN_POINT('',(-40.86035002842,22.5,-2.497087636268));
#173 = VECTOR('',#174,1.);
#174 = DIRECTION('',(-0.13917310096,0.,0.990268068742));
#175 = CARTESIAN_POINT('',(-40.86035002842,22.5,-2.497087636268));
#176 = CARTESIAN_POINT('',(-41.6258020837,22.5,2.94938674181));
#177 = GEOMETRIC_CURVE_SET('',(#178));
#178 = TRIMMED_CURVE('',#179,(#183,PARAMETER_VALUE(27.455113670231)),(
    #184,PARAMETER_VALUE(31.155113670231)),.T.,.PARAMETER.);
#179 = LINE('',#180,#181);
#180 = CARTESIAN_POINT('',(-10.77388783806,22.5,7.285340522056));
#181 = VECTOR('',#182,1.);
#182 = DIRECTION('',(-0.990268068742,0.,-0.13917310096));
#183 = CARTESIAN_POINT('',(-37.96181022936,22.5,3.464327215362));
#184 = CARTESIAN_POINT('',(-41.6258020837,22.5,2.94938674181));
#185 = GEOMETRIC_CURVE_SET('',(#186));
#186 = TRIMMED_CURVE('',#187,(#191,PARAMETER_VALUE(-11.84488632976)),(
    #192,PARAMETER_VALUE(-8.144886329769)),.T.,.PARAMETER.);
#187 = LINE('',#188,#189);
#188 = CARTESIAN_POINT('',(-10.77388783806,22.5,7.285340522056));
#189 = VECTOR('',#190,1.);
#190 = DIRECTION('',(-0.990268068742,0.,-0.13917310096));
#191 = CARTESIAN_POINT('',(0.955724872183,22.5,8.933830083091));
#192 = CARTESIAN_POINT('',(-2.70826698216,22.5,8.418889609539));
#193 = GEOMETRIC_CURVE_SET('',(#194));
#194 = TRIMMED_CURVE('',#195,(#199,PARAMETER_VALUE(0.)),(#200,
    PARAMETER_VALUE(3.8)),.T.,.PARAMETER.);
#195 = LINE('',#196,#197);
#196 = CARTESIAN_POINT('',(-2.70826698216,22.5,8.418889609539));
#197 = VECTOR('',#198,1.);
#198 = DIRECTION('',(0.13917310096,0.,-0.990268068742));
#199 = CARTESIAN_POINT('',(-2.70826698216,22.5,8.418889609539));
#200 = CARTESIAN_POINT('',(-2.179409198512,22.5,4.655870948321));
#201 = GEOMETRIC_CURVE_SET('',(#202));
#202 = TRIMMED_CURVE('',#203,(#207,PARAMETER_VALUE(0.)),(#208,
    PARAMETER_VALUE(3.8)),.T.,.PARAMETER.);
#203 = LINE('',#204,#205);
#204 = CARTESIAN_POINT('',(-37.96181022936,22.5,3.464327215362));
#205 = VECTOR('',#206,1.);
#206 = DIRECTION('',(0.13917310096,0.,-0.990268068742));
#207 = CARTESIAN_POINT('',(-37.96181022936,22.5,3.464327215362));
#208 = CARTESIAN_POINT('',(-37.43295244571,22.5,-0.298691445856));
#209 = GEOMETRIC_CURVE_SET('',(#210));
#210 = TRIMMED_CURVE('',#211,(#215,PARAMETER_VALUE(4.155113670231)),(
    #216,PARAMETER_VALUE(6.640113670227)),.T.,.PARAMETER.);
#211 = LINE('',#212,#213);
#212 = CARTESIAN_POINT('',(-12.7223112515,22.5,21.149093484438));
#213 = VECTOR('',#214,1.);
#214 = DIRECTION('',(-0.990268068742,0.,-0.13917310096));
#215 = CARTESIAN_POINT('',(-16.83698764112,22.5,20.570813430112));
#216 = CARTESIAN_POINT('',(-19.29780379194,22.5,20.224968274226));
#217 = GEOMETRIC_CURVE_SET('',(#218));
#218 = TRIMMED_CURVE('',#219,(#223,PARAMETER_VALUE(0.)),(#224,
    PARAMETER_VALUE(35.)),.T.,.PARAMETER.);
#219 = LINE('',#220,#221);
#220 = CARTESIAN_POINT('',(-16.83698764112,22.5,20.570813430112));
#221 = VECTOR('',#222,1.);
#222 = DIRECTION('',(-0.13917310096,0.,0.990268068742));
#223 = CARTESIAN_POINT('',(-16.83698764112,22.5,20.570813430112));
#224 = CARTESIAN_POINT('',(-21.70804617472,22.5,55.230195836067));
#225 = GEOMETRIC_CURVE_SET('',(#226));
#226 = TRIMMED_CURVE('',#227,(#231,PARAMETER_VALUE(0.)),(#232,
    PARAMETER_VALUE(35.)),.T.,.PARAMETER.);
#227 = LINE('',#228,#229);
#228 = CARTESIAN_POINT('',(-24.16886232554,22.5,54.884350680181));
#229 = VECTOR('',#230,1.);
#230 = DIRECTION('',(0.13917310096,0.,-0.990268068742));
#231 = CARTESIAN_POINT('',(-24.16886232554,22.5,54.884350680181));
#232 = CARTESIAN_POINT('',(-19.29780379194,22.5,20.224968274226));
#233 = GEOMETRIC_CURVE_SET('',(#234));
#234 = TRIMMED_CURVE('',#235,(#239,PARAMETER_VALUE(12.670113670231)),(
    #240,PARAMETER_VALUE(15.155113670231)),.T.,.PARAMETER.);
#235 = LINE('',#236,#237);
#236 = CARTESIAN_POINT('',(-12.7223112515,22.5,21.149093484438));
#237 = VECTOR('',#238,1.);
#238 = DIRECTION('',(-0.990268068742,0.,-0.13917310096));
#239 = CARTESIAN_POINT('',(-25.26912024645,22.5,19.385754475437));
#240 = CARTESIAN_POINT('',(-27.72993639727,22.5,19.039909319551));
#241 = GEOMETRIC_CURVE_SET('',(#242));
#242 = TRIMMED_CURVE('',#243,(#247,PARAMETER_VALUE(0.)),(#248,
    PARAMETER_VALUE(35.)),.T.,.PARAMETER.);
#243 = LINE('',#244,#245);
#244 = CARTESIAN_POINT('',(-30.14017878005,22.5,54.045136881392));
#245 = VECTOR('',#246,1.);
#246 = DIRECTION('',(0.13917310096,0.,-0.990268068742));
#247 = CARTESIAN_POINT('',(-30.14017878005,22.5,54.045136881392));
#248 = CARTESIAN_POINT('',(-25.26912024645,22.5,19.385754475437));
#249 = GEOMETRIC_CURVE_SET('',(#250));
#250 = TRIMMED_CURVE('',#251,(#255,PARAMETER_VALUE(0.)),(#256,
    PARAMETER_VALUE(35.)),.T.,.PARAMETER.);
#251 = LINE('',#252,#253);
#252 = CARTESIAN_POINT('',(-27.72993639727,22.5,19.039909319551));
#253 = VECTOR('',#254,1.);
#254 = DIRECTION('',(-0.13917310096,0.,0.990268068742));
#255 = CARTESIAN_POINT('',(-27.72993639727,22.5,19.039909319551));
#256 = CARTESIAN_POINT('',(-32.60099493087,22.5,53.699291725506));
#257 = GEOMETRIC_CURVE_SET('',(#258));
#258 = TRIMMED_CURVE('',#259,(#263,PARAMETER_VALUE(12.670113670232)),(
    #264,PARAMETER_VALUE(15.155113670232)),.T.,.PARAMETER.);
#259 = LINE('',#260,#261);
#260 = CARTESIAN_POINT('',(-17.59336978509,22.5,55.808475890393));
#261 = VECTOR('',#262,1.);
#262 = DIRECTION('',(-0.990268068742,0.,-0.13917310096));
#263 = CARTESIAN_POINT('',(-30.14017878005,22.5,54.045136881392));
#264 = CARTESIAN_POINT('',(-32.60099493087,22.5,53.699291725506));
#265 = GEOMETRIC_CURVE_SET('',(#266));
#266 = TRIMMED_CURVE('',#267,(#271,PARAMETER_VALUE(4.155113670232)),(
    #272,PARAMETER_VALUE(6.640113670228)),.T.,.PARAMETER.);
#267 = LINE('',#268,#269);
#268 = CARTESIAN_POINT('',(-17.59336978509,22.5,55.808475890393));
#269 = VECTOR('',#270,1.);
#270 = DIRECTION('',(-0.990268068742,0.,-0.13917310096));
#271 = CARTESIAN_POINT('',(-21.70804617472,22.5,55.230195836067));
#272 = CARTESIAN_POINT('',(-24.16886232554,22.5,54.884350680181));
#273 = GEOMETRIC_CURVE_SET('',(#274));
#274 = TRIMMED_CURVE('',#275,(#279,PARAMETER_VALUE(-27.39294875615)),(
    #280,PARAMETER_VALUE(5.607051243843)),.T.,.PARAMETER.);
#275 = LINE('',#276,#277);
#276 = CARTESIAN_POINT('',(11.004301020899,22.5,3.060335388017E-02));
#277 = VECTOR('',#278,1.);
#278 = DIRECTION('',(-0.990268068742,0.,0.13917310096));
#279 = CARTESIAN_POINT('',(38.130663482796,22.5,-3.781758268953));
#280 = CARTESIAN_POINT('',(5.451817214324,22.5,0.810954062727));
#281 = GEOMETRIC_CURVE_SET('',(#282));
#282 = TRIMMED_CURVE('',#283,(#287,PARAMETER_VALUE(0.)),(#288,
    PARAMETER_VALUE(1.5)),.T.,.PARAMETER.);
#283 = LINE('',#284,#285);
#284 = CARTESIAN_POINT('',(38.130663482796,22.5,-3.781758268953));
#285 = VECTOR('',#286,1.);
#286 = DIRECTION('',(0.13917310096,0.,0.990268068742));
#287 = CARTESIAN_POINT('',(38.130663482796,22.5,-3.781758268953));
#288 = CARTESIAN_POINT('',(38.339423134236,22.5,-2.296356165841));
#289 = GEOMETRIC_CURVE_SET('',(#290));
#290 = TRIMMED_CURVE('',#291,(#295,PARAMETER_VALUE(0.)),(#296,
    PARAMETER_VALUE(1.5)),.T.,.PARAMETER.);
#291 = LINE('',#292,#293);
#292 = CARTESIAN_POINT('',(5.451817214324,22.5,0.810954062727));
#293 = VECTOR('',#294,1.);
#294 = DIRECTION('',(0.13917310096,0.,0.990268068742));
#295 = CARTESIAN_POINT('',(5.451817214324,22.5,0.810954062727));
#296 = CARTESIAN_POINT('',(5.660576865764,22.5,2.296356165839));
#297 = GEOMETRIC_CURVE_SET('',(#298));
#298 = TRIMMED_CURVE('',#299,(#303,PARAMETER_VALUE(22.62741699798)),(
    #304,PARAMETER_VALUE(23.334523779167)),.T.,.PARAMETER.);
#299 = LINE('',#300,#301);
#300 = CARTESIAN_POINT('',(24.296356165841,22.5,16.339423134251));
#301 = VECTOR('',#302,1.);
#302 = DIRECTION('',(-0.798635510047,0.,-0.601815023153));
#303 = CARTESIAN_POINT('',(6.225297450615,22.5,2.72190364973));
#304 = CARTESIAN_POINT('',(5.660576865764,22.5,2.296356165839));
#305 = GEOMETRIC_CURVE_SET('',(#306));
#306 = TRIMMED_CURVE('',#307,(#311,PARAMETER_VALUE(21.213203435606)),(
    #312,PARAMETER_VALUE(22.627416997979)),.T.,.PARAMETER.);
#307 = LINE('',#308,#309);
#308 = CARTESIAN_POINT('',(24.296356165841,22.5,16.339423134249));
#309 = VECTOR('',#310,1.);
#310 = DIRECTION('',(-0.798635510047,0.,-0.601815023153));
#311 = CARTESIAN_POINT('',(7.354738620316,22.5,3.572998617511));
#312 = CARTESIAN_POINT('',(6.225297450615,22.5,2.72190364973));
#313 = GEOMETRIC_CURVE_SET('',(#314));
#314 = TRIMMED_CURVE('',#315,(#319,PARAMETER_VALUE(6.437735971944)),(
    #320,PARAMETER_VALUE(16.094339929858)),.T.,.PARAMETER.);
#315 = LINE('',#316,#317);
#316 = CARTESIAN_POINT('',(23.020602740374,22.5,7.261965837442));
#317 = VECTOR('',#318,1.);
#318 = DIRECTION('',(-0.973377236242,0.,-0.229208978809));
#319 = CARTESIAN_POINT('',(16.75425709235,22.5,5.786378949468));
#320 = CARTESIAN_POINT('',(7.354738620316,22.5,3.572998617511));
#321 = GEOMETRIC_CURVE_SET('',(#322));
#322 = TRIMMED_CURVE('',#323,(#327,PARAMETER_VALUE(20.223253941944)),(
    #328,PARAMETER_VALUE(21.213203435606)),.T.,.PARAMETER.);
#323 = LINE('',#324,#325);
#324 = CARTESIAN_POINT('',(24.296356165841,22.5,16.339423134248));
#325 = VECTOR('',#326,1.);
#326 = DIRECTION('',(-0.798635510047,0.,-0.601815023153));
#327 = CARTESIAN_POINT('',(8.145347439107,22.5,4.168765094958));
#328 = CARTESIAN_POINT('',(7.354738620316,22.5,3.572998617511));
#329 = GEOMETRIC_CURVE_SET('',(#330));
#330 = TRIMMED_CURVE('',#331,(#335,PARAMETER_VALUE(5.107051243843)),(
    #336,PARAMETER_VALUE(7.107051243843)),.T.,.PARAMETER.);
#331 = LINE('',#332,#333);
#332 = CARTESIAN_POINT('',(11.282647222819,22.5,2.011139491363));
#333 = VECTOR('',#334,1.);
#334 = DIRECTION('',(-0.990268068742,0.,0.13917310096));
#335 = CARTESIAN_POINT('',(6.225297450615,22.5,2.72190364973));
#336 = CARTESIAN_POINT('',(4.244761313131,22.5,3.00024985165));
#337 = GEOMETRIC_CURVE_SET('',(#338));
#338 = TRIMMED_CURVE('',#339,(#343,PARAMETER_VALUE(5.000000000003)),(
    #344,PARAMETER_VALUE(10.000000000004)),.T.,.PARAMETER.);
#339 = LINE('',#340,#341);
#340 = CARTESIAN_POINT('',(23.80925031248,22.5,12.873484893645));
#341 = VECTOR('',#342,1.);
#342 = DIRECTION('',(-0.705499322013,0.,-0.708710594418));
#343 = CARTESIAN_POINT('',(20.281753702416,22.5,9.329931921554));
#344 = CARTESIAN_POINT('',(16.75425709235,22.5,5.786378949468));
#345 = GEOMETRIC_CURVE_SET('',(#346));
#346 = TRIMMED_CURVE('',#347,(#351,PARAMETER_VALUE(0.)),(#352,
    PARAMETER_VALUE(73.)),.T.,.PARAMETER.);
#347 = LINE('',#348,#349);
#348 = CARTESIAN_POINT('',(20.281753702416,22.5,9.329931921554));
#349 = VECTOR('',#350,1.);
#350 = DIRECTION('',(0.13917310096,0.,0.990268068742));
#351 = CARTESIAN_POINT('',(20.281753702416,22.5,9.329931921554));
#352 = CARTESIAN_POINT('',(30.4413900725,22.5,81.619500939689));
#353 = GEOMETRIC_CURVE_SET('',(#354));
#354 = TRIMMED_CURVE('',#355,(#359,PARAMETER_VALUE(-13.89294875616)),(
    #360,PARAMETER_VALUE(-7.892948756162)),.T.,.PARAMETER.);
#355 = LINE('',#356,#357);
#356 = CARTESIAN_POINT('',(22.625254951059,22.5,82.717987093802));
#357 = VECTOR('',#358,1.);
#358 = DIRECTION('',(-0.990268068742,0.,0.13917310096));
#359 = CARTESIAN_POINT('',(36.38299848495,22.5,80.784462333929));
#360 = CARTESIAN_POINT('',(30.4413900725,22.5,81.619500939689));
#361 = GEOMETRIC_CURVE_SET('',(#362));
#362 = TRIMMED_CURVE('',#363,(#367,PARAMETER_VALUE(0.)),(#368,
    PARAMETER_VALUE(73.)),.T.,.PARAMETER.);
#363 = LINE('',#364,#365);
#364 = CARTESIAN_POINT('',(26.223362114865,22.5,8.494893315794));
#365 = VECTOR('',#366,1.);
#366 = DIRECTION('',(0.13917310096,0.,0.990268068742));
#367 = CARTESIAN_POINT('',(26.223362114865,22.5,8.494893315794));
#368 = CARTESIAN_POINT('',(36.38299848495,22.5,80.784462333929));
#369 = GEOMETRIC_CURVE_SET('',(#370));
#370 = TRIMMED_CURVE('',#371,(#375,PARAMETER_VALUE(-28.89294875615)),(
    #376,PARAMETER_VALUE(-26.89294875615)),.T.,.PARAMETER.);
#371 = LINE('',#372,#373);
#372 = CARTESIAN_POINT('',(11.282647222819,22.5,2.011139491363));
#373 = VECTOR('',#374,1.);
#374 = DIRECTION('',(-0.990268068742,0.,0.13917310096));
#375 = CARTESIAN_POINT('',(39.894411787828,22.5,-2.00998178291));
#376 = CARTESIAN_POINT('',(37.913875650345,22.5,-1.73163558099));
#377 = GEOMETRIC_CURVE_SET('',(#378));
#378 = TRIMMED_CURVE('',#379,(#383,PARAMETER_VALUE(0.)),(#384,
    PARAMETER_VALUE(5.499999999999)),.T.,.PARAMETER.);
#379 = LINE('',#380,#381);
#380 = CARTESIAN_POINT('',(39.894411787828,22.5,-2.00998178291));
#381 = VECTOR('',#382,1.);
#382 = DIRECTION('',(0.13917310096,0.,0.990268068742));
#383 = CARTESIAN_POINT('',(39.894411787828,22.5,-2.00998178291));
#384 = CARTESIAN_POINT('',(40.659863843109,22.5,3.436492595168));
#385 = GEOMETRIC_CURVE_SET('',(#386));
#386 = TRIMMED_CURVE('',#387,(#391,PARAMETER_VALUE(0.)),(#392,
    PARAMETER_VALUE(1.414213562372)),.T.,.PARAMETER.);
#387 = LINE('',#388,#389);
#388 = CARTESIAN_POINT('',(37.062780682564,22.5,-0.602194411289));
#389 = VECTOR('',#390,1.);
#390 = DIRECTION('',(0.601815023152,0.,-0.798635510047));
#391 = CARTESIAN_POINT('',(37.062780682564,22.5,-0.602194411289));
#392 = CARTESIAN_POINT('',(37.913875650345,22.5,-1.73163558099));
#393 = GEOMETRIC_CURVE_SET('',(#394));
#394 = TRIMMED_CURVE('',#395,(#399,PARAMETER_VALUE(0.)),(#400,
    PARAMETER_VALUE(5.499999999999)),.T.,.PARAMETER.);
#395 = LINE('',#396,#397);
#396 = CARTESIAN_POINT('',(4.244761313131,22.5,3.00024985165));
#397 = VECTOR('',#398,1.);
#398 = DIRECTION('',(0.13917310096,0.,0.990268068742));
#399 = CARTESIAN_POINT('',(4.244761313131,22.5,3.00024985165));
#400 = CARTESIAN_POINT('',(5.010213368411,22.5,8.446724229728));
#401 = GEOMETRIC_CURVE_SET('',(#402));
#402 = TRIMMED_CURVE('',#403,(#407,PARAMETER_VALUE(3.407051243842)),(
    #408,PARAMETER_VALUE(7.107051243842)),.T.,.PARAMETER.);
#403 = LINE('',#404,#405);
#404 = CARTESIAN_POINT('',(12.048099278099,22.5,7.457613869441));
#405 = VECTOR('',#406,1.);
#406 = DIRECTION('',(-0.990268068742,0.,0.13917310096));
#407 = CARTESIAN_POINT('',(8.674205222755,22.5,7.931783756176));
#408 = CARTESIAN_POINT('',(5.010213368411,22.5,8.446724229728));
#409 = GEOMETRIC_CURVE_SET('',(#410));
#410 = TRIMMED_CURVE('',#411,(#415,PARAMETER_VALUE(-28.89294875615)),(
    #416,PARAMETER_VALUE(-25.19294875615)),.T.,.PARAMETER.);
#411 = LINE('',#412,#413);
#412 = CARTESIAN_POINT('',(12.048099278099,22.5,7.457613869441));
#413 = VECTOR('',#414,1.);
#414 = DIRECTION('',(-0.990268068742,0.,0.13917310096));
#415 = CARTESIAN_POINT('',(40.659863843109,22.5,3.436492595168));
#416 = CARTESIAN_POINT('',(36.995871988765,22.5,3.95143306872));
#417 = GEOMETRIC_CURVE_SET('',(#418));
#418 = TRIMMED_CURVE('',#419,(#423,PARAMETER_VALUE(0.)),(#424,
    PARAMETER_VALUE(3.799999999999)),.T.,.PARAMETER.);
#419 = LINE('',#420,#421);
#420 = CARTESIAN_POINT('',(36.995871988765,22.5,3.95143306872));
#421 = VECTOR('',#422,1.);
#422 = DIRECTION('',(-0.13917310096,0.,-0.990268068742));
#423 = CARTESIAN_POINT('',(36.995871988765,22.5,3.95143306872));
#424 = CARTESIAN_POINT('',(36.467014205117,22.5,0.188414407503));
#425 = GEOMETRIC_CURVE_SET('',(#426));
#426 = TRIMMED_CURVE('',#427,(#431,PARAMETER_VALUE(-0.)),(#432,
    PARAMETER_VALUE(3.8)),.T.,.PARAMETER.);
#427 = LINE('',#428,#429);
#428 = CARTESIAN_POINT('',(8.674205222755,22.5,7.931783756176));
#429 = VECTOR('',#430,1.);
#430 = DIRECTION('',(-0.13917310096,-0.,-0.990268068742));
#431 = CARTESIAN_POINT('',(8.674205222755,22.5,7.931783756176));
#432 = CARTESIAN_POINT('',(8.145347439107,22.5,4.168765094958));
#433 = GEOMETRIC_CURVE_SET('',(#434));
#434 = TRIMMED_CURVE('',#435,(#439,PARAMETER_VALUE(-16.39294875615)),(
    #440,PARAMETER_VALUE(-13.91294875615)),.T.,.PARAMETER.);
#435 = LINE('',#436,#437);
#436 = CARTESIAN_POINT('',(13.996522691539,22.5,21.321366831823));
#437 = VECTOR('',#438,1.);
#438 = DIRECTION('',(-0.990268068742,0.,0.13917310096));
#439 = CARTESIAN_POINT('',(30.22993639728,22.5,19.039909319551));
#440 = CARTESIAN_POINT('',(27.774071586801,22.5,19.385058609932));
#441 = GEOMETRIC_CURVE_SET('',(#442));
#442 = TRIMMED_CURVE('',#443,(#447,PARAMETER_VALUE(0.)),(#448,
    PARAMETER_VALUE(35.)),.T.,.PARAMETER.);
#443 = LINE('',#444,#445);
#444 = CARTESIAN_POINT('',(30.22993639728,22.5,19.039909319551));
#445 = VECTOR('',#446,1.);
#446 = DIRECTION('',(0.13917310096,0.,0.990268068742));
#447 = CARTESIAN_POINT('',(30.22993639728,22.5,19.039909319551));
#448 = CARTESIAN_POINT('',(35.100994930882,22.5,53.699291725506));
#449 = GEOMETRIC_CURVE_SET('',(#450));
#450 = TRIMMED_CURVE('',#451,(#455,PARAMETER_VALUE(0.)),(#456,
    PARAMETER_VALUE(35.)),.T.,.PARAMETER.);
#451 = LINE('',#452,#453);
#452 = CARTESIAN_POINT('',(32.645130120403,22.5,54.044441015887));
#453 = VECTOR('',#454,1.);
#454 = DIRECTION('',(-0.13917310096,0.,-0.990268068742));
#455 = CARTESIAN_POINT('',(32.645130120403,22.5,54.044441015887));
#456 = CARTESIAN_POINT('',(27.774071586801,22.5,19.385058609932));
#457 = GEOMETRIC_CURVE_SET('',(#458));
#458 = TRIMMED_CURVE('',#459,(#463,PARAMETER_VALUE(-7.872948756159)),(
    #464,PARAMETER_VALUE(-5.392948756159)),.T.,.PARAMETER.);
#459 = LINE('',#460,#461);
#460 = CARTESIAN_POINT('',(13.996522691539,22.5,21.321366831823));
#461 = VECTOR('',#462,1.);
#462 = DIRECTION('',(-0.990268068742,0.,0.13917310096));
#463 = CARTESIAN_POINT('',(21.792852451601,22.5,20.22566413973));
#464 = CARTESIAN_POINT('',(19.336987641122,22.5,20.570813430111));
#465 = GEOMETRIC_CURVE_SET('',(#466));
#466 = TRIMMED_CURVE('',#467,(#471,PARAMETER_VALUE(-0.)),(#472,
    PARAMETER_VALUE(35.)),.T.,.PARAMETER.);
#467 = LINE('',#468,#469);
#468 = CARTESIAN_POINT('',(26.663910985204,22.5,54.885046545685));
#469 = VECTOR('',#470,1.);
#470 = DIRECTION('',(-0.13917310096,-0.,-0.990268068742));
#471 = CARTESIAN_POINT('',(26.663910985204,22.5,54.885046545685));
#472 = CARTESIAN_POINT('',(21.792852451601,22.5,20.22566413973));
#473 = GEOMETRIC_CURVE_SET('',(#474));
#474 = TRIMMED_CURVE('',#475,(#479,PARAMETER_VALUE(0.)),(#480,
    PARAMETER_VALUE(35.)),.T.,.PARAMETER.);
#475 = LINE('',#476,#477);
#476 = CARTESIAN_POINT('',(19.336987641122,22.5,20.570813430111));
#477 = VECTOR('',#478,1.);
#478 = DIRECTION('',(0.13917310096,0.,0.990268068742));
#479 = CARTESIAN_POINT('',(19.336987641122,22.5,20.570813430111));
#480 = CARTESIAN_POINT('',(24.208046174725,22.5,55.230195836066));
#481 = GEOMETRIC_CURVE_SET('',(#482));
#482 = TRIMMED_CURVE('',#483,(#487,PARAMETER_VALUE(-7.872948756161)),(
    #488,PARAMETER_VALUE(-5.392948756161)),.T.,.PARAMETER.);
#483 = LINE('',#484,#485);
#484 = CARTESIAN_POINT('',(18.867581225139,22.5,55.980749237779));
#485 = VECTOR('',#486,1.);
#486 = DIRECTION('',(-0.990268068742,0.,0.13917310096));
#487 = CARTESIAN_POINT('',(26.663910985204,22.5,54.885046545685));
#488 = CARTESIAN_POINT('',(24.208046174725,22.5,55.230195836066));
#489 = GEOMETRIC_CURVE_SET('',(#490));
#490 = TRIMMED_CURVE('',#491,(#495,PARAMETER_VALUE(-16.39294875616)),(
    #496,PARAMETER_VALUE(-13.91294875616)),.T.,.PARAMETER.);
#491 = LINE('',#492,#493);
#492 = CARTESIAN_POINT('',(18.867581225139,22.5,55.980749237779));
#493 = VECTOR('',#494,1.);
#494 = DIRECTION('',(-0.990268068742,0.,0.13917310096));
#495 = CARTESIAN_POINT('',(35.100994930882,22.5,53.699291725506));
#496 = CARTESIAN_POINT('',(32.645130120403,22.5,54.044441015887));
#497 = GEOMETRIC_CURVE_SET('',(#498));
#498 = TRIMMED_CURVE('',#499,(#503,PARAMETER_VALUE(0.)),(#504,
    PARAMETER_VALUE(12.980754985746)),.T.,.PARAMETER.);
#499 = LINE('',#500,#501);
#500 = CARTESIAN_POINT('',(-1.388800379721,22.5,4.060104470874));
#501 = VECTOR('',#502,1.);
#502 = DIRECTION('',(-0.991117752916,0.,0.132987216883));
#503 = CARTESIAN_POINT('',(-1.388800379721,22.5,4.060104470874));
#504 = CARTESIAN_POINT('',(-14.25425709235,22.5,5.786378949468));
#505 = GEOMETRIC_CURVE_SET('',(#506));
#506 = TRIMMED_CURVE('',#507,(#511,PARAMETER_VALUE(0.)),(#512,
    PARAMETER_VALUE(0.989949493661)),.T.,.PARAMETER.);
#507 = LINE('',#508,#509);
#508 = CARTESIAN_POINT('',(-2.179409198512,22.5,4.655870948321));
#509 = VECTOR('',#510,1.);
#510 = DIRECTION('',(0.798635510047,0.,-0.601815023152));
#511 = CARTESIAN_POINT('',(-2.179409198512,22.5,4.655870948321));
#512 = CARTESIAN_POINT('',(-1.388800379721,22.5,4.060104470874));
#513 = GEOMETRIC_CURVE_SET('',(#514));
#514 = TRIMMED_CURVE('',#515,(#519,PARAMETER_VALUE(0.)),(#520,
    PARAMETER_VALUE(4.999999999996)),.T.,.PARAMETER.);
#515 = LINE('',#516,#517);
#516 = CARTESIAN_POINT('',(-14.25425709235,22.5,5.786378949468));
#517 = VECTOR('',#518,1.);
#518 = DIRECTION('',(-0.705499322013,0.,0.708710594417));
#519 = CARTESIAN_POINT('',(-14.25425709235,22.5,5.786378949468));
#520 = CARTESIAN_POINT('',(-17.78175370241,22.5,9.329931921554));
#521 = GEOMETRIC_CURVE_SET('',(#522));
#522 = TRIMMED_CURVE('',#523,(#527,PARAMETER_VALUE(0.)),(#528,
    PARAMETER_VALUE(2.121320343559)),.T.,.PARAMETER.);
#523 = LINE('',#524,#525);
#524 = CARTESIAN_POINT('',(38.339423134236,22.5,-2.296356165841));
#525 = VECTOR('',#526,1.);
#526 = DIRECTION('',(-0.601815023152,0.,0.798635510047));
#527 = CARTESIAN_POINT('',(38.339423134236,22.5,-2.296356165841));
#528 = CARTESIAN_POINT('',(37.062780682564,22.5,-0.602194411289));
#529 = GEOMETRIC_CURVE_SET('',(#530));
#530 = TRIMMED_CURVE('',#531,(#535,PARAMETER_VALUE(0.)),(#536,
    PARAMETER_VALUE(9.656603957914)),.T.,.PARAMETER.);
#531 = LINE('',#532,#533);
#532 = CARTESIAN_POINT('',(37.062780682564,22.5,-0.602194411289));
#533 = VECTOR('',#534,1.);
#534 = DIRECTION('',(-0.872491696049,0.,0.488628939304));
#535 = CARTESIAN_POINT('',(37.062780682564,22.5,-0.602194411289));
#536 = CARTESIAN_POINT('',(28.63747391725,22.5,4.116301737947));
#537 = GEOMETRIC_CURVE_SET('',(#538));
#538 = TRIMMED_CURVE('',#539,(#543,PARAMETER_VALUE(0.)),(#544,
    PARAMETER_VALUE(5.000000000001)),.T.,.PARAMETER.);
#539 = LINE('',#540,#541);
#540 = CARTESIAN_POINT('',(28.63747391725,22.5,4.116301737947));
#541 = VECTOR('',#542,1.);
#542 = DIRECTION('',(-0.482822360477,0.,0.875718315569));
#543 = CARTESIAN_POINT('',(28.63747391725,22.5,4.116301737947));
#544 = CARTESIAN_POINT('',(26.223362114865,22.5,8.494893315794));
#545 = GEOMETRIC_CURVE_SET('',(#546));
#546 = TRIMMED_CURVE('',#547,(#551,PARAMETER_VALUE(0.)),(#552,
    PARAMETER_VALUE(0.989949493662)),.T.,.PARAMETER.);
#547 = LINE('',#548,#549);
#548 = CARTESIAN_POINT('',(36.467014205117,22.5,0.188414407503));
#549 = VECTOR('',#550,1.);
#550 = DIRECTION('',(0.601815023152,0.,-0.798635510047));
#551 = CARTESIAN_POINT('',(36.467014205117,22.5,0.188414407503));
#552 = CARTESIAN_POINT('',(37.062780682564,22.5,-0.602194411289));
#553 = ( GEOMETRIC_REPRESENTATION_CONTEXT(3) 
GLOBAL_UNCERTAINTY_ASSIGNED_CONTEXT((#557)) GLOBAL_UNIT_ASSIGNED_CONTEXT
((#554,#555,#556)) REPRESENTATION_CONTEXT('Context #1',
  '3D Context with UNIT and UNCERTAINTY') );
#554 = ( LENGTH_UNIT() NAMED_UNIT(*) SI_UNIT(.MILLI.,.METRE.) );
#555 = ( NAMED_UNIT(*) PLANE_ANGLE_UNIT() SI_UNIT($,.RADIAN.) );
#556 = ( NAMED_UNIT(*) SI_UNIT($,.STERADIAN.) SOLID_ANGLE_UNIT() );
#557 = UNCERTAINTY_MEASURE_WITH_UNIT(LENGTH_MEASURE(1.E-07),#554,
  'distance_accuracy_value','confusion accuracy');
#558 = CONTEXT_DEPENDENT_SHAPE_REPRESENTATION(#559,#561);
#559 = ( REPRESENTATION_RELATIONSHIP('','',#32,#10) 
REPRESENTATION_RELATIONSHIP_WITH_TRANSFORMATION(#560) 
SHAPE_REPRESENTATION_RELATIONSHIP() );
#560 = ITEM_DEFINED_TRANSFORMATION('','',#11,#15);
#561 = PRODUCT_DEFINITION_SHAPE('Placement','Placement of an item',#562
  );
#562 = NEXT_ASSEMBLY_USAGE_OCCURRENCE('1','=>[0:1:1:2]','',#5,#27,$);
#563 = PRODUCT_RELATED_PRODUCT_CATEGORY('part',$,(#29));
#564 = MECHANICAL_DESIGN_GEOMETRIC_PRESENTATION_REPRESENTATION('',(#565,
    #575,#584,#593,#602,#611,#620,#629,#638,#647,#656,#665,#674,#683,
    #692,#701,#710,#719,#728,#737,#746,#755,#764,#773,#782,#791,#800,
    #809,#818,#827,#836,#845,#854,#863,#872,#881,#890,#899,#908,#917,
    #926,#935,#944,#953,#962,#971,#980,#989,#998,#1007,#1016,#1025,#1034
    ,#1043,#1052,#1061,#1070,#1079,#1088,#1097,#1106,#1115,#1124,#1133,
    #1142),#553);
#565 = STYLED_ITEM('color',(#566),#33);
#566 = PRESENTATION_STYLE_ASSIGNMENT((#567,#573));
#567 = SURFACE_STYLE_USAGE(.BOTH.,#568);
#568 = SURFACE_SIDE_STYLE('',(#569));
#569 = SURFACE_STYLE_FILL_AREA(#570);
#570 = FILL_AREA_STYLE('',(#571));
#571 = FILL_AREA_STYLE_COLOUR('',#572);
#572 = COLOUR_RGB('',0.665185089102,0.665185089102,0.665185089102);
#573 = CURVE_STYLE('',#574,POSITIVE_LENGTH_MEASURE(0.1),#572);
#574 = DRAUGHTING_PRE_DEFINED_CURVE_FONT('continuous');
#575 = STYLED_ITEM('color',(#576),#41);
#576 = PRESENTATION_STYLE_ASSIGNMENT((#577,#582));
#577 = SURFACE_STYLE_USAGE(.BOTH.,#578);
#578 = SURFACE_SIDE_STYLE('',(#579));
#579 = SURFACE_STYLE_FILL_AREA(#580);
#580 = FILL_AREA_STYLE('',(#581));
#581 = FILL_AREA_STYLE_COLOUR('',#572);
#582 = CURVE_STYLE('',#583,POSITIVE_LENGTH_MEASURE(0.1),#572);
#583 = DRAUGHTING_PRE_DEFINED_CURVE_FONT('continuous');
#584 = STYLED_ITEM('color',(#585),#49);
#585 = PRESENTATION_STYLE_ASSIGNMENT((#586,#591));
#586 = SURFACE_STYLE_USAGE(.BOTH.,#587);
#587 = SURFACE_SIDE_STYLE('',(#588));
#588 = SURFACE_STYLE_FILL_AREA(#589);
#589 = FILL_AREA_STYLE('',(#590));
#590 = FILL_AREA_STYLE_COLOUR('',#572);
#591 = CURVE_STYLE('',#592,POSITIVE_LENGTH_MEASURE(0.1),#572);
#592 = DRAUGHTING_PRE_DEFINED_CURVE_FONT('continuous');
#593 = STYLED_ITEM('color',(#594),#57);
#594 = PRESENTATION_STYLE_ASSIGNMENT((#595,#600));
#595 = SURFACE_STYLE_USAGE(.BOTH.,#596);
#596 = SURFACE_SIDE_STYLE('',(#597));
#597 = SURFACE_STYLE_FILL_AREA(#598);
#598 = FILL_AREA_STYLE('',(#599));
#599 = FILL_AREA_STYLE_COLOUR('',#572);
#600 = CURVE_STYLE('',#601,POSITIVE_LENGTH_MEASURE(0.1),#572);
#601 = DRAUGHTING_PRE_DEFINED_CURVE_FONT('continuous');
#602 = STYLED_ITEM('color',(#603),#65);
#603 = PRESENTATION_STYLE_ASSIGNMENT((#604,#609));
#604 = SURFACE_STYLE_USAGE(.BOTH.,#605);
#605 = SURFACE_SIDE_STYLE('',(#606));
#606 = SURFACE_STYLE_FILL_AREA(#607);
#607 = FILL_AREA_STYLE('',(#608));
#608 = FILL_AREA_STYLE_COLOUR('',#572);
#609 = CURVE_STYLE('',#610,POSITIVE_LENGTH_MEASURE(0.1),#572);
#610 = DRAUGHTING_PRE_DEFINED_CURVE_FONT('continuous');
#611 = STYLED_ITEM('color',(#612),#73);
#612 = PRESENTATION_STYLE_ASSIGNMENT((#613,#618));
#613 = SURFACE_STYLE_USAGE(.BOTH.,#614);
#614 = SURFACE_SIDE_STYLE('',(#615));
#615 = SURFACE_STYLE_FILL_AREA(#616);
#616 = FILL_AREA_STYLE('',(#617));
#617 = FILL_AREA_STYLE_COLOUR('',#572);
#618 = CURVE_STYLE('',#619,POSITIVE_LENGTH_MEASURE(0.1),#572);
#619 = DRAUGHTING_PRE_DEFINED_CURVE_FONT('continuous');
#620 = STYLED_ITEM('color',(#621),#81);
#621 = PRESENTATION_STYLE_ASSIGNMENT((#622,#627));
#622 = SURFACE_STYLE_USAGE(.BOTH.,#623);
#623 = SURFACE_SIDE_STYLE('',(#624));
#624 = SURFACE_STYLE_FILL_AREA(#625);
#625 = FILL_AREA_STYLE('',(#626));
#626 = FILL_AREA_STYLE_COLOUR('',#572);
#627 = CURVE_STYLE('',#628,POSITIVE_LENGTH_MEASURE(0.1),#572);
#628 = DRAUGHTING_PRE_DEFINED_CURVE_FONT('continuous');
#629 = STYLED_ITEM('color',(#630),#89);
#630 = PRESENTATION_STYLE_ASSIGNMENT((#631,#636));
#631 = SURFACE_STYLE_USAGE(.BOTH.,#632);
#632 = SURFACE_SIDE_STYLE('',(#633));
#633 = SURFACE_STYLE_FILL_AREA(#634);
#634 = FILL_AREA_STYLE('',(#635));
#635 = FILL_AREA_STYLE_COLOUR('',#572);
#636 = CURVE_STYLE('',#637,POSITIVE_LENGTH_MEASURE(0.1),#572);
#637 = DRAUGHTING_PRE_DEFINED_CURVE_FONT('continuous');
#638 = STYLED_ITEM('color',(#639),#97);
#639 = PRESENTATION_STYLE_ASSIGNMENT((#640,#645));
#640 = SURFACE_STYLE_USAGE(.BOTH.,#641);
#641 = SURFACE_SIDE_STYLE('',(#642));
#642 = SURFACE_STYLE_FILL_AREA(#643);
#643 = FILL_AREA_STYLE('',(#644));
#644 = FILL_AREA_STYLE_COLOUR('',#572);
#645 = CURVE_STYLE('',#646,POSITIVE_LENGTH_MEASURE(0.1),#572);
#646 = DRAUGHTING_PRE_DEFINED_CURVE_FONT('continuous');
#647 = STYLED_ITEM('color',(#648),#105);
#648 = PRESENTATION_STYLE_ASSIGNMENT((#649,#654));
#649 = SURFACE_STYLE_USAGE(.BOTH.,#650);
#650 = SURFACE_SIDE_STYLE('',(#651));
#651 = SURFACE_STYLE_FILL_AREA(#652);
#652 = FILL_AREA_STYLE('',(#653));
#653 = FILL_AREA_STYLE_COLOUR('',#572);
#654 = CURVE_STYLE('',#655,POSITIVE_LENGTH_MEASURE(0.1),#572);
#655 = DRAUGHTING_PRE_DEFINED_CURVE_FONT('continuous');
#656 = STYLED_ITEM('color',(#657),#113);
#657 = PRESENTATION_STYLE_ASSIGNMENT((#658,#663));
#658 = SURFACE_STYLE_USAGE(.BOTH.,#659);
#659 = SURFACE_SIDE_STYLE('',(#660));
#660 = SURFACE_STYLE_FILL_AREA(#661);
#661 = FILL_AREA_STYLE('',(#662));
#662 = FILL_AREA_STYLE_COLOUR('',#572);
#663 = CURVE_STYLE('',#664,POSITIVE_LENGTH_MEASURE(0.1),#572);
#664 = DRAUGHTING_PRE_DEFINED_CURVE_FONT('continuous');
#665 = STYLED_ITEM('color',(#666),#121);
#666 = PRESENTATION_STYLE_ASSIGNMENT((#667,#672));
#667 = SURFACE_STYLE_USAGE(.BOTH.,#668);
#668 = SURFACE_SIDE_STYLE('',(#669));
#669 = SURFACE_STYLE_FILL_AREA(#670);
#670 = FILL_AREA_STYLE('',(#671));
#671 = FILL_AREA_STYLE_COLOUR('',#572);
#672 = CURVE_STYLE('',#673,POSITIVE_LENGTH_MEASURE(0.1),#572);
#673 = DRAUGHTING_PRE_DEFINED_CURVE_FONT('continuous');
#674 = STYLED_ITEM('color',(#675),#129);
#675 = PRESENTATION_STYLE_ASSIGNMENT((#676,#681));
#676 = SURFACE_STYLE_USAGE(.BOTH.,#677);
#677 = SURFACE_SIDE_STYLE('',(#678));
#678 = SURFACE_STYLE_FILL_AREA(#679);
#679 = FILL_AREA_STYLE('',(#680));
#680 = FILL_AREA_STYLE_COLOUR('',#572);
#681 = CURVE_STYLE('',#682,POSITIVE_LENGTH_MEASURE(0.1),#572);
#682 = DRAUGHTING_PRE_DEFINED_CURVE_FONT('continuous');
#683 = STYLED_ITEM('color',(#684),#137);
#684 = PRESENTATION_STYLE_ASSIGNMENT((#685,#690));
#685 = SURFACE_STYLE_USAGE(.BOTH.,#686);
#686 = SURFACE_SIDE_STYLE('',(#687));
#687 = SURFACE_STYLE_FILL_AREA(#688);
#688 = FILL_AREA_STYLE('',(#689));
#689 = FILL_AREA_STYLE_COLOUR('',#572);
#690 = CURVE_STYLE('',#691,POSITIVE_LENGTH_MEASURE(0.1),#572);
#691 = DRAUGHTING_PRE_DEFINED_CURVE_FONT('continuous');
#692 = STYLED_ITEM('color',(#693),#145);
#693 = PRESENTATION_STYLE_ASSIGNMENT((#694,#699));
#694 = SURFACE_STYLE_USAGE(.BOTH.,#695);
#695 = SURFACE_SIDE_STYLE('',(#696));
#696 = SURFACE_STYLE_FILL_AREA(#697);
#697 = FILL_AREA_STYLE('',(#698));
#698 = FILL_AREA_STYLE_COLOUR('',#572);
#699 = CURVE_STYLE('',#700,POSITIVE_LENGTH_MEASURE(0.1),#572);
#700 = DRAUGHTING_PRE_DEFINED_CURVE_FONT('continuous');
#701 = STYLED_ITEM('color',(#702),#153);
#702 = PRESENTATION_STYLE_ASSIGNMENT((#703,#708));
#703 = SURFACE_STYLE_USAGE(.BOTH.,#704);
#704 = SURFACE_SIDE_STYLE('',(#705));
#705 = SURFACE_STYLE_FILL_AREA(#706);
#706 = FILL_AREA_STYLE('',(#707));
#707 = FILL_AREA_STYLE_COLOUR('',#572);
#708 = CURVE_STYLE('',#709,POSITIVE_LENGTH_MEASURE(0.1),#572);
#709 = DRAUGHTING_PRE_DEFINED_CURVE_FONT('continuous');
#710 = STYLED_ITEM('color',(#711),#161);
#711 = PRESENTATION_STYLE_ASSIGNMENT((#712,#717));
#712 = SURFACE_STYLE_USAGE(.BOTH.,#713);
#713 = SURFACE_SIDE_STYLE('',(#714));
#714 = SURFACE_STYLE_FILL_AREA(#715);
#715 = FILL_AREA_STYLE('',(#716));
#716 = FILL_AREA_STYLE_COLOUR('',#572);
#717 = CURVE_STYLE('',#718,POSITIVE_LENGTH_MEASURE(0.1),#572);
#718 = DRAUGHTING_PRE_DEFINED_CURVE_FONT('continuous');
#719 = STYLED_ITEM('color',(#720),#169);
#720 = PRESENTATION_STYLE_ASSIGNMENT((#721,#726));
#721 = SURFACE_STYLE_USAGE(.BOTH.,#722);
#722 = SURFACE_SIDE_STYLE('',(#723));
#723 = SURFACE_STYLE_FILL_AREA(#724);
#724 = FILL_AREA_STYLE('',(#725));
#725 = FILL_AREA_STYLE_COLOUR('',#572);
#726 = CURVE_STYLE('',#727,POSITIVE_LENGTH_MEASURE(0.1),#572);
#727 = DRAUGHTING_PRE_DEFINED_CURVE_FONT('continuous');
#728 = STYLED_ITEM('color',(#729),#177);
#729 = PRESENTATION_STYLE_ASSIGNMENT((#730,#735));
#730 = SURFACE_STYLE_USAGE(.BOTH.,#731);
#731 = SURFACE_SIDE_STYLE('',(#732));
#732 = SURFACE_STYLE_FILL_AREA(#733);
#733 = FILL_AREA_STYLE('',(#734));
#734 = FILL_AREA_STYLE_COLOUR('',#572);
#735 = CURVE_STYLE('',#736,POSITIVE_LENGTH_MEASURE(0.1),#572);
#736 = DRAUGHTING_PRE_DEFINED_CURVE_FONT('continuous');
#737 = STYLED_ITEM('color',(#738),#185);
#738 = PRESENTATION_STYLE_ASSIGNMENT((#739,#744));
#739 = SURFACE_STYLE_USAGE(.BOTH.,#740);
#740 = SURFACE_SIDE_STYLE('',(#741));
#741 = SURFACE_STYLE_FILL_AREA(#742);
#742 = FILL_AREA_STYLE('',(#743));
#743 = FILL_AREA_STYLE_COLOUR('',#572);
#744 = CURVE_STYLE('',#745,POSITIVE_LENGTH_MEASURE(0.1),#572);
#745 = DRAUGHTING_PRE_DEFINED_CURVE_FONT('continuous');
#746 = STYLED_ITEM('color',(#747),#193);
#747 = PRESENTATION_STYLE_ASSIGNMENT((#748,#753));
#748 = SURFACE_STYLE_USAGE(.BOTH.,#749);
#749 = SURFACE_SIDE_STYLE('',(#750));
#750 = SURFACE_STYLE_FILL_AREA(#751);
#751 = FILL_AREA_STYLE('',(#752));
#752 = FILL_AREA_STYLE_COLOUR('',#572);
#753 = CURVE_STYLE('',#754,POSITIVE_LENGTH_MEASURE(0.1),#572);
#754 = DRAUGHTING_PRE_DEFINED_CURVE_FONT('continuous');
#755 = STYLED_ITEM('color',(#756),#201);
#756 = PRESENTATION_STYLE_ASSIGNMENT((#757,#762));
#757 = SURFACE_STYLE_USAGE(.BOTH.,#758);
#758 = SURFACE_SIDE_STYLE('',(#759));
#759 = SURFACE_STYLE_FILL_AREA(#760);
#760 = FILL_AREA_STYLE('',(#761));
#761 = FILL_AREA_STYLE_COLOUR('',#572);
#762 = CURVE_STYLE('',#763,POSITIVE_LENGTH_MEASURE(0.1),#572);
#763 = DRAUGHTING_PRE_DEFINED_CURVE_FONT('continuous');
#764 = STYLED_ITEM('color',(#765),#209);
#765 = PRESENTATION_STYLE_ASSIGNMENT((#766,#771));
#766 = SURFACE_STYLE_USAGE(.BOTH.,#767);
#767 = SURFACE_SIDE_STYLE('',(#768));
#768 = SURFACE_STYLE_FILL_AREA(#769);
#769 = FILL_AREA_STYLE('',(#770));
#770 = FILL_AREA_STYLE_COLOUR('',#572);
#771 = CURVE_STYLE('',#772,POSITIVE_LENGTH_MEASURE(0.1),#572);
#772 = DRAUGHTING_PRE_DEFINED_CURVE_FONT('continuous');
#773 = STYLED_ITEM('color',(#774),#217);
#774 = PRESENTATION_STYLE_ASSIGNMENT((#775,#780));
#775 = SURFACE_STYLE_USAGE(.BOTH.,#776);
#776 = SURFACE_SIDE_STYLE('',(#777));
#777 = SURFACE_STYLE_FILL_AREA(#778);
#778 = FILL_AREA_STYLE('',(#779));
#779 = FILL_AREA_STYLE_COLOUR('',#572);
#780 = CURVE_STYLE('',#781,POSITIVE_LENGTH_MEASURE(0.1),#572);
#781 = DRAUGHTING_PRE_DEFINED_CURVE_FONT('continuous');
#782 = STYLED_ITEM('color',(#783),#225);
#783 = PRESENTATION_STYLE_ASSIGNMENT((#784,#789));
#784 = SURFACE_STYLE_USAGE(.BOTH.,#785);
#785 = SURFACE_SIDE_STYLE('',(#786));
#786 = SURFACE_STYLE_FILL_AREA(#787);
#787 = FILL_AREA_STYLE('',(#788));
#788 = FILL_AREA_STYLE_COLOUR('',#572);
#789 = CURVE_STYLE('',#790,POSITIVE_LENGTH_MEASURE(0.1),#572);
#790 = DRAUGHTING_PRE_DEFINED_CURVE_FONT('continuous');
#791 = STYLED_ITEM('color',(#792),#233);
#792 = PRESENTATION_STYLE_ASSIGNMENT((#793,#798));
#793 = SURFACE_STYLE_USAGE(.BOTH.,#794);
#794 = SURFACE_SIDE_STYLE('',(#795));
#795 = SURFACE_STYLE_FILL_AREA(#796);
#796 = FILL_AREA_STYLE('',(#797));
#797 = FILL_AREA_STYLE_COLOUR('',#572);
#798 = CURVE_STYLE('',#799,POSITIVE_LENGTH_MEASURE(0.1),#572);
#799 = DRAUGHTING_PRE_DEFINED_CURVE_FONT('continuous');
#800 = STYLED_ITEM('color',(#801),#241);
#801 = PRESENTATION_STYLE_ASSIGNMENT((#802,#807));
#802 = SURFACE_STYLE_USAGE(.BOTH.,#803);
#803 = SURFACE_SIDE_STYLE('',(#804));
#804 = SURFACE_STYLE_FILL_AREA(#805);
#805 = FILL_AREA_STYLE('',(#806));
#806 = FILL_AREA_STYLE_COLOUR('',#572);
#807 = CURVE_STYLE('',#808,POSITIVE_LENGTH_MEASURE(0.1),#572);
#808 = DRAUGHTING_PRE_DEFINED_CURVE_FONT('continuous');
#809 = STYLED_ITEM('color',(#810),#249);
#810 = PRESENTATION_STYLE_ASSIGNMENT((#811,#816));
#811 = SURFACE_STYLE_USAGE(.BOTH.,#812);
#812 = SURFACE_SIDE_STYLE('',(#813));
#813 = SURFACE_STYLE_FILL_AREA(#814);
#814 = FILL_AREA_STYLE('',(#815));
#815 = FILL_AREA_STYLE_COLOUR('',#572);
#816 = CURVE_STYLE('',#817,POSITIVE_LENGTH_MEASURE(0.1),#572);
#817 = DRAUGHTING_PRE_DEFINED_CURVE_FONT('continuous');
#818 = STYLED_ITEM('color',(#819),#257);
#819 = PRESENTATION_STYLE_ASSIGNMENT((#820,#825));
#820 = SURFACE_STYLE_USAGE(.BOTH.,#821);
#821 = SURFACE_SIDE_STYLE('',(#822));
#822 = SURFACE_STYLE_FILL_AREA(#823);
#823 = FILL_AREA_STYLE('',(#824));
#824 = FILL_AREA_STYLE_COLOUR('',#572);
#825 = CURVE_STYLE('',#826,POSITIVE_LENGTH_MEASURE(0.1),#572);
#826 = DRAUGHTING_PRE_DEFINED_CURVE_FONT('continuous');
#827 = STYLED_ITEM('color',(#828),#265);
#828 = PRESENTATION_STYLE_ASSIGNMENT((#829,#834));
#829 = SURFACE_STYLE_USAGE(.BOTH.,#830);
#830 = SURFACE_SIDE_STYLE('',(#831));
#831 = SURFACE_STYLE_FILL_AREA(#832);
#832 = FILL_AREA_STYLE('',(#833));
#833 = FILL_AREA_STYLE_COLOUR('',#572);
#834 = CURVE_STYLE('',#835,POSITIVE_LENGTH_MEASURE(0.1),#572);
#835 = DRAUGHTING_PRE_DEFINED_CURVE_FONT('continuous');
#836 = STYLED_ITEM('color',(#837),#273);
#837 = PRESENTATION_STYLE_ASSIGNMENT((#838,#843));
#838 = SURFACE_STYLE_USAGE(.BOTH.,#839);
#839 = SURFACE_SIDE_STYLE('',(#840));
#840 = SURFACE_STYLE_FILL_AREA(#841);
#841 = FILL_AREA_STYLE('',(#842));
#842 = FILL_AREA_STYLE_COLOUR('',#572);
#843 = CURVE_STYLE('',#844,POSITIVE_LENGTH_MEASURE(0.1),#572);
#844 = DRAUGHTING_PRE_DEFINED_CURVE_FONT('continuous');
#845 = STYLED_ITEM('color',(#846),#281);
#846 = PRESENTATION_STYLE_ASSIGNMENT((#847,#852));
#847 = SURFACE_STYLE_USAGE(.BOTH.,#848);
#848 = SURFACE_SIDE_STYLE('',(#849));
#849 = SURFACE_STYLE_FILL_AREA(#850);
#850 = FILL_AREA_STYLE('',(#851));
#851 = FILL_AREA_STYLE_COLOUR('',#572);
#852 = CURVE_STYLE('',#853,POSITIVE_LENGTH_MEASURE(0.1),#572);
#853 = DRAUGHTING_PRE_DEFINED_CURVE_FONT('continuous');
#854 = STYLED_ITEM('color',(#855),#289);
#855 = PRESENTATION_STYLE_ASSIGNMENT((#856,#861));
#856 = SURFACE_STYLE_USAGE(.BOTH.,#857);
#857 = SURFACE_SIDE_STYLE('',(#858));
#858 = SURFACE_STYLE_FILL_AREA(#859);
#859 = FILL_AREA_STYLE('',(#860));
#860 = FILL_AREA_STYLE_COLOUR('',#572);
#861 = CURVE_STYLE('',#862,POSITIVE_LENGTH_MEASURE(0.1),#572);
#862 = DRAUGHTING_PRE_DEFINED_CURVE_FONT('continuous');
#863 = STYLED_ITEM('color',(#864),#297);
#864 = PRESENTATION_STYLE_ASSIGNMENT((#865,#870));
#865 = SURFACE_STYLE_USAGE(.BOTH.,#866);
#866 = SURFACE_SIDE_STYLE('',(#867));
#867 = SURFACE_STYLE_FILL_AREA(#868);
#868 = FILL_AREA_STYLE('',(#869));
#869 = FILL_AREA_STYLE_COLOUR('',#572);
#870 = CURVE_STYLE('',#871,POSITIVE_LENGTH_MEASURE(0.1),#572);
#871 = DRAUGHTING_PRE_DEFINED_CURVE_FONT('continuous');
#872 = STYLED_ITEM('color',(#873),#305);
#873 = PRESENTATION_STYLE_ASSIGNMENT((#874,#879));
#874 = SURFACE_STYLE_USAGE(.BOTH.,#875);
#875 = SURFACE_SIDE_STYLE('',(#876));
#876 = SURFACE_STYLE_FILL_AREA(#877);
#877 = FILL_AREA_STYLE('',(#878));
#878 = FILL_AREA_STYLE_COLOUR('',#572);
#879 = CURVE_STYLE('',#880,POSITIVE_LENGTH_MEASURE(0.1),#572);
#880 = DRAUGHTING_PRE_DEFINED_CURVE_FONT('continuous');
#881 = STYLED_ITEM('color',(#882),#313);
#882 = PRESENTATION_STYLE_ASSIGNMENT((#883,#888));
#883 = SURFACE_STYLE_USAGE(.BOTH.,#884);
#884 = SURFACE_SIDE_STYLE('',(#885));
#885 = SURFACE_STYLE_FILL_AREA(#886);
#886 = FILL_AREA_STYLE('',(#887));
#887 = FILL_AREA_STYLE_COLOUR('',#572);
#888 = CURVE_STYLE('',#889,POSITIVE_LENGTH_MEASURE(0.1),#572);
#889 = DRAUGHTING_PRE_DEFINED_CURVE_FONT('continuous');
#890 = STYLED_ITEM('color',(#891),#321);
#891 = PRESENTATION_STYLE_ASSIGNMENT((#892,#897));
#892 = SURFACE_STYLE_USAGE(.BOTH.,#893);
#893 = SURFACE_SIDE_STYLE('',(#894));
#894 = SURFACE_STYLE_FILL_AREA(#895);
#895 = FILL_AREA_STYLE('',(#896));
#896 = FILL_AREA_STYLE_COLOUR('',#572);
#897 = CURVE_STYLE('',#898,POSITIVE_LENGTH_MEASURE(0.1),#572);
#898 = DRAUGHTING_PRE_DEFINED_CURVE_FONT('continuous');
#899 = STYLED_ITEM('color',(#900),#329);
#900 = PRESENTATION_STYLE_ASSIGNMENT((#901,#906));
#901 = SURFACE_STYLE_USAGE(.BOTH.,#902);
#902 = SURFACE_SIDE_STYLE('',(#903));
#903 = SURFACE_STYLE_FILL_AREA(#904);
#904 = FILL_AREA_STYLE('',(#905));
#905 = FILL_AREA_STYLE_COLOUR('',#572);
#906 = CURVE_STYLE('',#907,POSITIVE_LENGTH_MEASURE(0.1),#572);
#907 = DRAUGHTING_PRE_DEFINED_CURVE_FONT('continuous');
#908 = STYLED_ITEM('color',(#909),#337);
#909 = PRESENTATION_STYLE_ASSIGNMENT((#910,#915));
#910 = SURFACE_STYLE_USAGE(.BOTH.,#911);
#911 = SURFACE_SIDE_STYLE('',(#912));
#912 = SURFACE_STYLE_FILL_AREA(#913);
#913 = FILL_AREA_STYLE('',(#914));
#914 = FILL_AREA_STYLE_COLOUR('',#572);
#915 = CURVE_STYLE('',#916,POSITIVE_LENGTH_MEASURE(0.1),#572);
#916 = DRAUGHTING_PRE_DEFINED_CURVE_FONT('continuous');
#917 = STYLED_ITEM('color',(#918),#345);
#918 = PRESENTATION_STYLE_ASSIGNMENT((#919,#924));
#919 = SURFACE_STYLE_USAGE(.BOTH.,#920);
#920 = SURFACE_SIDE_STYLE('',(#921));
#921 = SURFACE_STYLE_FILL_AREA(#922);
#922 = FILL_AREA_STYLE('',(#923));
#923 = FILL_AREA_STYLE_COLOUR('',#572);
#924 = CURVE_STYLE('',#925,POSITIVE_LENGTH_MEASURE(0.1),#572);
#925 = DRAUGHTING_PRE_DEFINED_CURVE_FONT('continuous');
#926 = STYLED_ITEM('color',(#927),#353);
#927 = PRESENTATION_STYLE_ASSIGNMENT((#928,#933));
#928 = SURFACE_STYLE_USAGE(.BOTH.,#929);
#929 = SURFACE_SIDE_STYLE('',(#930));
#930 = SURFACE_STYLE_FILL_AREA(#931);
#931 = FILL_AREA_STYLE('',(#932));
#932 = FILL_AREA_STYLE_COLOUR('',#572);
#933 = CURVE_STYLE('',#934,POSITIVE_LENGTH_MEASURE(0.1),#572);
#934 = DRAUGHTING_PRE_DEFINED_CURVE_FONT('continuous');
#935 = STYLED_ITEM('color',(#936),#361);
#936 = PRESENTATION_STYLE_ASSIGNMENT((#937,#942));
#937 = SURFACE_STYLE_USAGE(.BOTH.,#938);
#938 = SURFACE_SIDE_STYLE('',(#939));
#939 = SURFACE_STYLE_FILL_AREA(#940);
#940 = FILL_AREA_STYLE('',(#941));
#941 = FILL_AREA_STYLE_COLOUR('',#572);
#942 = CURVE_STYLE('',#943,POSITIVE_LENGTH_MEASURE(0.1),#572);
#943 = DRAUGHTING_PRE_DEFINED_CURVE_FONT('continuous');
#944 = STYLED_ITEM('color',(#945),#369);
#945 = PRESENTATION_STYLE_ASSIGNMENT((#946,#951));
#946 = SURFACE_STYLE_USAGE(.BOTH.,#947);
#947 = SURFACE_SIDE_STYLE('',(#948));
#948 = SURFACE_STYLE_FILL_AREA(#949);
#949 = FILL_AREA_STYLE('',(#950));
#950 = FILL_AREA_STYLE_COLOUR('',#572);
#951 = CURVE_STYLE('',#952,POSITIVE_LENGTH_MEASURE(0.1),#572);
#952 = DRAUGHTING_PRE_DEFINED_CURVE_FONT('continuous');
#953 = STYLED_ITEM('color',(#954),#377);
#954 = PRESENTATION_STYLE_ASSIGNMENT((#955,#960));
#955 = SURFACE_STYLE_USAGE(.BOTH.,#956);
#956 = SURFACE_SIDE_STYLE('',(#957));
#957 = SURFACE_STYLE_FILL_AREA(#958);
#958 = FILL_AREA_STYLE('',(#959));
#959 = FILL_AREA_STYLE_COLOUR('',#572);
#960 = CURVE_STYLE('',#961,POSITIVE_LENGTH_MEASURE(0.1),#572);
#961 = DRAUGHTING_PRE_DEFINED_CURVE_FONT('continuous');
#962 = STYLED_ITEM('color',(#963),#385);
#963 = PRESENTATION_STYLE_ASSIGNMENT((#964,#969));
#964 = SURFACE_STYLE_USAGE(.BOTH.,#965);
#965 = SURFACE_SIDE_STYLE('',(#966));
#966 = SURFACE_STYLE_FILL_AREA(#967);
#967 = FILL_AREA_STYLE('',(#968));
#968 = FILL_AREA_STYLE_COLOUR('',#572);
#969 = CURVE_STYLE('',#970,POSITIVE_LENGTH_MEASURE(0.1),#572);
#970 = DRAUGHTING_PRE_DEFINED_CURVE_FONT('continuous');
#971 = STYLED_ITEM('color',(#972),#393);
#972 = PRESENTATION_STYLE_ASSIGNMENT((#973,#978));
#973 = SURFACE_STYLE_USAGE(.BOTH.,#974);
#974 = SURFACE_SIDE_STYLE('',(#975));
#975 = SURFACE_STYLE_FILL_AREA(#976);
#976 = FILL_AREA_STYLE('',(#977));
#977 = FILL_AREA_STYLE_COLOUR('',#572);
#978 = CURVE_STYLE('',#979,POSITIVE_LENGTH_MEASURE(0.1),#572);
#979 = DRAUGHTING_PRE_DEFINED_CURVE_FONT('continuous');
#980 = STYLED_ITEM('color',(#981),#401);
#981 = PRESENTATION_STYLE_ASSIGNMENT((#982,#987));
#982 = SURFACE_STYLE_USAGE(.BOTH.,#983);
#983 = SURFACE_SIDE_STYLE('',(#984));
#984 = SURFACE_STYLE_FILL_AREA(#985);
#985 = FILL_AREA_STYLE('',(#986));
#986 = FILL_AREA_STYLE_COLOUR('',#572);
#987 = CURVE_STYLE('',#988,POSITIVE_LENGTH_MEASURE(0.1),#572);
#988 = DRAUGHTING_PRE_DEFINED_CURVE_FONT('continuous');
#989 = STYLED_ITEM('color',(#990),#409);
#990 = PRESENTATION_STYLE_ASSIGNMENT((#991,#996));
#991 = SURFACE_STYLE_USAGE(.BOTH.,#992);
#992 = SURFACE_SIDE_STYLE('',(#993));
#993 = SURFACE_STYLE_FILL_AREA(#994);
#994 = FILL_AREA_STYLE('',(#995));
#995 = FILL_AREA_STYLE_COLOUR('',#572);
#996 = CURVE_STYLE('',#997,POSITIVE_LENGTH_MEASURE(0.1),#572);
#997 = DRAUGHTING_PRE_DEFINED_CURVE_FONT('continuous');
#998 = STYLED_ITEM('color',(#999),#417);
#999 = PRESENTATION_STYLE_ASSIGNMENT((#1000,#1005));
#1000 = SURFACE_STYLE_USAGE(.BOTH.,#1001);
#1001 = SURFACE_SIDE_STYLE('',(#1002));
#1002 = SURFACE_STYLE_FILL_AREA(#1003);
#1003 = FILL_AREA_STYLE('',(#1004));
#1004 = FILL_AREA_STYLE_COLOUR('',#572);
#1005 = CURVE_STYLE('',#1006,POSITIVE_LENGTH_MEASURE(0.1),#572);
#1006 = DRAUGHTING_PRE_DEFINED_CURVE_FONT('continuous');
#1007 = STYLED_ITEM('color',(#1008),#425);
#1008 = PRESENTATION_STYLE_ASSIGNMENT((#1009,#1014));
#1009 = SURFACE_STYLE_USAGE(.BOTH.,#1010);
#1010 = SURFACE_SIDE_STYLE('',(#1011));
#1011 = SURFACE_STYLE_FILL_AREA(#1012);
#1012 = FILL_AREA_STYLE('',(#1013));
#1013 = FILL_AREA_STYLE_COLOUR('',#572);
#1014 = CURVE_STYLE('',#1015,POSITIVE_LENGTH_MEASURE(0.1),#572);
#1015 = DRAUGHTING_PRE_DEFINED_CURVE_FONT('continuous');
#1016 = STYLED_ITEM('color',(#1017),#433);
#1017 = PRESENTATION_STYLE_ASSIGNMENT((#1018,#1023));
#1018 = SURFACE_STYLE_USAGE(.BOTH.,#1019);
#1019 = SURFACE_SIDE_STYLE('',(#1020));
#1020 = SURFACE_STYLE_FILL_AREA(#1021);
#1021 = FILL_AREA_STYLE('',(#1022));
#1022 = FILL_AREA_STYLE_COLOUR('',#572);
#1023 = CURVE_STYLE('',#1024,POSITIVE_LENGTH_MEASURE(0.1),#572);
#1024 = DRAUGHTING_PRE_DEFINED_CURVE_FONT('continuous');
#1025 = STYLED_ITEM('color',(#1026),#441);
#1026 = PRESENTATION_STYLE_ASSIGNMENT((#1027,#1032));
#1027 = SURFACE_STYLE_USAGE(.BOTH.,#1028);
#1028 = SURFACE_SIDE_STYLE('',(#1029));
#1029 = SURFACE_STYLE_FILL_AREA(#1030);
#1030 = FILL_AREA_STYLE('',(#1031));
#1031 = FILL_AREA_STYLE_COLOUR('',#572);
#1032 = CURVE_STYLE('',#1033,POSITIVE_LENGTH_MEASURE(0.1),#572);
#1033 = DRAUGHTING_PRE_DEFINED_CURVE_FONT('continuous');
#1034 = STYLED_ITEM('color',(#1035),#449);
#1035 = PRESENTATION_STYLE_ASSIGNMENT((#1036,#1041));
#1036 = SURFACE_STYLE_USAGE(.BOTH.,#1037);
#1037 = SURFACE_SIDE_STYLE('',(#1038));
#1038 = SURFACE_STYLE_FILL_AREA(#1039);
#1039 = FILL_AREA_STYLE('',(#1040));
#1040 = FILL_AREA_STYLE_COLOUR('',#572);
#1041 = CURVE_STYLE('',#1042,POSITIVE_LENGTH_MEASURE(0.1),#572);
#1042 = DRAUGHTING_PRE_DEFINED_CURVE_FONT('continuous');
#1043 = STYLED_ITEM('color',(#1044),#457);
#1044 = PRESENTATION_STYLE_ASSIGNMENT((#1045,#1050));
#1045 = SURFACE_STYLE_USAGE(.BOTH.,#1046);
#1046 = SURFACE_SIDE_STYLE('',(#1047));
#1047 = SURFACE_STYLE_FILL_AREA(#1048);
#1048 = FILL_AREA_STYLE('',(#1049));
#1049 = FILL_AREA_STYLE_COLOUR('',#572);
#1050 = CURVE_STYLE('',#1051,POSITIVE_LENGTH_MEASURE(0.1),#572);
#1051 = DRAUGHTING_PRE_DEFINED_CURVE_FONT('continuous');
#1052 = STYLED_ITEM('color',(#1053),#465);
#1053 = PRESENTATION_STYLE_ASSIGNMENT((#1054,#1059));
#1054 = SURFACE_STYLE_USAGE(.BOTH.,#1055);
#1055 = SURFACE_SIDE_STYLE('',(#1056));
#1056 = SURFACE_STYLE_FILL_AREA(#1057);
#1057 = FILL_AREA_STYLE('',(#1058));
#1058 = FILL_AREA_STYLE_COLOUR('',#572);
#1059 = CURVE_STYLE('',#1060,POSITIVE_LENGTH_MEASURE(0.1),#572);
#1060 = DRAUGHTING_PRE_DEFINED_CURVE_FONT('continuous');
#1061 = STYLED_ITEM('color',(#1062),#473);
#1062 = PRESENTATION_STYLE_ASSIGNMENT((#1063,#1068));
#1063 = SURFACE_STYLE_USAGE(.BOTH.,#1064);
#1064 = SURFACE_SIDE_STYLE('',(#1065));
#1065 = SURFACE_STYLE_FILL_AREA(#1066);
#1066 = FILL_AREA_STYLE('',(#1067));
#1067 = FILL_AREA_STYLE_COLOUR('',#572);
#1068 = CURVE_STYLE('',#1069,POSITIVE_LENGTH_MEASURE(0.1),#572);
#1069 = DRAUGHTING_PRE_DEFINED_CURVE_FONT('continuous');
#1070 = STYLED_ITEM('color',(#1071),#481);
#1071 = PRESENTATION_STYLE_ASSIGNMENT((#1072,#1077));
#1072 = SURFACE_STYLE_USAGE(.BOTH.,#1073);
#1073 = SURFACE_SIDE_STYLE('',(#1074));
#1074 = SURFACE_STYLE_FILL_AREA(#1075);
#1075 = FILL_AREA_STYLE('',(#1076));
#1076 = FILL_AREA_STYLE_COLOUR('',#572);
#1077 = CURVE_STYLE('',#1078,POSITIVE_LENGTH_MEASURE(0.1),#572);
#1078 = DRAUGHTING_PRE_DEFINED_CURVE_FONT('continuous');
#1079 = STYLED_ITEM('color',(#1080),#489);
#1080 = PRESENTATION_STYLE_ASSIGNMENT((#1081,#1086));
#1081 = SURFACE_STYLE_USAGE(.BOTH.,#1082);
#1082 = SURFACE_SIDE_STYLE('',(#1083));
#1083 = SURFACE_STYLE_FILL_AREA(#1084);
#1084 = FILL_AREA_STYLE('',(#1085));
#1085 = FILL_AREA_STYLE_COLOUR('',#572);
#1086 = CURVE_STYLE('',#1087,POSITIVE_LENGTH_MEASURE(0.1),#572);
#1087 = DRAUGHTING_PRE_DEFINED_CURVE_FONT('continuous');
#1088 = STYLED_ITEM('color',(#1089),#497);
#1089 = PRESENTATION_STYLE_ASSIGNMENT((#1090,#1095));
#1090 = SURFACE_STYLE_USAGE(.BOTH.,#1091);
#1091 = SURFACE_SIDE_STYLE('',(#1092));
#1092 = SURFACE_STYLE_FILL_AREA(#1093);
#1093 = FILL_AREA_STYLE('',(#1094));
#1094 = FILL_AREA_STYLE_COLOUR('',#572);
#1095 = CURVE_STYLE('',#1096,POSITIVE_LENGTH_MEASURE(0.1),#572);
#1096 = DRAUGHTING_PRE_DEFINED_CURVE_FONT('continuous');
#1097 = STYLED_ITEM('color',(#1098),#505);
#1098 = PRESENTATION_STYLE_ASSIGNMENT((#1099,#1104));
#1099 = SURFACE_STYLE_USAGE(.BOTH.,#1100);
#1100 = SURFACE_SIDE_STYLE('',(#1101));
#1101 = SURFACE_STYLE_FILL_AREA(#1102);
#1102 = FILL_AREA_STYLE('',(#1103));
#1103 = FILL_AREA_STYLE_COLOUR('',#572);
#1104 = CURVE_STYLE('',#1105,POSITIVE_LENGTH_MEASURE(0.1),#572);
#1105 = DRAUGHTING_PRE_DEFINED_CURVE_FONT('continuous');
#1106 = STYLED_ITEM('color',(#1107),#513);
#1107 = PRESENTATION_STYLE_ASSIGNMENT((#1108,#1113));
#1108 = SURFACE_STYLE_USAGE(.BOTH.,#1109);
#1109 = SURFACE_SIDE_STYLE('',(#1110));
#1110 = SURFACE_STYLE_FILL_AREA(#1111);
#1111 = FILL_AREA_STYLE('',(#1112));
#1112 = FILL_AREA_STYLE_COLOUR('',#572);
#1113 = CURVE_STYLE('',#1114,POSITIVE_LENGTH_MEASURE(0.1),#572);
#1114 = DRAUGHTING_PRE_DEFINED_CURVE_FONT('continuous');
#1115 = STYLED_ITEM('color',(#1116),#521);
#1116 = PRESENTATION_STYLE_ASSIGNMENT((#1117,#1122));
#1117 = SURFACE_STYLE_USAGE(.BOTH.,#1118);
#1118 = SURFACE_SIDE_STYLE('',(#1119));
#1119 = SURFACE_STYLE_FILL_AREA(#1120);
#1120 = FILL_AREA_STYLE('',(#1121));
#1121 = FILL_AREA_STYLE_COLOUR('',#572);
#1122 = CURVE_STYLE('',#1123,POSITIVE_LENGTH_MEASURE(0.1),#572);
#1123 = DRAUGHTING_PRE_DEFINED_CURVE_FONT('continuous');
#1124 = STYLED_ITEM('color',(#1125),#529);
#1125 = PRESENTATION_STYLE_ASSIGNMENT((#1126,#1131));
#1126 = SURFACE_STYLE_USAGE(.BOTH.,#1127);
#1127 = SURFACE_SIDE_STYLE('',(#1128));
#1128 = SURFACE_STYLE_FILL_AREA(#1129);
#1129 = FILL_AREA_STYLE('',(#1130));
#1130 = FILL_AREA_STYLE_COLOUR('',#572);
#1131 = CURVE_STYLE('',#1132,POSITIVE_LENGTH_MEASURE(0.1),#572);
#1132 = DRAUGHTING_PRE_DEFINED_CURVE_FONT('continuous');
#1133 = STYLED_ITEM('color',(#1134),#537);
#1134 = PRESENTATION_STYLE_ASSIGNMENT((#1135,#1140));
#1135 = SURFACE_STYLE_USAGE(.BOTH.,#1136);
#1136 = SURFACE_SIDE_STYLE('',(#1137));
#1137 = SURFACE_STYLE_FILL_AREA(#1138);
#1138 = FILL_AREA_STYLE('',(#1139));
#1139 = FILL_AREA_STYLE_COLOUR('',#572);
#1140 = CURVE_STYLE('',#1141,POSITIVE_LENGTH_MEASURE(0.1),#572);
#1141 = DRAUGHTING_PRE_DEFINED_CURVE_FONT('continuous');
#1142 = STYLED_ITEM('color',(#1143),#545);
#1143 = PRESENTATION_STYLE_ASSIGNMENT((#1144,#1149));
#1144 = SURFACE_STYLE_USAGE(.BOTH.,#1145);
#1145 = SURFACE_SIDE_STYLE('',(#1146));
#1146 = SURFACE_STYLE_FILL_AREA(#1147);
#1147 = FILL_AREA_STYLE('',(#1148));
#1148 = FILL_AREA_STYLE_COLOUR('',#572);
#1149 = CURVE_STYLE('',#1150,POSITIVE_LENGTH_MEASURE(0.1),#572);
#1150 = DRAUGHTING_PRE_DEFINED_CURVE_FONT('continuous');
ENDSEC;
END-ISO-10303-21;
