ISO-10303-21;
HEADER;
FILE_DESCRIPTION(('Open CASCADE Model'),'2;1');
FILE_NAME('Open CASCADE Shape Model','2026-09-07T11:32:56',('Author'),(
    'Open CASCADE'),'Open CASCADE STEP processor 7.9','Open CASCADE 7.9'
  ,'Unknown');
FILE_SCHEMA(('AUTOMOTIVE_DESIGN { 1 0 10303 214 1 1 1 1 }'));
ENDSEC;
DATA;
#1 = APPLICATION_PROTOCOL_DEFINITION('international standard',
  'automotive_design',2000,#2);
#2 = APPLICATION_CONTEXT(
  'core data for automotive mechanical design processes');
#3 = SHAPE_DEFINITION_REPRESENTATION(#4,#10);
#4 = PRODUCT_DEFINITION_SHAPE('','',#5);
#5 = PRODUCT_DEFINITION('design','',#6,#9);
#6 = PRODUCT_DEFINITION_FORMATION('','',#7);
#7 = PRODUCT('M64_candidate_distribution_NOT_RELEASED',
  'M64_candidate_distribution_NOT_RELEASED','',(#8));
#8 = PRODUCT_CONTEXT('',#2,'mechanical');
#9 = PRODUCT_DEFINITION_CONTEXT('part definition',#2,'design');
#10 = SHAPE_REPRESENTATION('',(#11,#15),#19);
#11 = AXIS2_PLACEMENT_3D('',#12,#13,#14);
#12 = CARTESIAN_POINT('',(0.,0.,0.));
#13 = DIRECTION('',(0.,0.,1.));
#14 = DIRECTION('',(1.,0.,-0.));
#15 = AXIS2_PLACEMENT_3D('',#16,#17,#18);
#16 = CARTESIAN_POINT('',(0.,0.,0.));
#17 = DIRECTION('',(0.,0.,1.));
#18 = DIRECTION('',(1.,0.,-0.));
#19 = ( GEOMETRIC_REPRESENTATION_CONTEXT(3) 
GLOBAL_UNCERTAINTY_ASSIGNED_CONTEXT((#23)) GLOBAL_UNIT_ASSIGNED_CONTEXT(
(#20,#21,#22)) REPRESENTATION_CONTEXT('Context #1',
  '3D Context with UNIT and UNCERTAINTY') );
#20 = ( LENGTH_UNIT() NAMED_UNIT(*) SI_UNIT(.MILLI.,.METRE.) );
#21 = ( NAMED_UNIT(*) PLANE_ANGLE_UNIT() SI_UNIT($,.RADIAN.) );
#22 = ( NAMED_UNIT(*) SI_UNIT($,.STERADIAN.) SOLID_ANGLE_UNIT() );
#23 = UNCERTAINTY_MEASURE_WITH_UNIT(LENGTH_MEASURE(1.E-07),#20,
  'distance_accuracy_value','confusion accuracy');
#24 = PRODUCT_RELATED_PRODUCT_CATEGORY('part',$,(#7));
#25 = SHAPE_DEFINITION_REPRESENTATION(#26,#32);
#26 = PRODUCT_DEFINITION_SHAPE('','',#27);
#27 = PRODUCT_DEFINITION('design','',#28,#31);
#28 = PRODUCT_DEFINITION_FORMATION('','',#29);
#29 = PRODUCT('simultaneous_100pct_native_section',
  'simultaneous_100pct_native_section','',(#30));
#30 = PRODUCT_CONTEXT('',#2,'mechanical');
#31 = PRODUCT_DEFINITION_CONTEXT('part definition',#2,'design');
#32 = SHAPE_REPRESENTATION('',(#11,#33,#41,#49,#57,#65,#73,#81,#89,#97,
    #105,#113,#121,#129,#137,#145,#153,#161,#169,#177,#185,#193,#201,
    #209,#217,#225,#233,#241,#249,#257,#265,#273,#281,#289,#297,#305,
    #313,#321,#329,#337,#345,#353,#361,#369,#377,#385,#393,#401,#409,
    #417,#425,#433,#441,#449,#457,#465,#473,#481,#489,#497,#505,#513,
    #521,#529,#537),#545);
#33 = GEOMETRIC_CURVE_SET('',(#34));
#34 = TRIMMED_CURVE('',#35,(#39,PARAMETER_VALUE(-10.34488632977)),(#40,
    PARAMETER_VALUE(29.655113670225)),.T.,.PARAMETER.);
#35 = LINE('',#36,#37);
#36 = CARTESIAN_POINT('',(-8.129598919816,22.5,-11.52975278403));
#37 = VECTOR('',#38,1.);
#38 = DIRECTION('',(-0.990268068742,0.,-0.13917310096));
#39 = CARTESIAN_POINT('',(2.114611687312,22.5,-10.09002287443));
#40 = CARTESIAN_POINT('',(-37.49611106234,22.5,-15.65694691283));
#41 = GEOMETRIC_CURVE_SET('',(#42));
#42 = TRIMMED_CURVE('',#43,(#47,PARAMETER_VALUE(0.)),(#48,
    PARAMETER_VALUE(1.499999999991)),.T.,.PARAMETER.);
#43 = LINE('',#44,#45);
#44 = CARTESIAN_POINT('',(2.114611687312,22.5,-10.09002287443));
#45 = VECTOR('',#46,1.);
#46 = DIRECTION('',(-0.13917310096,0.,0.990268068742));
#47 = CARTESIAN_POINT('',(2.114611687312,22.5,-10.09002287443));
#48 = CARTESIAN_POINT('',(1.905852035872,22.5,-8.604620771327));
#49 = GEOMETRIC_CURVE_SET('',(#50));
#50 = TRIMMED_CURVE('',#51,(#55,PARAMETER_VALUE(0.)),(#56,
    PARAMETER_VALUE(1.500000000008)),.T.,.PARAMETER.);
#51 = LINE('',#52,#53);
#52 = CARTESIAN_POINT('',(-37.49611106234,22.5,-15.65694691283));
#53 = VECTOR('',#54,1.);
#54 = DIRECTION('',(-0.13917310096,0.,0.990268068742));
#55 = CARTESIAN_POINT('',(-37.49611106234,22.5,-15.65694691283));
#56 = CARTESIAN_POINT('',(-37.70487071378,22.5,-14.17154480971));
#57 = GEOMETRIC_CURVE_SET('',(#58));
#58 = TRIMMED_CURVE('',#59,(#63,PARAMETER_VALUE(26.162950903915)),(#64,
    PARAMETER_VALUE(28.284271247475)),.T.,.PARAMETER.);
#59 = LINE('',#60,#61);
#60 = CARTESIAN_POINT('',(-20.68297135815,22.5,8.41727858433));
#61 = VECTOR('',#62,1.);
#62 = DIRECTION('',(-0.601815023152,0.,-0.798635510047));
#63 = CARTESIAN_POINT('',(-36.4282282621,22.5,-12.47738305517));
#64 = CARTESIAN_POINT('',(-37.70487071378,22.5,-14.17154480971));
#65 = GEOMETRIC_CURVE_SET('',(#66));
#66 = TRIMMED_CURVE('',#67,(#71,PARAMETER_VALUE(6.230762393149)),(#72,
    PARAMETER_VALUE(19.211517378907)),.T.,.PARAMETER.);
#67 = LINE('',#68,#69);
#68 = CARTESIAN_POINT('',(-18.82918565336,22.5,-4.773092091331));
#69 = VECTOR('',#70,1.);
#70 = DIRECTION('',(-0.916067287224,0.,-0.401024594356));
#71 = CARTESIAN_POINT('',(-24.53698325621,22.5,-7.27178105258));
#72 = CARTESIAN_POINT('',(-36.4282282621,22.5,-12.47738305517));
#73 = GEOMETRIC_CURVE_SET('',(#74));
#74 = TRIMMED_CURVE('',#75,(#79,PARAMETER_VALUE(5.000000000004)),(#80,
    PARAMETER_VALUE(10.000000000004)),.T.,.PARAMETER.);
#75 = LINE('',#76,#77);
#76 = CARTESIAN_POINT('',(-19.70875965144,22.5,1.485402103117));
#77 = VECTOR('',#78,1.);
#78 = DIRECTION('',(-0.482822360477,0.,-0.875718315569));
#79 = CARTESIAN_POINT('',(-22.12287145382,22.5,-2.893189474734));
#80 = CARTESIAN_POINT('',(-24.53698325621,22.5,-7.27178105258));
#81 = GEOMETRIC_CURVE_SET('',(#82));
#82 = TRIMMED_CURVE('',#83,(#87,PARAMETER_VALUE(0.)),(#88,
    PARAMETER_VALUE(73.)),.T.,.PARAMETER.);
#83 = LINE('',#84,#85);
#84 = CARTESIAN_POINT('',(-22.12287145382,22.5,-2.893189474734));
#85 = VECTOR('',#86,1.);
#86 = DIRECTION('',(-0.13917310096,0.,0.990268068742));
#87 = CARTESIAN_POINT('',(-22.12287145382,22.5,-2.893189474734));
#88 = CARTESIAN_POINT('',(-32.2825078239,22.5,69.396379543401));
#89 = GEOMETRIC_CURVE_SET('',(#90));
#90 = TRIMMED_CURVE('',#91,(#95,PARAMETER_VALUE(6.655113670233)),(#96,
    PARAMETER_VALUE(12.655113670233)),.T.,.PARAMETER.);
#91 = LINE('',#92,#93);
#92 = CARTESIAN_POINT('',(-19.75055284997,22.5,71.157630955888));
#93 = VECTOR('',#94,1.);
#94 = DIRECTION('',(-0.990268068742,0.,-0.13917310096));
#95 = CARTESIAN_POINT('',(-26.34089941146,22.5,70.231418149161));
#96 = CARTESIAN_POINT('',(-32.2825078239,22.5,69.396379543401));
#97 = GEOMETRIC_CURVE_SET('',(#98));
#98 = TRIMMED_CURVE('',#99,(#103,PARAMETER_VALUE(0.)),(#104,
    PARAMETER_VALUE(73.000000000001)),.T.,.PARAMETER.);
#99 = LINE('',#100,#101);
#100 = CARTESIAN_POINT('',(-16.18126304137,22.5,-2.058150868974));
#101 = VECTOR('',#102,1.);
#102 = DIRECTION('',(-0.13917310096,0.,0.990268068742));
#103 = CARTESIAN_POINT('',(-16.18126304137,22.5,-2.058150868974));
#104 = CARTESIAN_POINT('',(-26.34089941146,22.5,70.231418149161));
#105 = GEOMETRIC_CURVE_SET('',(#106));
#106 = TRIMMED_CURVE('',#107,(#111,PARAMETER_VALUE(-11.84488632977)),(
    #112,PARAMETER_VALUE(-9.84488632977)),.T.,.PARAMETER.);
#107 = LINE('',#108,#109);
#108 = CARTESIAN_POINT('',(-10.00843578278,22.5,1.838866143978));
#109 = VECTOR('',#110,1.);
#110 = DIRECTION('',(-0.990268068742,0.,-0.13917310096));
#111 = CARTESIAN_POINT('',(1.721176927464,22.5,3.487355705012));
#112 = CARTESIAN_POINT('',(-0.259359210019,22.5,3.209009503092));
#113 = GEOMETRIC_CURVE_SET('',(#114));
#114 = TRIMMED_CURVE('',#115,(#119,PARAMETER_VALUE(0.)),(#120,
    PARAMETER_VALUE(5.5)),.T.,.PARAMETER.);
#115 = LINE('',#116,#117);
#116 = CARTESIAN_POINT('',(1.721176927464,22.5,3.487355705012));
#117 = VECTOR('',#118,1.);
#118 = DIRECTION('',(-0.13917310096,0.,0.990268068742));
#119 = CARTESIAN_POINT('',(1.721176927464,22.5,3.487355705012));
#120 = CARTESIAN_POINT('',(0.955724872183,22.5,8.933830083091));
#121 = GEOMETRIC_CURVE_SET('',(#122));
#122 = TRIMMED_CURVE('',#123,(#127,PARAMETER_VALUE(0.)),(#128,
    PARAMETER_VALUE(1.414213562374)),.T.,.PARAMETER.);
#123 = LINE('',#124,#125);
#124 = CARTESIAN_POINT('',(-1.388800379721,22.5,4.060104470874));
#125 = VECTOR('',#126,1.);
#126 = DIRECTION('',(0.798635510047,0.,-0.601815023152));
#127 = CARTESIAN_POINT('',(-1.388800379721,22.5,4.060104470874));
#128 = CARTESIAN_POINT('',(-0.259359210019,22.5,3.209009503092));
#129 = GEOMETRIC_CURVE_SET('',(#130));
#130 = TRIMMED_CURVE('',#131,(#135,PARAMETER_VALUE(29.15511367023)),(
    #136,PARAMETER_VALUE(31.15511367023)),.T.,.PARAMETER.);
#131 = LINE('',#132,#133);
#132 = CARTESIAN_POINT('',(-10.00843578278,22.5,1.838866143978));
#133 = VECTOR('',#134,1.);
#134 = DIRECTION('',(-0.990268068742,0.,-0.13917310096));
#135 = CARTESIAN_POINT('',(-38.87981389094,22.5,-2.218741434348));
#136 = CARTESIAN_POINT('',(-40.86035002842,22.5,-2.497087636268));
#137 = GEOMETRIC_CURVE_SET('',(#138));
#138 = TRIMMED_CURVE('',#139,(#143,PARAMETER_VALUE(26.162950903914)),(
    #144,PARAMETER_VALUE(27.577164466288)),.T.,.PARAMETER.);
#139 = LINE('',#140,#141);
#140 = CARTESIAN_POINT('',(-22.2834620192,22.5,19.805361374848));
#141 = VECTOR('',#142,1.);
#142 = DIRECTION('',(-0.601815023152,0.,-0.798635510047));
#143 = CARTESIAN_POINT('',(-38.02871892315,22.5,-1.089300264647));
#144 = CARTESIAN_POINT('',(-38.87981389094,22.5,-2.218741434348));
#145 = GEOMETRIC_CURVE_SET('',(#146));
#146 = TRIMMED_CURVE('',#147,(#151,PARAMETER_VALUE(0.)),(#152,
    PARAMETER_VALUE(5.499999999999)),.T.,.PARAMETER.);
#147 = LINE('',#148,#149);
#148 = CARTESIAN_POINT('',(-40.86035002842,22.5,-2.497087636268));
#149 = VECTOR('',#150,1.);
#150 = DIRECTION('',(-0.13917310096,0.,0.990268068742));
#151 = CARTESIAN_POINT('',(-40.86035002842,22.5,-2.497087636268));
#152 = CARTESIAN_POINT('',(-41.6258020837,22.5,2.94938674181));
#153 = GEOMETRIC_CURVE_SET('',(#154));
#154 = TRIMMED_CURVE('',#155,(#159,PARAMETER_VALUE(27.455113670231)),(
    #160,PARAMETER_VALUE(31.155113670231)),.T.,.PARAMETER.);
#155 = LINE('',#156,#157);
#156 = CARTESIAN_POINT('',(-10.77388783806,22.5,7.285340522056));
#157 = VECTOR('',#158,1.);
#158 = DIRECTION('',(-0.990268068742,0.,-0.13917310096));
#159 = CARTESIAN_POINT('',(-37.96181022936,22.5,3.464327215362));
#160 = CARTESIAN_POINT('',(-41.6258020837,22.5,2.94938674181));
#161 = GEOMETRIC_CURVE_SET('',(#162));
#162 = TRIMMED_CURVE('',#163,(#167,PARAMETER_VALUE(-11.84488632976)),(
    #168,PARAMETER_VALUE(-8.144886329769)),.T.,.PARAMETER.);
#163 = LINE('',#164,#165);
#164 = CARTESIAN_POINT('',(-10.77388783806,22.5,7.285340522056));
#165 = VECTOR('',#166,1.);
#166 = DIRECTION('',(-0.990268068742,0.,-0.13917310096));
#167 = CARTESIAN_POINT('',(0.955724872183,22.5,8.933830083091));
#168 = CARTESIAN_POINT('',(-2.70826698216,22.5,8.418889609539));
#169 = GEOMETRIC_CURVE_SET('',(#170));
#170 = TRIMMED_CURVE('',#171,(#175,PARAMETER_VALUE(0.)),(#176,
    PARAMETER_VALUE(3.8)),.T.,.PARAMETER.);
#171 = LINE('',#172,#173);
#172 = CARTESIAN_POINT('',(-2.70826698216,22.5,8.418889609539));
#173 = VECTOR('',#174,1.);
#174 = DIRECTION('',(0.13917310096,0.,-0.990268068742));
#175 = CARTESIAN_POINT('',(-2.70826698216,22.5,8.418889609539));
#176 = CARTESIAN_POINT('',(-2.179409198512,22.5,4.655870948321));
#177 = GEOMETRIC_CURVE_SET('',(#178));
#178 = TRIMMED_CURVE('',#179,(#183,PARAMETER_VALUE(0.)),(#184,
    PARAMETER_VALUE(3.8)),.T.,.PARAMETER.);
#179 = LINE('',#180,#181);
#180 = CARTESIAN_POINT('',(-37.96181022936,22.5,3.464327215362));
#181 = VECTOR('',#182,1.);
#182 = DIRECTION('',(0.13917310096,0.,-0.990268068742));
#183 = CARTESIAN_POINT('',(-37.96181022936,22.5,3.464327215362));
#184 = CARTESIAN_POINT('',(-37.43295244571,22.5,-0.298691445856));
#185 = GEOMETRIC_CURVE_SET('',(#186));
#186 = TRIMMED_CURVE('',#187,(#191,PARAMETER_VALUE(25.173001410252)),(
    #192,PARAMETER_VALUE(26.162950903913)),.T.,.PARAMETER.);
#187 = LINE('',#188,#189);
#188 = CARTESIAN_POINT('',(-22.28346201919,22.5,19.805361374847));
#189 = VECTOR('',#190,1.);
#190 = DIRECTION('',(-0.601815023152,0.,-0.798635510047));
#191 = CARTESIAN_POINT('',(-37.43295244571,22.5,-0.298691445856));
#192 = CARTESIAN_POINT('',(-38.02871892315,22.5,-1.089300264647));
#193 = GEOMETRIC_CURVE_SET('',(#194));
#194 = TRIMMED_CURVE('',#195,(#199,PARAMETER_VALUE(4.155113670231)),(
    #200,PARAMETER_VALUE(6.640113670227)),.T.,.PARAMETER.);
#195 = LINE('',#196,#197);
#196 = CARTESIAN_POINT('',(-12.7223112515,22.5,21.149093484438));
#197 = VECTOR('',#198,1.);
#198 = DIRECTION('',(-0.990268068742,0.,-0.13917310096));
#199 = CARTESIAN_POINT('',(-16.83698764112,22.5,20.570813430112));
#200 = CARTESIAN_POINT('',(-19.29780379194,22.5,20.224968274226));
#201 = GEOMETRIC_CURVE_SET('',(#202));
#202 = TRIMMED_CURVE('',#203,(#207,PARAMETER_VALUE(0.)),(#208,
    PARAMETER_VALUE(35.)),.T.,.PARAMETER.);
#203 = LINE('',#204,#205);
#204 = CARTESIAN_POINT('',(-16.83698764112,22.5,20.570813430112));
#205 = VECTOR('',#206,1.);
#206 = DIRECTION('',(-0.13917310096,0.,0.990268068742));
#207 = CARTESIAN_POINT('',(-16.83698764112,22.5,20.570813430112));
#208 = CARTESIAN_POINT('',(-21.70804617472,22.5,55.230195836067));
#209 = GEOMETRIC_CURVE_SET('',(#210));
#210 = TRIMMED_CURVE('',#211,(#215,PARAMETER_VALUE(0.)),(#216,
    PARAMETER_VALUE(35.)),.T.,.PARAMETER.);
#211 = LINE('',#212,#213);
#212 = CARTESIAN_POINT('',(-24.16886232554,22.5,54.884350680181));
#213 = VECTOR('',#214,1.);
#214 = DIRECTION('',(0.13917310096,0.,-0.990268068742));
#215 = CARTESIAN_POINT('',(-24.16886232554,22.5,54.884350680181));
#216 = CARTESIAN_POINT('',(-19.29780379194,22.5,20.224968274226));
#217 = GEOMETRIC_CURVE_SET('',(#218));
#218 = TRIMMED_CURVE('',#219,(#223,PARAMETER_VALUE(12.670113670231)),(
    #224,PARAMETER_VALUE(15.155113670231)),.T.,.PARAMETER.);
#219 = LINE('',#220,#221);
#220 = CARTESIAN_POINT('',(-12.7223112515,22.5,21.149093484438));
#221 = VECTOR('',#222,1.);
#222 = DIRECTION('',(-0.990268068742,0.,-0.13917310096));
#223 = CARTESIAN_POINT('',(-25.26912024645,22.5,19.385754475437));
#224 = CARTESIAN_POINT('',(-27.72993639727,22.5,19.039909319551));
#225 = GEOMETRIC_CURVE_SET('',(#226));
#226 = TRIMMED_CURVE('',#227,(#231,PARAMETER_VALUE(0.)),(#232,
    PARAMETER_VALUE(35.)),.T.,.PARAMETER.);
#227 = LINE('',#228,#229);
#228 = CARTESIAN_POINT('',(-30.14017878005,22.5,54.045136881392));
#229 = VECTOR('',#230,1.);
#230 = DIRECTION('',(0.13917310096,0.,-0.990268068742));
#231 = CARTESIAN_POINT('',(-30.14017878005,22.5,54.045136881392));
#232 = CARTESIAN_POINT('',(-25.26912024645,22.5,19.385754475437));
#233 = GEOMETRIC_CURVE_SET('',(#234));
#234 = TRIMMED_CURVE('',#235,(#239,PARAMETER_VALUE(0.)),(#240,
    PARAMETER_VALUE(35.)),.T.,.PARAMETER.);
#235 = LINE('',#236,#237);
#236 = CARTESIAN_POINT('',(-27.72993639727,22.5,19.039909319551));
#237 = VECTOR('',#238,1.);
#238 = DIRECTION('',(-0.13917310096,0.,0.990268068742));
#239 = CARTESIAN_POINT('',(-27.72993639727,22.5,19.039909319551));
#240 = CARTESIAN_POINT('',(-32.60099493087,22.5,53.699291725506));
#241 = GEOMETRIC_CURVE_SET('',(#242));
#242 = TRIMMED_CURVE('',#243,(#247,PARAMETER_VALUE(12.670113670232)),(
    #248,PARAMETER_VALUE(15.155113670232)),.T.,.PARAMETER.);
#243 = LINE('',#244,#245);
#244 = CARTESIAN_POINT('',(-17.59336978509,22.5,55.808475890393));
#245 = VECTOR('',#246,1.);
#246 = DIRECTION('',(-0.990268068742,0.,-0.13917310096));
#247 = CARTESIAN_POINT('',(-30.14017878005,22.5,54.045136881392));
#248 = CARTESIAN_POINT('',(-32.60099493087,22.5,53.699291725506));
#249 = GEOMETRIC_CURVE_SET('',(#250));
#250 = TRIMMED_CURVE('',#251,(#255,PARAMETER_VALUE(4.155113670232)),(
    #256,PARAMETER_VALUE(6.640113670228)),.T.,.PARAMETER.);
#251 = LINE('',#252,#253);
#252 = CARTESIAN_POINT('',(-17.59336978509,22.5,55.808475890393));
#253 = VECTOR('',#254,1.);
#254 = DIRECTION('',(-0.990268068742,0.,-0.13917310096));
#255 = CARTESIAN_POINT('',(-21.70804617472,22.5,55.230195836067));
#256 = CARTESIAN_POINT('',(-24.16886232554,22.5,54.884350680181));
#257 = GEOMETRIC_CURVE_SET('',(#258));
#258 = TRIMMED_CURVE('',#259,(#263,PARAMETER_VALUE(-27.39294875615)),(
    #264,PARAMETER_VALUE(5.607051243843)),.T.,.PARAMETER.);
#259 = LINE('',#260,#261);
#260 = CARTESIAN_POINT('',(9.668239251683,22.5,-9.475970106038));
#261 = VECTOR('',#262,1.);
#262 = DIRECTION('',(-0.990268068742,0.,0.13917310096));
#263 = CARTESIAN_POINT('',(36.794601713579,22.5,-13.28833172887));
#264 = CARTESIAN_POINT('',(4.115755445107,22.5,-8.695619397191));
#265 = GEOMETRIC_CURVE_SET('',(#266));
#266 = TRIMMED_CURVE('',#267,(#271,PARAMETER_VALUE(0.)),(#272,
    PARAMETER_VALUE(1.499999999998)),.T.,.PARAMETER.);
#267 = LINE('',#268,#269);
#268 = CARTESIAN_POINT('',(36.794601713579,22.5,-13.28833172887));
#269 = VECTOR('',#270,1.);
#270 = DIRECTION('',(0.13917310096,0.,0.990268068742));
#271 = CARTESIAN_POINT('',(36.794601713579,22.5,-13.28833172887));
#272 = CARTESIAN_POINT('',(37.003361365019,22.5,-11.80292962576));
#273 = GEOMETRIC_CURVE_SET('',(#274));
#274 = TRIMMED_CURVE('',#275,(#279,PARAMETER_VALUE(0.)),(#280,
    PARAMETER_VALUE(1.499999999999)),.T.,.PARAMETER.);
#275 = LINE('',#276,#277);
#276 = CARTESIAN_POINT('',(4.115755445107,22.5,-8.695619397191));
#277 = VECTOR('',#278,1.);
#278 = DIRECTION('',(0.13917310096,0.,0.990268068742));
#279 = CARTESIAN_POINT('',(4.115755445107,22.5,-8.695619397191));
#280 = CARTESIAN_POINT('',(4.324515096547,22.5,-7.21021729408));
#281 = GEOMETRIC_CURVE_SET('',(#282));
#282 = TRIMMED_CURVE('',#283,(#287,PARAMETER_VALUE(21.213203435601)),(
    #288,PARAMETER_VALUE(23.334523779167)),.T.,.PARAMETER.);
#283 = LINE('',#284,#285);
#284 = CARTESIAN_POINT('',(22.960294396624,22.5,6.832849674332));
#285 = VECTOR('',#286,1.);
#286 = DIRECTION('',(-0.798635510047,0.,-0.601815023153));
#287 = CARTESIAN_POINT('',(6.018676851099,22.5,-5.933574842408));
#288 = CARTESIAN_POINT('',(4.324515096547,22.5,-7.21021729408));
#289 = GEOMETRIC_CURVE_SET('',(#290));
#290 = TRIMMED_CURVE('',#291,(#295,PARAMETER_VALUE(6.437735971945)),(
    #296,PARAMETER_VALUE(16.094339929858)),.T.,.PARAMETER.);
#291 = LINE('',#292,#293);
#292 = CARTESIAN_POINT('',(21.684540971157,22.5,-2.244607622477));
#293 = VECTOR('',#294,1.);
#294 = DIRECTION('',(-0.973377236242,0.,-0.229208978809));
#295 = CARTESIAN_POINT('',(15.418195323134,22.5,-3.720194510451));
#296 = CARTESIAN_POINT('',(6.018676851099,22.5,-5.933574842408));
#297 = GEOMETRIC_CURVE_SET('',(#298));
#298 = TRIMMED_CURVE('',#299,(#303,PARAMETER_VALUE(5.000000000004)),(
    #304,PARAMETER_VALUE(10.000000000004)),.T.,.PARAMETER.);
#299 = LINE('',#300,#301);
#300 = CARTESIAN_POINT('',(22.473188543264,22.5,3.366911433726));
#301 = VECTOR('',#302,1.);
#302 = DIRECTION('',(-0.705499322013,0.,-0.708710594418));
#303 = CARTESIAN_POINT('',(18.945691933199,22.5,-0.176641538365));
#304 = CARTESIAN_POINT('',(15.418195323134,22.5,-3.720194510451));
#305 = GEOMETRIC_CURVE_SET('',(#306));
#306 = TRIMMED_CURVE('',#307,(#311,PARAMETER_VALUE(0.)),(#312,
    PARAMETER_VALUE(73.)),.T.,.PARAMETER.);
#307 = LINE('',#308,#309);
#308 = CARTESIAN_POINT('',(18.945691933199,22.5,-0.176641538365));
#309 = VECTOR('',#310,1.);
#310 = DIRECTION('',(0.13917310096,0.,0.990268068742));
#311 = CARTESIAN_POINT('',(18.945691933199,22.5,-0.176641538365));
#312 = CARTESIAN_POINT('',(29.105328303284,22.5,72.11292747977));
#313 = GEOMETRIC_CURVE_SET('',(#314));
#314 = TRIMMED_CURVE('',#315,(#319,PARAMETER_VALUE(-13.89294875616)),(
    #320,PARAMETER_VALUE(-7.892948756162)),.T.,.PARAMETER.);
#315 = LINE('',#316,#317);
#316 = CARTESIAN_POINT('',(21.289193181843,22.5,73.211413633883));
#317 = VECTOR('',#318,1.);
#318 = DIRECTION('',(-0.990268068742,0.,0.13917310096));
#319 = CARTESIAN_POINT('',(35.046936715733,22.5,71.27788887401));
#320 = CARTESIAN_POINT('',(29.105328303284,22.5,72.11292747977));
#321 = GEOMETRIC_CURVE_SET('',(#322));
#322 = TRIMMED_CURVE('',#323,(#327,PARAMETER_VALUE(0.)),(#328,
    PARAMETER_VALUE(73.)),.T.,.PARAMETER.);
#323 = LINE('',#324,#325);
#324 = CARTESIAN_POINT('',(24.887300345649,22.5,-1.011680144125));
#325 = VECTOR('',#326,1.);
#326 = DIRECTION('',(0.13917310096,0.,0.990268068742));
#327 = CARTESIAN_POINT('',(24.887300345649,22.5,-1.011680144125));
#328 = CARTESIAN_POINT('',(35.046936715733,22.5,71.27788887401));
#329 = GEOMETRIC_CURVE_SET('',(#330));
#330 = TRIMMED_CURVE('',#331,(#335,PARAMETER_VALUE(-28.89294875615)),(
    #336,PARAMETER_VALUE(-26.89294875615)),.T.,.PARAMETER.);
#331 = LINE('',#332,#333);
#332 = CARTESIAN_POINT('',(11.282647222819,22.5,2.011139491363));
#333 = VECTOR('',#334,1.);
#334 = DIRECTION('',(-0.990268068742,0.,0.13917310096));
#335 = CARTESIAN_POINT('',(39.894411787828,22.5,-2.00998178291));
#336 = CARTESIAN_POINT('',(37.913875650345,22.5,-1.73163558099));
#337 = GEOMETRIC_CURVE_SET('',(#338));
#338 = TRIMMED_CURVE('',#339,(#343,PARAMETER_VALUE(0.)),(#344,
    PARAMETER_VALUE(5.499999999999)),.T.,.PARAMETER.);
#339 = LINE('',#340,#341);
#340 = CARTESIAN_POINT('',(39.894411787828,22.5,-2.00998178291));
#341 = VECTOR('',#342,1.);
#342 = DIRECTION('',(0.13917310096,0.,0.990268068742));
#343 = CARTESIAN_POINT('',(39.894411787828,22.5,-2.00998178291));
#344 = CARTESIAN_POINT('',(40.659863843109,22.5,3.436492595168));
#345 = GEOMETRIC_CURVE_SET('',(#346));
#346 = TRIMMED_CURVE('',#347,(#351,PARAMETER_VALUE(0.)),(#352,
    PARAMETER_VALUE(1.414213562372)),.T.,.PARAMETER.);
#347 = LINE('',#348,#349);
#348 = CARTESIAN_POINT('',(37.062780682564,22.5,-0.602194411289));
#349 = VECTOR('',#350,1.);
#350 = DIRECTION('',(0.601815023152,0.,-0.798635510047));
#351 = CARTESIAN_POINT('',(37.062780682564,22.5,-0.602194411289));
#352 = CARTESIAN_POINT('',(37.913875650345,22.5,-1.73163558099));
#353 = GEOMETRIC_CURVE_SET('',(#354));
#354 = TRIMMED_CURVE('',#355,(#359,PARAMETER_VALUE(5.107051243843)),(
    #360,PARAMETER_VALUE(7.107051243843)),.T.,.PARAMETER.);
#355 = LINE('',#356,#357);
#356 = CARTESIAN_POINT('',(11.282647222819,22.5,2.011139491363));
#357 = VECTOR('',#358,1.);
#358 = DIRECTION('',(-0.990268068742,0.,0.13917310096));
#359 = CARTESIAN_POINT('',(6.225297450615,22.5,2.72190364973));
#360 = CARTESIAN_POINT('',(4.244761313131,22.5,3.00024985165));
#361 = GEOMETRIC_CURVE_SET('',(#362));
#362 = TRIMMED_CURVE('',#363,(#367,PARAMETER_VALUE(21.213203435606)),(
    #368,PARAMETER_VALUE(22.627416997979)),.T.,.PARAMETER.);
#363 = LINE('',#364,#365);
#364 = CARTESIAN_POINT('',(24.296356165841,22.5,16.339423134249));
#365 = VECTOR('',#366,1.);
#366 = DIRECTION('',(-0.798635510047,0.,-0.601815023153));
#367 = CARTESIAN_POINT('',(7.354738620316,22.5,3.572998617511));
#368 = CARTESIAN_POINT('',(6.225297450615,22.5,2.72190364973));
#369 = GEOMETRIC_CURVE_SET('',(#370));
#370 = TRIMMED_CURVE('',#371,(#375,PARAMETER_VALUE(0.)),(#376,
    PARAMETER_VALUE(5.499999999999)),.T.,.PARAMETER.);
#371 = LINE('',#372,#373);
#372 = CARTESIAN_POINT('',(4.244761313131,22.5,3.00024985165));
#373 = VECTOR('',#374,1.);
#374 = DIRECTION('',(0.13917310096,0.,0.990268068742));
#375 = CARTESIAN_POINT('',(4.244761313131,22.5,3.00024985165));
#376 = CARTESIAN_POINT('',(5.010213368411,22.5,8.446724229728));
#377 = GEOMETRIC_CURVE_SET('',(#378));
#378 = TRIMMED_CURVE('',#379,(#383,PARAMETER_VALUE(3.407051243842)),(
    #384,PARAMETER_VALUE(7.107051243842)),.T.,.PARAMETER.);
#379 = LINE('',#380,#381);
#380 = CARTESIAN_POINT('',(12.048099278099,22.5,7.457613869441));
#381 = VECTOR('',#382,1.);
#382 = DIRECTION('',(-0.990268068742,0.,0.13917310096));
#383 = CARTESIAN_POINT('',(8.674205222755,22.5,7.931783756176));
#384 = CARTESIAN_POINT('',(5.010213368411,22.5,8.446724229728));
#385 = GEOMETRIC_CURVE_SET('',(#386));
#386 = TRIMMED_CURVE('',#387,(#391,PARAMETER_VALUE(-28.89294875615)),(
    #392,PARAMETER_VALUE(-25.19294875615)),.T.,.PARAMETER.);
#387 = LINE('',#388,#389);
#388 = CARTESIAN_POINT('',(12.048099278099,22.5,7.457613869441));
#389 = VECTOR('',#390,1.);
#390 = DIRECTION('',(-0.990268068742,0.,0.13917310096));
#391 = CARTESIAN_POINT('',(40.659863843109,22.5,3.436492595168));
#392 = CARTESIAN_POINT('',(36.995871988765,22.5,3.95143306872));
#393 = GEOMETRIC_CURVE_SET('',(#394));
#394 = TRIMMED_CURVE('',#395,(#399,PARAMETER_VALUE(0.)),(#400,
    PARAMETER_VALUE(3.799999999999)),.T.,.PARAMETER.);
#395 = LINE('',#396,#397);
#396 = CARTESIAN_POINT('',(36.995871988765,22.5,3.95143306872));
#397 = VECTOR('',#398,1.);
#398 = DIRECTION('',(-0.13917310096,0.,-0.990268068742));
#399 = CARTESIAN_POINT('',(36.995871988765,22.5,3.95143306872));
#400 = CARTESIAN_POINT('',(36.467014205117,22.5,0.188414407503));
#401 = GEOMETRIC_CURVE_SET('',(#402));
#402 = TRIMMED_CURVE('',#403,(#407,PARAMETER_VALUE(-0.)),(#408,
    PARAMETER_VALUE(3.8)),.T.,.PARAMETER.);
#403 = LINE('',#404,#405);
#404 = CARTESIAN_POINT('',(8.674205222755,22.5,7.931783756176));
#405 = VECTOR('',#406,1.);
#406 = DIRECTION('',(-0.13917310096,-0.,-0.990268068742));
#407 = CARTESIAN_POINT('',(8.674205222755,22.5,7.931783756176));
#408 = CARTESIAN_POINT('',(8.145347439107,22.5,4.168765094958));
#409 = GEOMETRIC_CURVE_SET('',(#410));
#410 = TRIMMED_CURVE('',#411,(#415,PARAMETER_VALUE(20.223253941944)),(
    #416,PARAMETER_VALUE(21.213203435606)),.T.,.PARAMETER.);
#411 = LINE('',#412,#413);
#412 = CARTESIAN_POINT('',(24.296356165841,22.5,16.339423134248));
#413 = VECTOR('',#414,1.);
#414 = DIRECTION('',(-0.798635510047,0.,-0.601815023153));
#415 = CARTESIAN_POINT('',(8.145347439107,22.5,4.168765094958));
#416 = CARTESIAN_POINT('',(7.354738620316,22.5,3.572998617511));
#417 = GEOMETRIC_CURVE_SET('',(#418));
#418 = TRIMMED_CURVE('',#419,(#423,PARAMETER_VALUE(-16.39294875615)),(
    #424,PARAMETER_VALUE(-13.91294875615)),.T.,.PARAMETER.);
#419 = LINE('',#420,#421);
#420 = CARTESIAN_POINT('',(13.996522691539,22.5,21.321366831823));
#421 = VECTOR('',#422,1.);
#422 = DIRECTION('',(-0.990268068742,0.,0.13917310096));
#423 = CARTESIAN_POINT('',(30.22993639728,22.5,19.039909319551));
#424 = CARTESIAN_POINT('',(27.774071586801,22.5,19.385058609932));
#425 = GEOMETRIC_CURVE_SET('',(#426));
#426 = TRIMMED_CURVE('',#427,(#431,PARAMETER_VALUE(0.)),(#432,
    PARAMETER_VALUE(35.)),.T.,.PARAMETER.);
#427 = LINE('',#428,#429);
#428 = CARTESIAN_POINT('',(30.22993639728,22.5,19.039909319551));
#429 = VECTOR('',#430,1.);
#430 = DIRECTION('',(0.13917310096,0.,0.990268068742));
#431 = CARTESIAN_POINT('',(30.22993639728,22.5,19.039909319551));
#432 = CARTESIAN_POINT('',(35.100994930882,22.5,53.699291725506));
#433 = GEOMETRIC_CURVE_SET('',(#434));
#434 = TRIMMED_CURVE('',#435,(#439,PARAMETER_VALUE(0.)),(#440,
    PARAMETER_VALUE(35.)),.T.,.PARAMETER.);
#435 = LINE('',#436,#437);
#436 = CARTESIAN_POINT('',(32.645130120403,22.5,54.044441015887));
#437 = VECTOR('',#438,1.);
#438 = DIRECTION('',(-0.13917310096,0.,-0.990268068742));
#439 = CARTESIAN_POINT('',(32.645130120403,22.5,54.044441015887));
#440 = CARTESIAN_POINT('',(27.774071586801,22.5,19.385058609932));
#441 = GEOMETRIC_CURVE_SET('',(#442));
#442 = TRIMMED_CURVE('',#443,(#447,PARAMETER_VALUE(-7.872948756159)),(
    #448,PARAMETER_VALUE(-5.392948756159)),.T.,.PARAMETER.);
#443 = LINE('',#444,#445);
#444 = CARTESIAN_POINT('',(13.996522691539,22.5,21.321366831823));
#445 = VECTOR('',#446,1.);
#446 = DIRECTION('',(-0.990268068742,0.,0.13917310096));
#447 = CARTESIAN_POINT('',(21.792852451601,22.5,20.22566413973));
#448 = CARTESIAN_POINT('',(19.336987641122,22.5,20.570813430111));
#449 = GEOMETRIC_CURVE_SET('',(#450));
#450 = TRIMMED_CURVE('',#451,(#455,PARAMETER_VALUE(-0.)),(#456,
    PARAMETER_VALUE(35.)),.T.,.PARAMETER.);
#451 = LINE('',#452,#453);
#452 = CARTESIAN_POINT('',(26.663910985204,22.5,54.885046545685));
#453 = VECTOR('',#454,1.);
#454 = DIRECTION('',(-0.13917310096,-0.,-0.990268068742));
#455 = CARTESIAN_POINT('',(26.663910985204,22.5,54.885046545685));
#456 = CARTESIAN_POINT('',(21.792852451601,22.5,20.22566413973));
#457 = GEOMETRIC_CURVE_SET('',(#458));
#458 = TRIMMED_CURVE('',#459,(#463,PARAMETER_VALUE(0.)),(#464,
    PARAMETER_VALUE(35.)),.T.,.PARAMETER.);
#459 = LINE('',#460,#461);
#460 = CARTESIAN_POINT('',(19.336987641122,22.5,20.570813430111));
#461 = VECTOR('',#462,1.);
#462 = DIRECTION('',(0.13917310096,0.,0.990268068742));
#463 = CARTESIAN_POINT('',(19.336987641122,22.5,20.570813430111));
#464 = CARTESIAN_POINT('',(24.208046174725,22.5,55.230195836066));
#465 = GEOMETRIC_CURVE_SET('',(#466));
#466 = TRIMMED_CURVE('',#467,(#471,PARAMETER_VALUE(-7.872948756161)),(
    #472,PARAMETER_VALUE(-5.392948756161)),.T.,.PARAMETER.);
#467 = LINE('',#468,#469);
#468 = CARTESIAN_POINT('',(18.867581225139,22.5,55.980749237779));
#469 = VECTOR('',#470,1.);
#470 = DIRECTION('',(-0.990268068742,0.,0.13917310096));
#471 = CARTESIAN_POINT('',(26.663910985204,22.5,54.885046545685));
#472 = CARTESIAN_POINT('',(24.208046174725,22.5,55.230195836066));
#473 = GEOMETRIC_CURVE_SET('',(#474));
#474 = TRIMMED_CURVE('',#475,(#479,PARAMETER_VALUE(-16.39294875616)),(
    #480,PARAMETER_VALUE(-13.91294875616)),.T.,.PARAMETER.);
#475 = LINE('',#476,#477);
#476 = CARTESIAN_POINT('',(18.867581225139,22.5,55.980749237779));
#477 = VECTOR('',#478,1.);
#478 = DIRECTION('',(-0.990268068742,0.,0.13917310096));
#479 = CARTESIAN_POINT('',(35.100994930882,22.5,53.699291725506));
#480 = CARTESIAN_POINT('',(32.645130120403,22.5,54.044441015887));
#481 = GEOMETRIC_CURVE_SET('',(#482));
#482 = TRIMMED_CURVE('',#483,(#487,PARAMETER_VALUE(0.)),(#488,
    PARAMETER_VALUE(2.12132034356)),.T.,.PARAMETER.);
#483 = LINE('',#484,#485);
#484 = CARTESIAN_POINT('',(1.905852035872,22.5,-8.604620771327));
#485 = VECTOR('',#486,1.);
#486 = DIRECTION('',(-0.798635510047,0.,0.601815023152));
#487 = CARTESIAN_POINT('',(1.905852035872,22.5,-8.604620771327));
#488 = CARTESIAN_POINT('',(0.21169028132,22.5,-7.327978319654));
#489 = GEOMETRIC_CURVE_SET('',(#490));
#490 = TRIMMED_CURVE('',#491,(#495,PARAMETER_VALUE(0.)),(#496,
    PARAMETER_VALUE(12.980754985747)),.T.,.PARAMETER.);
#491 = LINE('',#492,#493);
#492 = CARTESIAN_POINT('',(0.21169028132,22.5,-7.327978319654));
#493 = VECTOR('',#494,1.);
#494 = DIRECTION('',(-0.991117752916,0.,0.132987216883));
#495 = CARTESIAN_POINT('',(0.21169028132,22.5,-7.327978319654));
#496 = CARTESIAN_POINT('',(-12.65376643131,22.5,-5.60170384106));
#497 = GEOMETRIC_CURVE_SET('',(#498));
#498 = TRIMMED_CURVE('',#499,(#503,PARAMETER_VALUE(0.)),(#504,
    PARAMETER_VALUE(4.999999999996)),.T.,.PARAMETER.);
#499 = LINE('',#500,#501);
#500 = CARTESIAN_POINT('',(-12.65376643131,22.5,-5.60170384106));
#501 = VECTOR('',#502,1.);
#502 = DIRECTION('',(-0.705499322013,0.,0.708710594417));
#503 = CARTESIAN_POINT('',(-12.65376643131,22.5,-5.60170384106));
#504 = CARTESIAN_POINT('',(-16.18126304137,22.5,-2.058150868974));
#505 = GEOMETRIC_CURVE_SET('',(#506));
#506 = TRIMMED_CURVE('',#507,(#511,PARAMETER_VALUE(0.)),(#512,
    PARAMETER_VALUE(0.989949493661)),.T.,.PARAMETER.);
#507 = LINE('',#508,#509);
#508 = CARTESIAN_POINT('',(-2.179409198512,22.5,4.655870948321));
#509 = VECTOR('',#510,1.);
#510 = DIRECTION('',(0.798635510047,0.,-0.601815023152));
#511 = CARTESIAN_POINT('',(-2.179409198512,22.5,4.655870948321));
#512 = CARTESIAN_POINT('',(-1.388800379721,22.5,4.060104470874));
#513 = GEOMETRIC_CURVE_SET('',(#514));
#514 = TRIMMED_CURVE('',#515,(#519,PARAMETER_VALUE(0.)),(#520,
    PARAMETER_VALUE(2.121320343566)),.T.,.PARAMETER.);
#515 = LINE('',#516,#517);
#516 = CARTESIAN_POINT('',(37.003361365019,22.5,-11.80292962576));
#517 = VECTOR('',#518,1.);
#518 = DIRECTION('',(-0.601815023152,0.,0.798635510047));
#519 = CARTESIAN_POINT('',(37.003361365019,22.5,-11.80292962576));
#520 = CARTESIAN_POINT('',(35.726718913347,22.5,-10.1087678712));
#521 = GEOMETRIC_CURVE_SET('',(#522));
#522 = TRIMMED_CURVE('',#523,(#527,PARAMETER_VALUE(0.)),(#528,
    PARAMETER_VALUE(9.65660395791)),.T.,.PARAMETER.);
#523 = LINE('',#524,#525);
#524 = CARTESIAN_POINT('',(35.726718913347,22.5,-10.1087678712));
#525 = VECTOR('',#526,1.);
#526 = DIRECTION('',(-0.872491696049,0.,0.488628939304));
#527 = CARTESIAN_POINT('',(35.726718913347,22.5,-10.1087678712));
#528 = CARTESIAN_POINT('',(27.301412148033,22.5,-5.390271721972));
#529 = GEOMETRIC_CURVE_SET('',(#530));
#530 = TRIMMED_CURVE('',#531,(#535,PARAMETER_VALUE(0.)),(#536,
    PARAMETER_VALUE(5.)),.T.,.PARAMETER.);
#531 = LINE('',#532,#533);
#532 = CARTESIAN_POINT('',(27.301412148033,22.5,-5.390271721972));
#533 = VECTOR('',#534,1.);
#534 = DIRECTION('',(-0.482822360477,0.,0.875718315569));
#535 = CARTESIAN_POINT('',(27.301412148033,22.5,-5.390271721972));
#536 = CARTESIAN_POINT('',(24.887300345649,22.5,-1.011680144125));
#537 = GEOMETRIC_CURVE_SET('',(#538));
#538 = TRIMMED_CURVE('',#539,(#543,PARAMETER_VALUE(0.)),(#544,
    PARAMETER_VALUE(0.989949493662)),.T.,.PARAMETER.);
#539 = LINE('',#540,#541);
#540 = CARTESIAN_POINT('',(36.467014205117,22.5,0.188414407503));
#541 = VECTOR('',#542,1.);
#542 = DIRECTION('',(0.601815023152,0.,-0.798635510047));
#543 = CARTESIAN_POINT('',(36.467014205117,22.5,0.188414407503));
#544 = CARTESIAN_POINT('',(37.062780682564,22.5,-0.602194411289));
#545 = ( GEOMETRIC_REPRESENTATION_CONTEXT(3) 
GLOBAL_UNCERTAINTY_ASSIGNED_CONTEXT((#549)) GLOBAL_UNIT_ASSIGNED_CONTEXT
((#546,#547,#548)) REPRESENTATION_CONTEXT('Context #1',
  '3D Context with UNIT and UNCERTAINTY') );
#546 = ( LENGTH_UNIT() NAMED_UNIT(*) SI_UNIT(.MILLI.,.METRE.) );
#547 = ( NAMED_UNIT(*) PLANE_ANGLE_UNIT() SI_UNIT($,.RADIAN.) );
#548 = ( NAMED_UNIT(*) SI_UNIT($,.STERADIAN.) SOLID_ANGLE_UNIT() );
#549 = UNCERTAINTY_MEASURE_WITH_UNIT(LENGTH_MEASURE(1.E-07),#546,
  'distance_accuracy_value','confusion accuracy');
#550 = CONTEXT_DEPENDENT_SHAPE_REPRESENTATION(#551,#553);
#551 = ( REPRESENTATION_RELATIONSHIP('','',#32,#10) 
REPRESENTATION_RELATIONSHIP_WITH_TRANSFORMATION(#552) 
SHAPE_REPRESENTATION_RELATIONSHIP() );
#552 = ITEM_DEFINED_TRANSFORMATION('','',#11,#15);
#553 = PRODUCT_DEFINITION_SHAPE('Placement','Placement of an item',#554
  );
#554 = NEXT_ASSEMBLY_USAGE_OCCURRENCE('2','=>[0:1:1:2]','',#5,#27,$);
#555 = PRODUCT_RELATED_PRODUCT_CATEGORY('part',$,(#29));
#556 = MECHANICAL_DESIGN_GEOMETRIC_PRESENTATION_REPRESENTATION('',(#557,
    #567,#576,#585,#594,#603,#612,#621,#630,#639,#648,#657,#666,#675,
    #684,#693,#702,#711,#720,#729,#738,#747,#756,#765,#774,#783,#792,
    #801,#810,#819,#828,#837,#846,#855,#864,#873,#882,#891,#900,#909,
    #918,#927,#936,#945,#954,#963,#972,#981,#990,#999,#1008,#1017,#1026,
    #1035,#1044,#1053,#1062,#1071,#1080,#1089,#1098,#1107,#1116,#1125),
  #545);
#557 = STYLED_ITEM('color',(#558),#33);
#558 = PRESENTATION_STYLE_ASSIGNMENT((#559,#565));
#559 = SURFACE_STYLE_USAGE(.BOTH.,#560);
#560 = SURFACE_SIDE_STYLE('',(#561));
#561 = SURFACE_STYLE_FILL_AREA(#562);
#562 = FILL_AREA_STYLE('',(#563));
#563 = FILL_AREA_STYLE_COLOUR('',#564);
#564 = COLOUR_RGB('',0.665185089102,0.665185089102,0.665185089102);
#565 = CURVE_STYLE('',#566,POSITIVE_LENGTH_MEASURE(0.1),#564);
#566 = DRAUGHTING_PRE_DEFINED_CURVE_FONT('continuous');
#567 = STYLED_ITEM('color',(#568),#41);
#568 = PRESENTATION_STYLE_ASSIGNMENT((#569,#574));
#569 = SURFACE_STYLE_USAGE(.BOTH.,#570);
#570 = SURFACE_SIDE_STYLE('',(#571));
#571 = SURFACE_STYLE_FILL_AREA(#572);
#572 = FILL_AREA_STYLE('',(#573));
#573 = FILL_AREA_STYLE_COLOUR('',#564);
#574 = CURVE_STYLE('',#575,POSITIVE_LENGTH_MEASURE(0.1),#564);
#575 = DRAUGHTING_PRE_DEFINED_CURVE_FONT('continuous');
#576 = STYLED_ITEM('color',(#577),#49);
#577 = PRESENTATION_STYLE_ASSIGNMENT((#578,#583));
#578 = SURFACE_STYLE_USAGE(.BOTH.,#579);
#579 = SURFACE_SIDE_STYLE('',(#580));
#580 = SURFACE_STYLE_FILL_AREA(#581);
#581 = FILL_AREA_STYLE('',(#582));
#582 = FILL_AREA_STYLE_COLOUR('',#564);
#583 = CURVE_STYLE('',#584,POSITIVE_LENGTH_MEASURE(0.1),#564);
#584 = DRAUGHTING_PRE_DEFINED_CURVE_FONT('continuous');
#585 = STYLED_ITEM('color',(#586),#57);
#586 = PRESENTATION_STYLE_ASSIGNMENT((#587,#592));
#587 = SURFACE_STYLE_USAGE(.BOTH.,#588);
#588 = SURFACE_SIDE_STYLE('',(#589));
#589 = SURFACE_STYLE_FILL_AREA(#590);
#590 = FILL_AREA_STYLE('',(#591));
#591 = FILL_AREA_STYLE_COLOUR('',#564);
#592 = CURVE_STYLE('',#593,POSITIVE_LENGTH_MEASURE(0.1),#564);
#593 = DRAUGHTING_PRE_DEFINED_CURVE_FONT('continuous');
#594 = STYLED_ITEM('color',(#595),#65);
#595 = PRESENTATION_STYLE_ASSIGNMENT((#596,#601));
#596 = SURFACE_STYLE_USAGE(.BOTH.,#597);
#597 = SURFACE_SIDE_STYLE('',(#598));
#598 = SURFACE_STYLE_FILL_AREA(#599);
#599 = FILL_AREA_STYLE('',(#600));
#600 = FILL_AREA_STYLE_COLOUR('',#564);
#601 = CURVE_STYLE('',#602,POSITIVE_LENGTH_MEASURE(0.1),#564);
#602 = DRAUGHTING_PRE_DEFINED_CURVE_FONT('continuous');
#603 = STYLED_ITEM('color',(#604),#73);
#604 = PRESENTATION_STYLE_ASSIGNMENT((#605,#610));
#605 = SURFACE_STYLE_USAGE(.BOTH.,#606);
#606 = SURFACE_SIDE_STYLE('',(#607));
#607 = SURFACE_STYLE_FILL_AREA(#608);
#608 = FILL_AREA_STYLE('',(#609));
#609 = FILL_AREA_STYLE_COLOUR('',#564);
#610 = CURVE_STYLE('',#611,POSITIVE_LENGTH_MEASURE(0.1),#564);
#611 = DRAUGHTING_PRE_DEFINED_CURVE_FONT('continuous');
#612 = STYLED_ITEM('color',(#613),#81);
#613 = PRESENTATION_STYLE_ASSIGNMENT((#614,#619));
#614 = SURFACE_STYLE_USAGE(.BOTH.,#615);
#615 = SURFACE_SIDE_STYLE('',(#616));
#616 = SURFACE_STYLE_FILL_AREA(#617);
#617 = FILL_AREA_STYLE('',(#618));
#618 = FILL_AREA_STYLE_COLOUR('',#564);
#619 = CURVE_STYLE('',#620,POSITIVE_LENGTH_MEASURE(0.1),#564);
#620 = DRAUGHTING_PRE_DEFINED_CURVE_FONT('continuous');
#621 = STYLED_ITEM('color',(#622),#89);
#622 = PRESENTATION_STYLE_ASSIGNMENT((#623,#628));
#623 = SURFACE_STYLE_USAGE(.BOTH.,#624);
#624 = SURFACE_SIDE_STYLE('',(#625));
#625 = SURFACE_STYLE_FILL_AREA(#626);
#626 = FILL_AREA_STYLE('',(#627));
#627 = FILL_AREA_STYLE_COLOUR('',#564);
#628 = CURVE_STYLE('',#629,POSITIVE_LENGTH_MEASURE(0.1),#564);
#629 = DRAUGHTING_PRE_DEFINED_CURVE_FONT('continuous');
#630 = STYLED_ITEM('color',(#631),#97);
#631 = PRESENTATION_STYLE_ASSIGNMENT((#632,#637));
#632 = SURFACE_STYLE_USAGE(.BOTH.,#633);
#633 = SURFACE_SIDE_STYLE('',(#634));
#634 = SURFACE_STYLE_FILL_AREA(#635);
#635 = FILL_AREA_STYLE('',(#636));
#636 = FILL_AREA_STYLE_COLOUR('',#564);
#637 = CURVE_STYLE('',#638,POSITIVE_LENGTH_MEASURE(0.1),#564);
#638 = DRAUGHTING_PRE_DEFINED_CURVE_FONT('continuous');
#639 = STYLED_ITEM('color',(#640),#105);
#640 = PRESENTATION_STYLE_ASSIGNMENT((#641,#646));
#641 = SURFACE_STYLE_USAGE(.BOTH.,#642);
#642 = SURFACE_SIDE_STYLE('',(#643));
#643 = SURFACE_STYLE_FILL_AREA(#644);
#644 = FILL_AREA_STYLE('',(#645));
#645 = FILL_AREA_STYLE_COLOUR('',#564);
#646 = CURVE_STYLE('',#647,POSITIVE_LENGTH_MEASURE(0.1),#564);
#647 = DRAUGHTING_PRE_DEFINED_CURVE_FONT('continuous');
#648 = STYLED_ITEM('color',(#649),#113);
#649 = PRESENTATION_STYLE_ASSIGNMENT((#650,#655));
#650 = SURFACE_STYLE_USAGE(.BOTH.,#651);
#651 = SURFACE_SIDE_STYLE('',(#652));
#652 = SURFACE_STYLE_FILL_AREA(#653);
#653 = FILL_AREA_STYLE('',(#654));
#654 = FILL_AREA_STYLE_COLOUR('',#564);
#655 = CURVE_STYLE('',#656,POSITIVE_LENGTH_MEASURE(0.1),#564);
#656 = DRAUGHTING_PRE_DEFINED_CURVE_FONT('continuous');
#657 = STYLED_ITEM('color',(#658),#121);
#658 = PRESENTATION_STYLE_ASSIGNMENT((#659,#664));
#659 = SURFACE_STYLE_USAGE(.BOTH.,#660);
#660 = SURFACE_SIDE_STYLE('',(#661));
#661 = SURFACE_STYLE_FILL_AREA(#662);
#662 = FILL_AREA_STYLE('',(#663));
#663 = FILL_AREA_STYLE_COLOUR('',#564);
#664 = CURVE_STYLE('',#665,POSITIVE_LENGTH_MEASURE(0.1),#564);
#665 = DRAUGHTING_PRE_DEFINED_CURVE_FONT('continuous');
#666 = STYLED_ITEM('color',(#667),#129);
#667 = PRESENTATION_STYLE_ASSIGNMENT((#668,#673));
#668 = SURFACE_STYLE_USAGE(.BOTH.,#669);
#669 = SURFACE_SIDE_STYLE('',(#670));
#670 = SURFACE_STYLE_FILL_AREA(#671);
#671 = FILL_AREA_STYLE('',(#672));
#672 = FILL_AREA_STYLE_COLOUR('',#564);
#673 = CURVE_STYLE('',#674,POSITIVE_LENGTH_MEASURE(0.1),#564);
#674 = DRAUGHTING_PRE_DEFINED_CURVE_FONT('continuous');
#675 = STYLED_ITEM('color',(#676),#137);
#676 = PRESENTATION_STYLE_ASSIGNMENT((#677,#682));
#677 = SURFACE_STYLE_USAGE(.BOTH.,#678);
#678 = SURFACE_SIDE_STYLE('',(#679));
#679 = SURFACE_STYLE_FILL_AREA(#680);
#680 = FILL_AREA_STYLE('',(#681));
#681 = FILL_AREA_STYLE_COLOUR('',#564);
#682 = CURVE_STYLE('',#683,POSITIVE_LENGTH_MEASURE(0.1),#564);
#683 = DRAUGHTING_PRE_DEFINED_CURVE_FONT('continuous');
#684 = STYLED_ITEM('color',(#685),#145);
#685 = PRESENTATION_STYLE_ASSIGNMENT((#686,#691));
#686 = SURFACE_STYLE_USAGE(.BOTH.,#687);
#687 = SURFACE_SIDE_STYLE('',(#688));
#688 = SURFACE_STYLE_FILL_AREA(#689);
#689 = FILL_AREA_STYLE('',(#690));
#690 = FILL_AREA_STYLE_COLOUR('',#564);
#691 = CURVE_STYLE('',#692,POSITIVE_LENGTH_MEASURE(0.1),#564);
#692 = DRAUGHTING_PRE_DEFINED_CURVE_FONT('continuous');
#693 = STYLED_ITEM('color',(#694),#153);
#694 = PRESENTATION_STYLE_ASSIGNMENT((#695,#700));
#695 = SURFACE_STYLE_USAGE(.BOTH.,#696);
#696 = SURFACE_SIDE_STYLE('',(#697));
#697 = SURFACE_STYLE_FILL_AREA(#698);
#698 = FILL_AREA_STYLE('',(#699));
#699 = FILL_AREA_STYLE_COLOUR('',#564);
#700 = CURVE_STYLE('',#701,POSITIVE_LENGTH_MEASURE(0.1),#564);
#701 = DRAUGHTING_PRE_DEFINED_CURVE_FONT('continuous');
#702 = STYLED_ITEM('color',(#703),#161);
#703 = PRESENTATION_STYLE_ASSIGNMENT((#704,#709));
#704 = SURFACE_STYLE_USAGE(.BOTH.,#705);
#705 = SURFACE_SIDE_STYLE('',(#706));
#706 = SURFACE_STYLE_FILL_AREA(#707);
#707 = FILL_AREA_STYLE('',(#708));
#708 = FILL_AREA_STYLE_COLOUR('',#564);
#709 = CURVE_STYLE('',#710,POSITIVE_LENGTH_MEASURE(0.1),#564);
#710 = DRAUGHTING_PRE_DEFINED_CURVE_FONT('continuous');
#711 = STYLED_ITEM('color',(#712),#169);
#712 = PRESENTATION_STYLE_ASSIGNMENT((#713,#718));
#713 = SURFACE_STYLE_USAGE(.BOTH.,#714);
#714 = SURFACE_SIDE_STYLE('',(#715));
#715 = SURFACE_STYLE_FILL_AREA(#716);
#716 = FILL_AREA_STYLE('',(#717));
#717 = FILL_AREA_STYLE_COLOUR('',#564);
#718 = CURVE_STYLE('',#719,POSITIVE_LENGTH_MEASURE(0.1),#564);
#719 = DRAUGHTING_PRE_DEFINED_CURVE_FONT('continuous');
#720 = STYLED_ITEM('color',(#721),#177);
#721 = PRESENTATION_STYLE_ASSIGNMENT((#722,#727));
#722 = SURFACE_STYLE_USAGE(.BOTH.,#723);
#723 = SURFACE_SIDE_STYLE('',(#724));
#724 = SURFACE_STYLE_FILL_AREA(#725);
#725 = FILL_AREA_STYLE('',(#726));
#726 = FILL_AREA_STYLE_COLOUR('',#564);
#727 = CURVE_STYLE('',#728,POSITIVE_LENGTH_MEASURE(0.1),#564);
#728 = DRAUGHTING_PRE_DEFINED_CURVE_FONT('continuous');
#729 = STYLED_ITEM('color',(#730),#185);
#730 = PRESENTATION_STYLE_ASSIGNMENT((#731,#736));
#731 = SURFACE_STYLE_USAGE(.BOTH.,#732);
#732 = SURFACE_SIDE_STYLE('',(#733));
#733 = SURFACE_STYLE_FILL_AREA(#734);
#734 = FILL_AREA_STYLE('',(#735));
#735 = FILL_AREA_STYLE_COLOUR('',#564);
#736 = CURVE_STYLE('',#737,POSITIVE_LENGTH_MEASURE(0.1),#564);
#737 = DRAUGHTING_PRE_DEFINED_CURVE_FONT('continuous');
#738 = STYLED_ITEM('color',(#739),#193);
#739 = PRESENTATION_STYLE_ASSIGNMENT((#740,#745));
#740 = SURFACE_STYLE_USAGE(.BOTH.,#741);
#741 = SURFACE_SIDE_STYLE('',(#742));
#742 = SURFACE_STYLE_FILL_AREA(#743);
#743 = FILL_AREA_STYLE('',(#744));
#744 = FILL_AREA_STYLE_COLOUR('',#564);
#745 = CURVE_STYLE('',#746,POSITIVE_LENGTH_MEASURE(0.1),#564);
#746 = DRAUGHTING_PRE_DEFINED_CURVE_FONT('continuous');
#747 = STYLED_ITEM('color',(#748),#201);
#748 = PRESENTATION_STYLE_ASSIGNMENT((#749,#754));
#749 = SURFACE_STYLE_USAGE(.BOTH.,#750);
#750 = SURFACE_SIDE_STYLE('',(#751));
#751 = SURFACE_STYLE_FILL_AREA(#752);
#752 = FILL_AREA_STYLE('',(#753));
#753 = FILL_AREA_STYLE_COLOUR('',#564);
#754 = CURVE_STYLE('',#755,POSITIVE_LENGTH_MEASURE(0.1),#564);
#755 = DRAUGHTING_PRE_DEFINED_CURVE_FONT('continuous');
#756 = STYLED_ITEM('color',(#757),#209);
#757 = PRESENTATION_STYLE_ASSIGNMENT((#758,#763));
#758 = SURFACE_STYLE_USAGE(.BOTH.,#759);
#759 = SURFACE_SIDE_STYLE('',(#760));
#760 = SURFACE_STYLE_FILL_AREA(#761);
#761 = FILL_AREA_STYLE('',(#762));
#762 = FILL_AREA_STYLE_COLOUR('',#564);
#763 = CURVE_STYLE('',#764,POSITIVE_LENGTH_MEASURE(0.1),#564);
#764 = DRAUGHTING_PRE_DEFINED_CURVE_FONT('continuous');
#765 = STYLED_ITEM('color',(#766),#217);
#766 = PRESENTATION_STYLE_ASSIGNMENT((#767,#772));
#767 = SURFACE_STYLE_USAGE(.BOTH.,#768);
#768 = SURFACE_SIDE_STYLE('',(#769));
#769 = SURFACE_STYLE_FILL_AREA(#770);
#770 = FILL_AREA_STYLE('',(#771));
#771 = FILL_AREA_STYLE_COLOUR('',#564);
#772 = CURVE_STYLE('',#773,POSITIVE_LENGTH_MEASURE(0.1),#564);
#773 = DRAUGHTING_PRE_DEFINED_CURVE_FONT('continuous');
#774 = STYLED_ITEM('color',(#775),#225);
#775 = PRESENTATION_STYLE_ASSIGNMENT((#776,#781));
#776 = SURFACE_STYLE_USAGE(.BOTH.,#777);
#777 = SURFACE_SIDE_STYLE('',(#778));
#778 = SURFACE_STYLE_FILL_AREA(#779);
#779 = FILL_AREA_STYLE('',(#780));
#780 = FILL_AREA_STYLE_COLOUR('',#564);
#781 = CURVE_STYLE('',#782,POSITIVE_LENGTH_MEASURE(0.1),#564);
#782 = DRAUGHTING_PRE_DEFINED_CURVE_FONT('continuous');
#783 = STYLED_ITEM('color',(#784),#233);
#784 = PRESENTATION_STYLE_ASSIGNMENT((#785,#790));
#785 = SURFACE_STYLE_USAGE(.BOTH.,#786);
#786 = SURFACE_SIDE_STYLE('',(#787));
#787 = SURFACE_STYLE_FILL_AREA(#788);
#788 = FILL_AREA_STYLE('',(#789));
#789 = FILL_AREA_STYLE_COLOUR('',#564);
#790 = CURVE_STYLE('',#791,POSITIVE_LENGTH_MEASURE(0.1),#564);
#791 = DRAUGHTING_PRE_DEFINED_CURVE_FONT('continuous');
#792 = STYLED_ITEM('color',(#793),#241);
#793 = PRESENTATION_STYLE_ASSIGNMENT((#794,#799));
#794 = SURFACE_STYLE_USAGE(.BOTH.,#795);
#795 = SURFACE_SIDE_STYLE('',(#796));
#796 = SURFACE_STYLE_FILL_AREA(#797);
#797 = FILL_AREA_STYLE('',(#798));
#798 = FILL_AREA_STYLE_COLOUR('',#564);
#799 = CURVE_STYLE('',#800,POSITIVE_LENGTH_MEASURE(0.1),#564);
#800 = DRAUGHTING_PRE_DEFINED_CURVE_FONT('continuous');
#801 = STYLED_ITEM('color',(#802),#249);
#802 = PRESENTATION_STYLE_ASSIGNMENT((#803,#808));
#803 = SURFACE_STYLE_USAGE(.BOTH.,#804);
#804 = SURFACE_SIDE_STYLE('',(#805));
#805 = SURFACE_STYLE_FILL_AREA(#806);
#806 = FILL_AREA_STYLE('',(#807));
#807 = FILL_AREA_STYLE_COLOUR('',#564);
#808 = CURVE_STYLE('',#809,POSITIVE_LENGTH_MEASURE(0.1),#564);
#809 = DRAUGHTING_PRE_DEFINED_CURVE_FONT('continuous');
#810 = STYLED_ITEM('color',(#811),#257);
#811 = PRESENTATION_STYLE_ASSIGNMENT((#812,#817));
#812 = SURFACE_STYLE_USAGE(.BOTH.,#813);
#813 = SURFACE_SIDE_STYLE('',(#814));
#814 = SURFACE_STYLE_FILL_AREA(#815);
#815 = FILL_AREA_STYLE('',(#816));
#816 = FILL_AREA_STYLE_COLOUR('',#564);
#817 = CURVE_STYLE('',#818,POSITIVE_LENGTH_MEASURE(0.1),#564);
#818 = DRAUGHTING_PRE_DEFINED_CURVE_FONT('continuous');
#819 = STYLED_ITEM('color',(#820),#265);
#820 = PRESENTATION_STYLE_ASSIGNMENT((#821,#826));
#821 = SURFACE_STYLE_USAGE(.BOTH.,#822);
#822 = SURFACE_SIDE_STYLE('',(#823));
#823 = SURFACE_STYLE_FILL_AREA(#824);
#824 = FILL_AREA_STYLE('',(#825));
#825 = FILL_AREA_STYLE_COLOUR('',#564);
#826 = CURVE_STYLE('',#827,POSITIVE_LENGTH_MEASURE(0.1),#564);
#827 = DRAUGHTING_PRE_DEFINED_CURVE_FONT('continuous');
#828 = STYLED_ITEM('color',(#829),#273);
#829 = PRESENTATION_STYLE_ASSIGNMENT((#830,#835));
#830 = SURFACE_STYLE_USAGE(.BOTH.,#831);
#831 = SURFACE_SIDE_STYLE('',(#832));
#832 = SURFACE_STYLE_FILL_AREA(#833);
#833 = FILL_AREA_STYLE('',(#834));
#834 = FILL_AREA_STYLE_COLOUR('',#564);
#835 = CURVE_STYLE('',#836,POSITIVE_LENGTH_MEASURE(0.1),#564);
#836 = DRAUGHTING_PRE_DEFINED_CURVE_FONT('continuous');
#837 = STYLED_ITEM('color',(#838),#281);
#838 = PRESENTATION_STYLE_ASSIGNMENT((#839,#844));
#839 = SURFACE_STYLE_USAGE(.BOTH.,#840);
#840 = SURFACE_SIDE_STYLE('',(#841));
#841 = SURFACE_STYLE_FILL_AREA(#842);
#842 = FILL_AREA_STYLE('',(#843));
#843 = FILL_AREA_STYLE_COLOUR('',#564);
#844 = CURVE_STYLE('',#845,POSITIVE_LENGTH_MEASURE(0.1),#564);
#845 = DRAUGHTING_PRE_DEFINED_CURVE_FONT('continuous');
#846 = STYLED_ITEM('color',(#847),#289);
#847 = PRESENTATION_STYLE_ASSIGNMENT((#848,#853));
#848 = SURFACE_STYLE_USAGE(.BOTH.,#849);
#849 = SURFACE_SIDE_STYLE('',(#850));
#850 = SURFACE_STYLE_FILL_AREA(#851);
#851 = FILL_AREA_STYLE('',(#852));
#852 = FILL_AREA_STYLE_COLOUR('',#564);
#853 = CURVE_STYLE('',#854,POSITIVE_LENGTH_MEASURE(0.1),#564);
#854 = DRAUGHTING_PRE_DEFINED_CURVE_FONT('continuous');
#855 = STYLED_ITEM('color',(#856),#297);
#856 = PRESENTATION_STYLE_ASSIGNMENT((#857,#862));
#857 = SURFACE_STYLE_USAGE(.BOTH.,#858);
#858 = SURFACE_SIDE_STYLE('',(#859));
#859 = SURFACE_STYLE_FILL_AREA(#860);
#860 = FILL_AREA_STYLE('',(#861));
#861 = FILL_AREA_STYLE_COLOUR('',#564);
#862 = CURVE_STYLE('',#863,POSITIVE_LENGTH_MEASURE(0.1),#564);
#863 = DRAUGHTING_PRE_DEFINED_CURVE_FONT('continuous');
#864 = STYLED_ITEM('color',(#865),#305);
#865 = PRESENTATION_STYLE_ASSIGNMENT((#866,#871));
#866 = SURFACE_STYLE_USAGE(.BOTH.,#867);
#867 = SURFACE_SIDE_STYLE('',(#868));
#868 = SURFACE_STYLE_FILL_AREA(#869);
#869 = FILL_AREA_STYLE('',(#870));
#870 = FILL_AREA_STYLE_COLOUR('',#564);
#871 = CURVE_STYLE('',#872,POSITIVE_LENGTH_MEASURE(0.1),#564);
#872 = DRAUGHTING_PRE_DEFINED_CURVE_FONT('continuous');
#873 = STYLED_ITEM('color',(#874),#313);
#874 = PRESENTATION_STYLE_ASSIGNMENT((#875,#880));
#875 = SURFACE_STYLE_USAGE(.BOTH.,#876);
#876 = SURFACE_SIDE_STYLE('',(#877));
#877 = SURFACE_STYLE_FILL_AREA(#878);
#878 = FILL_AREA_STYLE('',(#879));
#879 = FILL_AREA_STYLE_COLOUR('',#564);
#880 = CURVE_STYLE('',#881,POSITIVE_LENGTH_MEASURE(0.1),#564);
#881 = DRAUGHTING_PRE_DEFINED_CURVE_FONT('continuous');
#882 = STYLED_ITEM('color',(#883),#321);
#883 = PRESENTATION_STYLE_ASSIGNMENT((#884,#889));
#884 = SURFACE_STYLE_USAGE(.BOTH.,#885);
#885 = SURFACE_SIDE_STYLE('',(#886));
#886 = SURFACE_STYLE_FILL_AREA(#887);
#887 = FILL_AREA_STYLE('',(#888));
#888 = FILL_AREA_STYLE_COLOUR('',#564);
#889 = CURVE_STYLE('',#890,POSITIVE_LENGTH_MEASURE(0.1),#564);
#890 = DRAUGHTING_PRE_DEFINED_CURVE_FONT('continuous');
#891 = STYLED_ITEM('color',(#892),#329);
#892 = PRESENTATION_STYLE_ASSIGNMENT((#893,#898));
#893 = SURFACE_STYLE_USAGE(.BOTH.,#894);
#894 = SURFACE_SIDE_STYLE('',(#895));
#895 = SURFACE_STYLE_FILL_AREA(#896);
#896 = FILL_AREA_STYLE('',(#897));
#897 = FILL_AREA_STYLE_COLOUR('',#564);
#898 = CURVE_STYLE('',#899,POSITIVE_LENGTH_MEASURE(0.1),#564);
#899 = DRAUGHTING_PRE_DEFINED_CURVE_FONT('continuous');
#900 = STYLED_ITEM('color',(#901),#337);
#901 = PRESENTATION_STYLE_ASSIGNMENT((#902,#907));
#902 = SURFACE_STYLE_USAGE(.BOTH.,#903);
#903 = SURFACE_SIDE_STYLE('',(#904));
#904 = SURFACE_STYLE_FILL_AREA(#905);
#905 = FILL_AREA_STYLE('',(#906));
#906 = FILL_AREA_STYLE_COLOUR('',#564);
#907 = CURVE_STYLE('',#908,POSITIVE_LENGTH_MEASURE(0.1),#564);
#908 = DRAUGHTING_PRE_DEFINED_CURVE_FONT('continuous');
#909 = STYLED_ITEM('color',(#910),#345);
#910 = PRESENTATION_STYLE_ASSIGNMENT((#911,#916));
#911 = SURFACE_STYLE_USAGE(.BOTH.,#912);
#912 = SURFACE_SIDE_STYLE('',(#913));
#913 = SURFACE_STYLE_FILL_AREA(#914);
#914 = FILL_AREA_STYLE('',(#915));
#915 = FILL_AREA_STYLE_COLOUR('',#564);
#916 = CURVE_STYLE('',#917,POSITIVE_LENGTH_MEASURE(0.1),#564);
#917 = DRAUGHTING_PRE_DEFINED_CURVE_FONT('continuous');
#918 = STYLED_ITEM('color',(#919),#353);
#919 = PRESENTATION_STYLE_ASSIGNMENT((#920,#925));
#920 = SURFACE_STYLE_USAGE(.BOTH.,#921);
#921 = SURFACE_SIDE_STYLE('',(#922));
#922 = SURFACE_STYLE_FILL_AREA(#923);
#923 = FILL_AREA_STYLE('',(#924));
#924 = FILL_AREA_STYLE_COLOUR('',#564);
#925 = CURVE_STYLE('',#926,POSITIVE_LENGTH_MEASURE(0.1),#564);
#926 = DRAUGHTING_PRE_DEFINED_CURVE_FONT('continuous');
#927 = STYLED_ITEM('color',(#928),#361);
#928 = PRESENTATION_STYLE_ASSIGNMENT((#929,#934));
#929 = SURFACE_STYLE_USAGE(.BOTH.,#930);
#930 = SURFACE_SIDE_STYLE('',(#931));
#931 = SURFACE_STYLE_FILL_AREA(#932);
#932 = FILL_AREA_STYLE('',(#933));
#933 = FILL_AREA_STYLE_COLOUR('',#564);
#934 = CURVE_STYLE('',#935,POSITIVE_LENGTH_MEASURE(0.1),#564);
#935 = DRAUGHTING_PRE_DEFINED_CURVE_FONT('continuous');
#936 = STYLED_ITEM('color',(#937),#369);
#937 = PRESENTATION_STYLE_ASSIGNMENT((#938,#943));
#938 = SURFACE_STYLE_USAGE(.BOTH.,#939);
#939 = SURFACE_SIDE_STYLE('',(#940));
#940 = SURFACE_STYLE_FILL_AREA(#941);
#941 = FILL_AREA_STYLE('',(#942));
#942 = FILL_AREA_STYLE_COLOUR('',#564);
#943 = CURVE_STYLE('',#944,POSITIVE_LENGTH_MEASURE(0.1),#564);
#944 = DRAUGHTING_PRE_DEFINED_CURVE_FONT('continuous');
#945 = STYLED_ITEM('color',(#946),#377);
#946 = PRESENTATION_STYLE_ASSIGNMENT((#947,#952));
#947 = SURFACE_STYLE_USAGE(.BOTH.,#948);
#948 = SURFACE_SIDE_STYLE('',(#949));
#949 = SURFACE_STYLE_FILL_AREA(#950);
#950 = FILL_AREA_STYLE('',(#951));
#951 = FILL_AREA_STYLE_COLOUR('',#564);
#952 = CURVE_STYLE('',#953,POSITIVE_LENGTH_MEASURE(0.1),#564);
#953 = DRAUGHTING_PRE_DEFINED_CURVE_FONT('continuous');
#954 = STYLED_ITEM('color',(#955),#385);
#955 = PRESENTATION_STYLE_ASSIGNMENT((#956,#961));
#956 = SURFACE_STYLE_USAGE(.BOTH.,#957);
#957 = SURFACE_SIDE_STYLE('',(#958));
#958 = SURFACE_STYLE_FILL_AREA(#959);
#959 = FILL_AREA_STYLE('',(#960));
#960 = FILL_AREA_STYLE_COLOUR('',#564);
#961 = CURVE_STYLE('',#962,POSITIVE_LENGTH_MEASURE(0.1),#564);
#962 = DRAUGHTING_PRE_DEFINED_CURVE_FONT('continuous');
#963 = STYLED_ITEM('color',(#964),#393);
#964 = PRESENTATION_STYLE_ASSIGNMENT((#965,#970));
#965 = SURFACE_STYLE_USAGE(.BOTH.,#966);
#966 = SURFACE_SIDE_STYLE('',(#967));
#967 = SURFACE_STYLE_FILL_AREA(#968);
#968 = FILL_AREA_STYLE('',(#969));
#969 = FILL_AREA_STYLE_COLOUR('',#564);
#970 = CURVE_STYLE('',#971,POSITIVE_LENGTH_MEASURE(0.1),#564);
#971 = DRAUGHTING_PRE_DEFINED_CURVE_FONT('continuous');
#972 = STYLED_ITEM('color',(#973),#401);
#973 = PRESENTATION_STYLE_ASSIGNMENT((#974,#979));
#974 = SURFACE_STYLE_USAGE(.BOTH.,#975);
#975 = SURFACE_SIDE_STYLE('',(#976));
#976 = SURFACE_STYLE_FILL_AREA(#977);
#977 = FILL_AREA_STYLE('',(#978));
#978 = FILL_AREA_STYLE_COLOUR('',#564);
#979 = CURVE_STYLE('',#980,POSITIVE_LENGTH_MEASURE(0.1),#564);
#980 = DRAUGHTING_PRE_DEFINED_CURVE_FONT('continuous');
#981 = STYLED_ITEM('color',(#982),#409);
#982 = PRESENTATION_STYLE_ASSIGNMENT((#983,#988));
#983 = SURFACE_STYLE_USAGE(.BOTH.,#984);
#984 = SURFACE_SIDE_STYLE('',(#985));
#985 = SURFACE_STYLE_FILL_AREA(#986);
#986 = FILL_AREA_STYLE('',(#987));
#987 = FILL_AREA_STYLE_COLOUR('',#564);
#988 = CURVE_STYLE('',#989,POSITIVE_LENGTH_MEASURE(0.1),#564);
#989 = DRAUGHTING_PRE_DEFINED_CURVE_FONT('continuous');
#990 = STYLED_ITEM('color',(#991),#417);
#991 = PRESENTATION_STYLE_ASSIGNMENT((#992,#997));
#992 = SURFACE_STYLE_USAGE(.BOTH.,#993);
#993 = SURFACE_SIDE_STYLE('',(#994));
#994 = SURFACE_STYLE_FILL_AREA(#995);
#995 = FILL_AREA_STYLE('',(#996));
#996 = FILL_AREA_STYLE_COLOUR('',#564);
#997 = CURVE_STYLE('',#998,POSITIVE_LENGTH_MEASURE(0.1),#564);
#998 = DRAUGHTING_PRE_DEFINED_CURVE_FONT('continuous');
#999 = STYLED_ITEM('color',(#1000),#425);
#1000 = PRESENTATION_STYLE_ASSIGNMENT((#1001,#1006));
#1001 = SURFACE_STYLE_USAGE(.BOTH.,#1002);
#1002 = SURFACE_SIDE_STYLE('',(#1003));
#1003 = SURFACE_STYLE_FILL_AREA(#1004);
#1004 = FILL_AREA_STYLE('',(#1005));
#1005 = FILL_AREA_STYLE_COLOUR('',#564);
#1006 = CURVE_STYLE('',#1007,POSITIVE_LENGTH_MEASURE(0.1),#564);
#1007 = DRAUGHTING_PRE_DEFINED_CURVE_FONT('continuous');
#1008 = STYLED_ITEM('color',(#1009),#433);
#1009 = PRESENTATION_STYLE_ASSIGNMENT((#1010,#1015));
#1010 = SURFACE_STYLE_USAGE(.BOTH.,#1011);
#1011 = SURFACE_SIDE_STYLE('',(#1012));
#1012 = SURFACE_STYLE_FILL_AREA(#1013);
#1013 = FILL_AREA_STYLE('',(#1014));
#1014 = FILL_AREA_STYLE_COLOUR('',#564);
#1015 = CURVE_STYLE('',#1016,POSITIVE_LENGTH_MEASURE(0.1),#564);
#1016 = DRAUGHTING_PRE_DEFINED_CURVE_FONT('continuous');
#1017 = STYLED_ITEM('color',(#1018),#441);
#1018 = PRESENTATION_STYLE_ASSIGNMENT((#1019,#1024));
#1019 = SURFACE_STYLE_USAGE(.BOTH.,#1020);
#1020 = SURFACE_SIDE_STYLE('',(#1021));
#1021 = SURFACE_STYLE_FILL_AREA(#1022);
#1022 = FILL_AREA_STYLE('',(#1023));
#1023 = FILL_AREA_STYLE_COLOUR('',#564);
#1024 = CURVE_STYLE('',#1025,POSITIVE_LENGTH_MEASURE(0.1),#564);
#1025 = DRAUGHTING_PRE_DEFINED_CURVE_FONT('continuous');
#1026 = STYLED_ITEM('color',(#1027),#449);
#1027 = PRESENTATION_STYLE_ASSIGNMENT((#1028,#1033));
#1028 = SURFACE_STYLE_USAGE(.BOTH.,#1029);
#1029 = SURFACE_SIDE_STYLE('',(#1030));
#1030 = SURFACE_STYLE_FILL_AREA(#1031);
#1031 = FILL_AREA_STYLE('',(#1032));
#1032 = FILL_AREA_STYLE_COLOUR('',#564);
#1033 = CURVE_STYLE('',#1034,POSITIVE_LENGTH_MEASURE(0.1),#564);
#1034 = DRAUGHTING_PRE_DEFINED_CURVE_FONT('continuous');
#1035 = STYLED_ITEM('color',(#1036),#457);
#1036 = PRESENTATION_STYLE_ASSIGNMENT((#1037,#1042));
#1037 = SURFACE_STYLE_USAGE(.BOTH.,#1038);
#1038 = SURFACE_SIDE_STYLE('',(#1039));
#1039 = SURFACE_STYLE_FILL_AREA(#1040);
#1040 = FILL_AREA_STYLE('',(#1041));
#1041 = FILL_AREA_STYLE_COLOUR('',#564);
#1042 = CURVE_STYLE('',#1043,POSITIVE_LENGTH_MEASURE(0.1),#564);
#1043 = DRAUGHTING_PRE_DEFINED_CURVE_FONT('continuous');
#1044 = STYLED_ITEM('color',(#1045),#465);
#1045 = PRESENTATION_STYLE_ASSIGNMENT((#1046,#1051));
#1046 = SURFACE_STYLE_USAGE(.BOTH.,#1047);
#1047 = SURFACE_SIDE_STYLE('',(#1048));
#1048 = SURFACE_STYLE_FILL_AREA(#1049);
#1049 = FILL_AREA_STYLE('',(#1050));
#1050 = FILL_AREA_STYLE_COLOUR('',#564);
#1051 = CURVE_STYLE('',#1052,POSITIVE_LENGTH_MEASURE(0.1),#564);
#1052 = DRAUGHTING_PRE_DEFINED_CURVE_FONT('continuous');
#1053 = STYLED_ITEM('color',(#1054),#473);
#1054 = PRESENTATION_STYLE_ASSIGNMENT((#1055,#1060));
#1055 = SURFACE_STYLE_USAGE(.BOTH.,#1056);
#1056 = SURFACE_SIDE_STYLE('',(#1057));
#1057 = SURFACE_STYLE_FILL_AREA(#1058);
#1058 = FILL_AREA_STYLE('',(#1059));
#1059 = FILL_AREA_STYLE_COLOUR('',#564);
#1060 = CURVE_STYLE('',#1061,POSITIVE_LENGTH_MEASURE(0.1),#564);
#1061 = DRAUGHTING_PRE_DEFINED_CURVE_FONT('continuous');
#1062 = STYLED_ITEM('color',(#1063),#481);
#1063 = PRESENTATION_STYLE_ASSIGNMENT((#1064,#1069));
#1064 = SURFACE_STYLE_USAGE(.BOTH.,#1065);
#1065 = SURFACE_SIDE_STYLE('',(#1066));
#1066 = SURFACE_STYLE_FILL_AREA(#1067);
#1067 = FILL_AREA_STYLE('',(#1068));
#1068 = FILL_AREA_STYLE_COLOUR('',#564);
#1069 = CURVE_STYLE('',#1070,POSITIVE_LENGTH_MEASURE(0.1),#564);
#1070 = DRAUGHTING_PRE_DEFINED_CURVE_FONT('continuous');
#1071 = STYLED_ITEM('color',(#1072),#489);
#1072 = PRESENTATION_STYLE_ASSIGNMENT((#1073,#1078));
#1073 = SURFACE_STYLE_USAGE(.BOTH.,#1074);
#1074 = SURFACE_SIDE_STYLE('',(#1075));
#1075 = SURFACE_STYLE_FILL_AREA(#1076);
#1076 = FILL_AREA_STYLE('',(#1077));
#1077 = FILL_AREA_STYLE_COLOUR('',#564);
#1078 = CURVE_STYLE('',#1079,POSITIVE_LENGTH_MEASURE(0.1),#564);
#1079 = DRAUGHTING_PRE_DEFINED_CURVE_FONT('continuous');
#1080 = STYLED_ITEM('color',(#1081),#497);
#1081 = PRESENTATION_STYLE_ASSIGNMENT((#1082,#1087));
#1082 = SURFACE_STYLE_USAGE(.BOTH.,#1083);
#1083 = SURFACE_SIDE_STYLE('',(#1084));
#1084 = SURFACE_STYLE_FILL_AREA(#1085);
#1085 = FILL_AREA_STYLE('',(#1086));
#1086 = FILL_AREA_STYLE_COLOUR('',#564);
#1087 = CURVE_STYLE('',#1088,POSITIVE_LENGTH_MEASURE(0.1),#564);
#1088 = DRAUGHTING_PRE_DEFINED_CURVE_FONT('continuous');
#1089 = STYLED_ITEM('color',(#1090),#505);
#1090 = PRESENTATION_STYLE_ASSIGNMENT((#1091,#1096));
#1091 = SURFACE_STYLE_USAGE(.BOTH.,#1092);
#1092 = SURFACE_SIDE_STYLE('',(#1093));
#1093 = SURFACE_STYLE_FILL_AREA(#1094);
#1094 = FILL_AREA_STYLE('',(#1095));
#1095 = FILL_AREA_STYLE_COLOUR('',#564);
#1096 = CURVE_STYLE('',#1097,POSITIVE_LENGTH_MEASURE(0.1),#564);
#1097 = DRAUGHTING_PRE_DEFINED_CURVE_FONT('continuous');
#1098 = STYLED_ITEM('color',(#1099),#513);
#1099 = PRESENTATION_STYLE_ASSIGNMENT((#1100,#1105));
#1100 = SURFACE_STYLE_USAGE(.BOTH.,#1101);
#1101 = SURFACE_SIDE_STYLE('',(#1102));
#1102 = SURFACE_STYLE_FILL_AREA(#1103);
#1103 = FILL_AREA_STYLE('',(#1104));
#1104 = FILL_AREA_STYLE_COLOUR('',#564);
#1105 = CURVE_STYLE('',#1106,POSITIVE_LENGTH_MEASURE(0.1),#564);
#1106 = DRAUGHTING_PRE_DEFINED_CURVE_FONT('continuous');
#1107 = STYLED_ITEM('color',(#1108),#521);
#1108 = PRESENTATION_STYLE_ASSIGNMENT((#1109,#1114));
#1109 = SURFACE_STYLE_USAGE(.BOTH.,#1110);
#1110 = SURFACE_SIDE_STYLE('',(#1111));
#1111 = SURFACE_STYLE_FILL_AREA(#1112);
#1112 = FILL_AREA_STYLE('',(#1113));
#1113 = FILL_AREA_STYLE_COLOUR('',#564);
#1114 = CURVE_STYLE('',#1115,POSITIVE_LENGTH_MEASURE(0.1),#564);
#1115 = DRAUGHTING_PRE_DEFINED_CURVE_FONT('continuous');
#1116 = STYLED_ITEM('color',(#1117),#529);
#1117 = PRESENTATION_STYLE_ASSIGNMENT((#1118,#1123));
#1118 = SURFACE_STYLE_USAGE(.BOTH.,#1119);
#1119 = SURFACE_SIDE_STYLE('',(#1120));
#1120 = SURFACE_STYLE_FILL_AREA(#1121);
#1121 = FILL_AREA_STYLE('',(#1122));
#1122 = FILL_AREA_STYLE_COLOUR('',#564);
#1123 = CURVE_STYLE('',#1124,POSITIVE_LENGTH_MEASURE(0.1),#564);
#1124 = DRAUGHTING_PRE_DEFINED_CURVE_FONT('continuous');
#1125 = STYLED_ITEM('color',(#1126),#537);
#1126 = PRESENTATION_STYLE_ASSIGNMENT((#1127,#1132));
#1127 = SURFACE_STYLE_USAGE(.BOTH.,#1128);
#1128 = SURFACE_SIDE_STYLE('',(#1129));
#1129 = SURFACE_STYLE_FILL_AREA(#1130);
#1130 = FILL_AREA_STYLE('',(#1131));
#1131 = FILL_AREA_STYLE_COLOUR('',#564);
#1132 = CURVE_STYLE('',#1133,POSITIVE_LENGTH_MEASURE(0.1),#564);
#1133 = DRAUGHTING_PRE_DEFINED_CURVE_FONT('continuous');
ENDSEC;
END-ISO-10303-21;
