#usda 1.0
(
    defaultPrim = "Twin"
    metersPerUnit = 0.001
    upAxis = "Z"
)

def Xform "Twin" (
    kind = "component"
)
{
    custom string documentationStatus = "F1_documentary_proxy_not_simready"
    custom string physicsAssignment = "intentionally_absent"

    def Scope "Looks"
    {
        def Material "DocumentaryMaterial"
        {
            token outputs:surface.connect = </Twin/Looks/DocumentaryMaterial/PreviewSurface.outputs:surface>

            def Shader "PreviewSurface"
            {
                uniform token info:id = "UsdPreviewSurface"
                color3f inputs:diffuseColor = (0.48, 0.5, 0.53)
                float inputs:metallic = 0.85
                float inputs:roughness = 0.28
                token outputs:surface
            }
        }
    }

    def Mesh "Geometry" (
        prepend apiSchemas = ["MaterialBindingAPI"]
    )
    {
        uniform bool doubleSided = true
        float3[] extent = [(-127, -228.6, -228.6), (127, 228.6, 228.6)]
        int[] faceVertexCounts = [4, 4, 4, 4, 4, 4, 4, 4, 4, 4, 4, 4, 4, 4, 4, 4, 4, 4, 4, 4, 4, 4, 4, 4, 4, 4, 4, 4, 4, 4, 4, 4, 4, 4, 4, 4, 4, 4, 4, 4, 4, 4, 4, 4, 4, 4, 4, 4, 4, 4, 4, 4, 4, 4, 4, 4, 4, 4, 4, 4, 4, 4, 4, 4, 4, 4, 4, 4, 4, 4, 4, 4, 4, 4, 4, 4, 4, 4, 4, 4, 4, 4, 4, 4, 4, 4, 4, 4, 4, 4, 4, 4, 4, 4, 4, 4, 4, 4, 4, 4, 4, 4, 4, 4, 4, 4, 4, 4, 4, 4, 4, 4, 4, 4, 4, 4, 4, 4, 4, 4, 4, 4, 4, 4, 4, 4, 4, 4]
        int[] faceVertexIndices = [0, 1, 33, 32, 64, 96, 97, 65, 0, 64, 65, 1, 32, 33, 97, 96, 1, 2, 34, 33, 65, 97, 98, 66, 1, 65, 66, 2, 33, 34, 98, 97, 2, 3, 35, 34, 66, 98, 99, 67, 2, 66, 67, 3, 34, 35, 99, 98, 3, 4, 36, 35, 67, 99, 100, 68, 3, 67, 68, 4, 35, 36, 100, 99, 4, 5, 37, 36, 68, 100, 101, 69, 4, 68, 69, 5, 36, 37, 101, 100, 5, 6, 38, 37, 69, 101, 102, 70, 5, 69, 70, 6, 37, 38, 102, 101, 6, 7, 39, 38, 70, 102, 103, 71, 6, 70, 71, 7, 38, 39, 103, 102, 7, 8, 40, 39, 71, 103, 104, 72, 7, 71, 72, 8, 39, 40, 104, 103, 8, 9, 41, 40, 72, 104, 105, 73, 8, 72, 73, 9, 40, 41, 105, 104, 9, 10, 42, 41, 73, 105, 106, 74, 9, 73, 74, 10, 41, 42, 106, 105, 10, 11, 43, 42, 74, 106, 107, 75, 10, 74, 75, 11, 42, 43, 107, 106, 11, 12, 44, 43, 75, 107, 108, 76, 11, 75, 76, 12, 43, 44, 108, 107, 12, 13, 45, 44, 76, 108, 109, 77, 12, 76, 77, 13, 44, 45, 109, 108, 13, 14, 46, 45, 77, 109, 110, 78, 13, 77, 78, 14, 45, 46, 110, 109, 14, 15, 47, 46, 78, 110, 111, 79, 14, 78, 79, 15, 46, 47, 111, 110, 15, 16, 48, 47, 79, 111, 112, 80, 15, 79, 80, 16, 47, 48, 112, 111, 16, 17, 49, 48, 80, 112, 113, 81, 16, 80, 81, 17, 48, 49, 113, 112, 17, 18, 50, 49, 81, 113, 114, 82, 17, 81, 82, 18, 49, 50, 114, 113, 18, 19, 51, 50, 82, 114, 115, 83, 18, 82, 83, 19, 50, 51, 115, 114, 19, 20, 52, 51, 83, 115, 116, 84, 19, 83, 84, 20, 51, 52, 116, 115, 20, 21, 53, 52, 84, 116, 117, 85, 20, 84, 85, 21, 52, 53, 117, 116, 21, 22, 54, 53, 85, 117, 118, 86, 21, 85, 86, 22, 53, 54, 118, 117, 22, 23, 55, 54, 86, 118, 119, 87, 22, 86, 87, 23, 54, 55, 119, 118, 23, 24, 56, 55, 87, 119, 120, 88, 23, 87, 88, 24, 55, 56, 120, 119, 24, 25, 57, 56, 88, 120, 121, 89, 24, 88, 89, 25, 56, 57, 121, 120, 25, 26, 58, 57, 89, 121, 122, 90, 25, 89, 90, 26, 57, 58, 122, 121, 26, 27, 59, 58, 90, 122, 123, 91, 26, 90, 91, 27, 58, 59, 123, 122, 27, 28, 60, 59, 91, 123, 124, 92, 27, 91, 92, 28, 59, 60, 124, 123, 28, 29, 61, 60, 92, 124, 125, 93, 28, 92, 93, 29, 60, 61, 125, 124, 29, 30, 62, 61, 93, 125, 126, 94, 29, 93, 94, 30, 61, 62, 126, 125, 30, 31, 63, 62, 94, 126, 127, 95, 30, 94, 95, 31, 62, 63, 127, 126, 31, 0, 32, 63, 95, 127, 96, 64, 31, 95, 64, 0, 63, 32, 96, 127]
        rel material:binding = </Twin/Looks/DocumentaryMaterial>
        point3f[] points = [
            (-127, 228.6, 0),
            (-127, 224.207515, 44.597648),
            (-127, 211.198861, 87.481433),
            (-127, 190.073953, 127.003355),
            (-127, 161.64461, 161.64461),
            (-127, 127.003355, 190.073953),
            (-127, 87.481433, 211.198861),
            (-127, 44.597648, 224.207515),
            (-127, 0, 228.6),
            (-127, -44.597648, 224.207515),
            (-127, -87.481433, 211.198861),
            (-127, -127.003355, 190.073953),
            (-127, -161.64461, 161.64461),
            (-127, -190.073953, 127.003355),
            (-127, -211.198861, 87.481433),
            (-127, -224.207515, 44.597648),
            (-127, -228.6, 0),
            (-127, -224.207515, -44.597648),
            (-127, -211.198861, -87.481433),
            (-127, -190.073953, -127.003355),
            (-127, -161.64461, -161.64461),
            (-127, -127.003355, -190.073953),
            (-127, -87.481433, -211.198861),
            (-127, -44.597648, -224.207515),
            (-127, 0, -228.6),
            (-127, 44.597648, -224.207515),
            (-127, 87.481433, -211.198861),
            (-127, 127.003355, -190.073953),
            (-127, 161.64461, -161.64461),
            (-127, 190.073953, -127.003355),
            (-127, 211.198861, -87.481433),
            (-127, 224.207515, -44.597648),
            (127, 228.6, 0),
            (127, 224.207515, 44.597648),
            (127, 211.198861, 87.481433),
            (127, 190.073953, 127.003355),
            (127, 161.64461, 161.64461),
            (127, 127.003355, 190.073953),
            (127, 87.481433, 211.198861),
            (127, 44.597648, 224.207515),
            (127, 0, 228.6),
            (127, -44.597648, 224.207515),
            (127, -87.481433, 211.198861),
            (127, -127.003355, 190.073953),
            (127, -161.64461, 161.64461),
            (127, -190.073953, 127.003355),
            (127, -211.198861, 87.481433),
            (127, -224.207515, 44.597648),
            (127, -228.6, 0),
            (127, -224.207515, -44.597648),
            (127, -211.198861, -87.481433),
            (127, -190.073953, -127.003355),
            (127, -161.64461, -161.64461),
            (127, -127.003355, -190.073953),
            (127, -87.481433, -211.198861),
            (127, -44.597648, -224.207515),
            (127, 0, -228.6),
            (127, 44.597648, -224.207515),
            (127, 87.481433, -211.198861),
            (127, 127.003355, -190.073953),
            (127, 161.64461, -161.64461),
            (127, 190.073953, -127.003355),
            (127, 211.198861, -87.481433),
            (127, 224.207515, -44.597648),
            (-127, 35.75, 0),
            (-127, 35.063074, 6.974479),
            (-127, 33.028693, 13.680933),
            (-127, 29.725039, 19.861636),
            (-127, 25.279067, 25.279067),
            (-127, 19.861636, 29.725039),
            (-127, 13.680933, 33.028693),
            (-127, 6.974479, 35.063074),
            (-127, 0, 35.75),
            (-127, -6.974479, 35.063074),
            (-127, -13.680933, 33.028693),
            (-127, -19.861636, 29.725039),
            (-127, -25.279067, 25.279067),
            (-127, -29.725039, 19.861636),
            (-127, -33.028693, 13.680933),
            (-127, -35.063074, 6.974479),
            (-127, -35.75, 0),
            (-127, -35.063074, -6.974479),
            (-127, -33.028693, -13.680933),
            (-127, -29.725039, -19.861636),
            (-127, -25.279067, -25.279067),
            (-127, -19.861636, -29.725039),
            (-127, -13.680933, -33.028693),
            (-127, -6.974479, -35.063074),
            (-127, 0, -35.75),
            (-127, 6.974479, -35.063074),
            (-127, 13.680933, -33.028693),
            (-127, 19.861636, -29.725039),
            (-127, 25.279067, -25.279067),
            (-127, 29.725039, -19.861636),
            (-127, 33.028693, -13.680933),
            (-127, 35.063074, -6.974479),
            (127, 35.75, 0),
            (127, 35.063074, 6.974479),
            (127, 33.028693, 13.680933),
            (127, 29.725039, 19.861636),
            (127, 25.279067, 25.279067),
            (127, 19.861636, 29.725039),
            (127, 13.680933, 33.028693),
            (127, 6.974479, 35.063074),
            (127, 0, 35.75),
            (127, -6.974479, 35.063074),
            (127, -13.680933, 33.028693),
            (127, -19.861636, 29.725039),
            (127, -25.279067, 25.279067),
            (127, -29.725039, 19.861636),
            (127, -33.028693, 13.680933),
            (127, -35.063074, 6.974479),
            (127, -35.75, 0),
            (127, -35.063074, -6.974479),
            (127, -33.028693, -13.680933),
            (127, -29.725039, -19.861636),
            (127, -25.279067, -25.279067),
            (127, -19.861636, -29.725039),
            (127, -13.680933, -33.028693),
            (127, -6.974479, -35.063074),
            (127, 0, -35.75),
            (127, 6.974479, -35.063074),
            (127, 13.680933, -33.028693),
            (127, 19.861636, -29.725039),
            (127, 25.279067, -25.279067),
            (127, 29.725039, -19.861636),
            (127, 33.028693, -13.680933),
            (127, 35.063074, -6.974479)
        ]
        uniform token purpose = "proxy"
        uniform token subdivisionScheme = "none"
    }
}
