ISO-10303-21;
HEADER;
FILE_DESCRIPTION(('Open CASCADE Model'),'2;1');
FILE_NAME('Open CASCADE Shape Model','2026-10-05T08:08:35',('Author'),(
    'Open CASCADE'),'Open CASCADE STEP processor 7.9','build123d',
  'Unknown');
FILE_SCHEMA(('AUTOMOTIVE_DESIGN { 1 0 10303 214 1 1 1 1 }'));
ENDSEC;
DATA;
#1 = APPLICATION_PROTOCOL_DEFINITION('international standard',
  'automotive_design',2000,#2);
#2 = APPLICATION_CONTEXT(
  'core data for automotive mechanical design processes');
#3 = SHAPE_DEFINITION_REPRESENTATION(#4,#10);
#4 = PRODUCT_DEFINITION_SHAPE('','',#5);
#5 = PRODUCT_DEFINITION('design','',#6,#9);
#6 = PRODUCT_DEFINITION_FORMATION('','',#7);
#7 = PRODUCT('SOLID','SOLID','',(#8));
#8 = PRODUCT_CONTEXT('',#2,'mechanical');
#9 = PRODUCT_DEFINITION_CONTEXT('part definition',#2,'design');
#10 = ADVANCED_BREP_SHAPE_REPRESENTATION('',(#11,#15),#1219);
#11 = AXIS2_PLACEMENT_3D('',#12,#13,#14);
#12 = CARTESIAN_POINT('',(0.,0.,0.));
#13 = DIRECTION('',(0.,0.,1.));
#14 = DIRECTION('',(1.,0.,-0.));
#15 = MANIFOLD_SOLID_BREP('',#16);
#16 = CLOSED_SHELL('',(#17,#604,#1108,#1138,#1168));
#17 = ADVANCED_FACE('',(#18),#32,.T.);
#18 = FACE_BOUND('',#19,.T.);
#19 = EDGE_LOOP('',(#20,#50,#77,#78,#319,#342,#369,#370));
#20 = ORIENTED_EDGE('',*,*,#21,.T.);
#21 = EDGE_CURVE('',#22,#24,#26,.T.);
#22 = VERTEX_POINT('',#23);
#23 = CARTESIAN_POINT('',(147.29189189189,-1.65684782356E-14,-73.25));
#24 = VERTEX_POINT('',#25);
#25 = CARTESIAN_POINT('',(141.9,-3.47554761598E-14,-49.5));
#26 = SEAM_CURVE('',#27,(#31,#43),.PCURVE_S1.);
#27 = LINE('',#28,#29);
#28 = CARTESIAN_POINT('',(165.,-4.041334437186E-14,-151.25));
#29 = VECTOR('',#30,1.);
#30 = DIRECTION('',(-0.221393262767,5.422571012E-17,0.975184609806));
#31 = PCURVE('',#32,#37);
#32 = CONICAL_SURFACE('',#33,165.,0.223242956285);
#33 = AXIS2_PLACEMENT_3D('',#34,#35,#36);
#34 = CARTESIAN_POINT('',(0.,0.,-151.25));
#35 = DIRECTION('',(-0.,-0.,-1.));
#36 = DIRECTION('',(1.,0.,-0.));
#37 = DEFINITIONAL_REPRESENTATION('',(#38),#42);
#38 = LINE('',#39,#40);
#39 = CARTESIAN_POINT('',(-6.28318530718,0.));
#40 = VECTOR('',#41,1.);
#41 = DIRECTION('',(-0.,-1.));
#42 = ( GEOMETRIC_REPRESENTATION_CONTEXT(2) 
PARAMETRIC_REPRESENTATION_CONTEXT() REPRESENTATION_CONTEXT('2D SPACE',''
  ) );
#43 = PCURVE('',#32,#44);
#44 = DEFINITIONAL_REPRESENTATION('',(#45),#49);
#45 = LINE('',#46,#47);
#46 = CARTESIAN_POINT('',(0.,-0.));
#47 = VECTOR('',#48,1.);
#48 = DIRECTION('',(-0.,-1.));
#49 = ( GEOMETRIC_REPRESENTATION_CONTEXT(2) 
PARAMETRIC_REPRESENTATION_CONTEXT() REPRESENTATION_CONTEXT('2D SPACE',''
  ) );
#50 = ORIENTED_EDGE('',*,*,#51,.F.);
#51 = EDGE_CURVE('',#24,#24,#52,.T.);
#52 = SURFACE_CURVE('',#53,(#58,#65),.PCURVE_S1.);
#53 = CIRCLE('',#54,141.9);
#54 = AXIS2_PLACEMENT_3D('',#55,#56,#57);
#55 = CARTESIAN_POINT('',(0.,0.,-49.5));
#56 = DIRECTION('',(0.,0.,1.));
#57 = DIRECTION('',(1.,0.,-0.));
#58 = PCURVE('',#32,#59);
#59 = DEFINITIONAL_REPRESENTATION('',(#60),#64);
#60 = LINE('',#61,#62);
#61 = CARTESIAN_POINT('',(-0.,-101.75));
#62 = VECTOR('',#63,1.);
#63 = DIRECTION('',(-1.,-0.));
#64 = ( GEOMETRIC_REPRESENTATION_CONTEXT(2) 
PARAMETRIC_REPRESENTATION_CONTEXT() REPRESENTATION_CONTEXT('2D SPACE',''
  ) );
#65 = PCURVE('',#66,#71);
#66 = PLANE('',#67);
#67 = AXIS2_PLACEMENT_3D('',#68,#69,#70);
#68 = CARTESIAN_POINT('',(0.,0.,-49.5));
#69 = DIRECTION('',(0.,0.,1.));
#70 = DIRECTION('',(1.,0.,-0.));
#71 = DEFINITIONAL_REPRESENTATION('',(#72),#76);
#72 = CIRCLE('',#73,141.9);
#73 = AXIS2_PLACEMENT_2D('',#74,#75);
#74 = CARTESIAN_POINT('',(0.,0.));
#75 = DIRECTION('',(1.,0.));
#76 = ( GEOMETRIC_REPRESENTATION_CONTEXT(2) 
PARAMETRIC_REPRESENTATION_CONTEXT() REPRESENTATION_CONTEXT('2D SPACE',''
  ) );
#77 = ORIENTED_EDGE('',*,*,#21,.F.);
#78 = ORIENTED_EDGE('',*,*,#79,.F.);
#79 = EDGE_CURVE('',#80,#22,#82,.T.);
#80 = VERTEX_POINT('',#81);
#81 = CARTESIAN_POINT('',(152.74054054054,-3.74106428146E-14,-97.25));
#82 = SURFACE_CURVE('',#83,(#158,#236),.PCURVE_S1.);
#83 = B_SPLINE_CURVE_WITH_KNOTS('',7,(#84,#85,#86,#87,#88,#89,#90,#91,
    #92,#93,#94,#95,#96,#97,#98,#99,#100,#101,#102,#103,#104,#105,#106,
    #107,#108,#109,#110,#111,#112,#113,#114,#115,#116,#117,#118,#119,
    #120,#121,#122,#123,#124,#125,#126,#127,#128,#129,#130,#131,#132,
    #133,#134,#135,#136,#137,#138,#139,#140,#141,#142,#143,#144,#145,
    #146,#147,#148,#149,#150,#151,#152,#153,#154,#155,#156,#157),
  .UNSPECIFIED.,.F.,.F.,(8,6,6,6,6,6,6,6,6,6,6,6,8),(0.,
    8.704642633826E-02,0.144104164588,0.222622112699,0.288269813988,
    0.341167681787,0.489972172939,0.638858206803,0.693530585385,
    0.76250662103,0.845586327744,0.906740773302,1.),.UNSPECIFIED.);
#84 = CARTESIAN_POINT('',(152.74054054054,-3.74106428146E-14,-97.25));
#85 = CARTESIAN_POINT('',(152.74054054054,0.58342540091,-97.25));
#86 = CARTESIAN_POINT('',(152.73042758304,1.16710432437,-97.21690692469)
  );
#87 = CARTESIAN_POINT('',(152.71018593429,1.745357946725,-97.15066951767
    ));
#88 = CARTESIAN_POINT('',(152.68025766081,2.313554007948,-97.05259188045
    ));
#89 = CARTESIAN_POINT('',(152.64136265373,2.867912635677,-96.92474758446
    ));
#90 = CARTESIAN_POINT('',(152.59439406409,3.405415437732,-96.76972036646
    ));
#91 = CARTESIAN_POINT('',(152.50489884593,4.263478995969,-96.47283361076
    ));
#92 = CARTESIAN_POINT('',(152.46639951126,4.595146806349,-96.34478111958
    ));
#93 = CARTESIAN_POINT('',(152.42508982444,4.918235622735,-96.20696026819
    ));
#94 = CARTESIAN_POINT('',(152.38122478999,5.23240917024,-96.06010613893)
  );
#95 = CARTESIAN_POINT('',(152.33504995449,5.537462241504,-95.90492598703
    ));
#96 = CARTESIAN_POINT('',(152.28679364175,5.833297135523,-95.74207633533
    ));
#97 = CARTESIAN_POINT('',(152.16767596962,6.51431613649,-95.33830635655)
  );
#98 = CARTESIAN_POINT('',(152.09514907423,6.89119754949,-95.09109449636)
  );
#99 = CARTESIAN_POINT('',(152.01961204321,7.250601125235,-94.83202271173
    ));
#100 = CARTESIAN_POINT('',(151.94154081568,7.592715079396,
    -94.56245046567));
#101 = CARTESIAN_POINT('',(151.86135308234,7.917838874636,-94.2835702442
    ));
#102 = CARTESIAN_POINT('',(151.77940448226,8.226355586398,
    -93.99639178529));
#103 = CARTESIAN_POINT('',(151.6262388302,8.763132701039,-93.45536083714
    ));
#104 = CARTESIAN_POINT('',(151.55547233092,8.996232334379,
    -93.20378885143));
#105 = CARTESIAN_POINT('',(151.48386011409,9.218245715168,-92.9475026621
    ));
#106 = CARTESIAN_POINT('',(151.41155859263,9.429404899757,
    -92.68694488758));
#107 = CARTESIAN_POINT('',(151.33870647667,9.629932598938,
    -92.42250894718));
#108 = CARTESIAN_POINT('',(151.26542547023,9.820043322482,
    -92.15453955498));
#109 = CARTESIAN_POINT('',(151.13251163704,10.144906034452,
    -91.66479948119));
#110 = CARTESIAN_POINT('',(151.07299391516,10.28323444642,
    -91.44417008907));
#111 = CARTESIAN_POINT('',(151.01332394254,10.415035602897,
    -91.22160384486));
#112 = CARTESIAN_POINT('',(150.95355332634,10.540406889727,
    -90.99724785818));
#113 = CARTESIAN_POINT('',(150.89372932474,10.659438015624,
    -90.7712377382));
#114 = CARTESIAN_POINT('',(150.83389503103,10.772211792518,
    -90.54369779111));
#115 = CARTESIAN_POINT('',(150.60585360809,11.178656992085,
    -89.6706743048));
#116 = CARTESIAN_POINT('',(150.43787917122,11.429540084292,
    -89.01552525871));
#117 = CARTESIAN_POINT('',(150.27099194752,11.633268075894,
    -88.3516500897));
#118 = CARTESIAN_POINT('',(150.1058885522,11.790952716001,
    -87.68114869286));
#119 = CARTESIAN_POINT('',(149.94315426571,11.903351095314,
    -87.00591319535));
#120 = CARTESIAN_POINT('',(149.78326942806,11.97085844917,
    -86.32762664292));
#121 = CARTESIAN_POINT('',(149.46988127007,12.015966067185,
    -84.96751470335));
#122 = CARTESIAN_POINT('',(149.31643573964,11.993509198244,
    -84.28592300829));
#123 = CARTESIAN_POINT('',(149.16666586172,11.926018704979,
    -83.60446882642));
#124 = CARTESIAN_POINT('',(149.02095708997,11.81300346935,
    -82.92484981824));
#125 = CARTESIAN_POINT('',(148.87968336708,11.653623484862,
    -82.24897392102));
#126 = CARTESIAN_POINT('',(148.74319633079,11.446706455663,
    -81.57896139681));
#127 = CARTESIAN_POINT('',(148.563581214,11.096379805102,-80.67416522783
    ));
#128 = CARTESIAN_POINT('',(148.5160324362,10.995644278949,
    -80.43227849996));
#129 = CARTESIAN_POINT('',(148.46919410736,10.888181326938,
    -80.19164306665));
#130 = CARTESIAN_POINT('',(148.42308476046,10.773900826668,
    -79.95239572456));
#131 = CARTESIAN_POINT('',(148.37772369514,10.652705755096,
    -79.71468532078));
#132 = CARTESIAN_POINT('',(148.33313082747,10.524491642607,
    -79.47867293959));
#133 = CARTESIAN_POINT('',(148.23406195857,10.218390624795,
    -78.94913415588));
#134 = CARTESIAN_POINT('',(148.18005442495,10.036290109982,
    -78.65672519817));
#135 = CARTESIAN_POINT('',(148.12734342841,9.842613778392,
    -78.36764596195));
#136 = CARTESIAN_POINT('',(148.07597383067,9.637123010719,
    -78.08229108496));
#137 = CARTESIAN_POINT('',(148.02599510777,9.41957107996,-77.8011095361)
  );
#138 = CARTESIAN_POINT('',(147.97746059222,9.189702958754,
    -77.52460505467));
#139 = CARTESIAN_POINT('',(147.87377572483,8.655233490646,
    -76.92660130695));
#140 = CARTESIAN_POINT('',(147.81930899095,8.344999741901,
    -76.60750501676));
#141 = CARTESIAN_POINT('',(147.76711994805,8.01607025981,-76.29699056818
    ));
#142 = CARTESIAN_POINT('',(147.71732614893,7.668021060329,
    -75.99622497292));
#143 = CARTESIAN_POINT('',(147.67006501659,7.300521282052,
    -75.70658157415));
#144 = CARTESIAN_POINT('',(147.62548959619,6.913366672208,
    -75.42962221541));
#145 = CARTESIAN_POINT('',(147.5530505862,6.207030716649,-74.97382331396
    ));
#146 = CARTESIAN_POINT('',(147.5238846765,5.896907578914,-74.78839978819
    ));
#147 = CARTESIAN_POINT('',(147.4963345079,5.576153791059,-74.61151278585
    ));
#148 = CARTESIAN_POINT('',(147.47047640172,5.244883748701,
    -74.44394436364));
#149 = CARTESIAN_POINT('',(147.4463922667,4.903335475936,-74.28653661379
    ));
#150 = CARTESIAN_POINT('',(147.4241668068,4.551898412832,-74.14016466987
    ));
#151 = CARTESIAN_POINT('',(147.37295502218,3.641015410968,
    -73.80064622769));
#152 = CARTESIAN_POINT('',(147.34652020026,3.068788993835,
    -73.62312152143));
#153 = CARTESIAN_POINT('',(147.32493252963,2.477155607259,
    -73.47655771586));
#154 = CARTESIAN_POINT('',(147.30848910251,1.869594790813,
    -73.36402663248));
#155 = CARTESIAN_POINT('',(147.29742127995,1.250462006037,
    -73.28798790649));
#156 = CARTESIAN_POINT('',(147.29189189189,0.62508522612,-73.25));
#157 = CARTESIAN_POINT('',(147.29189189189,2.939152317954E-15,-73.25));
#158 = PCURVE('',#32,#159);
#159 = DEFINITIONAL_REPRESENTATION('',(#160),#235);
#160 = B_SPLINE_CURVE_WITH_KNOTS('',7,(#161,#162,#163,#164,#165,#166,
    #167,#168,#169,#170,#171,#172,#173,#174,#175,#176,#177,#178,#179,
    #180,#181,#182,#183,#184,#185,#186,#187,#188,#189,#190,#191,#192,
    #193,#194,#195,#196,#197,#198,#199,#200,#201,#202,#203,#204,#205,
    #206,#207,#208,#209,#210,#211,#212,#213,#214,#215,#216,#217,#218,
    #219,#220,#221,#222,#223,#224,#225,#226,#227,#228,#229,#230,#231,
    #232,#233,#234),.UNSPECIFIED.,.F.,.F.,(8,6,6,6,6,6,6,6,6,6,6,6,8),(
    0.,8.704642633826E-02,0.144104164588,0.222622112699,0.288269813988,
    0.341167681787,0.489972172939,0.638858206803,0.693530585385,
    0.76250662103,0.845586327744,0.906740773302,1.),.UNSPECIFIED.);
#161 = CARTESIAN_POINT('',(0.,-54.));
#162 = CARTESIAN_POINT('',(-3.8197154393E-03,-54.));
#163 = CARTESIAN_POINT('',(-7.641090707016E-03,-54.0330930753));
#164 = CARTESIAN_POINT('',(-1.142782636936E-02,-54.09933048232));
#165 = CARTESIAN_POINT('',(-1.515047851029E-02,-54.19740811954));
#166 = CARTESIAN_POINT('',(-1.878501239111E-02,-54.32525241553));
#167 = CARTESIAN_POINT('',(-2.231215433326E-02,-54.48027963353));
#168 = CARTESIAN_POINT('',(-2.79486748285E-02,-54.77716638923));
#169 = CARTESIAN_POINT('',(-3.012893148449E-02,-54.90521888041));
#170 = CARTESIAN_POINT('',(-3.22544957062E-02,-55.0430397318));
#171 = CARTESIAN_POINT('',(-3.432321312252E-02,-55.18989386106));
#172 = CARTESIAN_POINT('',(-3.633375741439E-02,-55.34507401297));
#173 = CARTESIAN_POINT('',(-3.828548244969E-02,-55.50792366466));
#174 = CARTESIAN_POINT('',(-4.278309172433E-02,-55.91169364344));
#175 = CARTESIAN_POINT('',(-4.52759646058E-02,-56.15890550363));
#176 = CARTESIAN_POINT('',(-4.765720953184E-02,-56.41797728826));
#177 = CARTESIAN_POINT('',(-4.992793955664E-02,-56.68754953432));
#178 = CARTESIAN_POINT('',(-5.208995430174E-02,-56.96642975579));
#179 = CARTESIAN_POINT('',(-5.414557946866E-02,-57.25360821471));
#180 = CARTESIAN_POINT('',(-5.772948370216E-02,-57.79463916286));
#181 = CARTESIAN_POINT('',(-5.928879336197E-02,-58.04621114856));
#182 = CARTESIAN_POINT('',(-6.0776912513E-02,-58.30249733789));
#183 = CARTESIAN_POINT('',(-6.219524217149E-02,-58.56305511241));
#184 = CARTESIAN_POINT('',(-6.354511771255E-02,-58.82749105281));
#185 = CARTESIAN_POINT('',(-6.482781939484E-02,-59.09546044501));
#186 = CARTESIAN_POINT('',(-6.702503144633E-02,-59.5852005188));
#187 = CARTESIAN_POINT('',(-6.796263886292E-02,-59.80582991092));
#188 = CARTESIAN_POINT('',(-6.885803321489E-02,-60.02839615514));
#189 = CARTESIAN_POINT('',(-6.971178643731E-02,-60.25275214181));
#190 = CARTESIAN_POINT('',(-7.052441983128E-02,-60.47876226179));
#191 = CARTESIAN_POINT('',(-7.129640957472E-02,-60.70630220888));
#192 = CARTESIAN_POINT('',(-7.408673543448E-02,-61.57932569519));
#193 = CARTESIAN_POINT('',(-7.582669853369E-02,-62.23447474128));
#194 = CARTESIAN_POINT('',(-7.725852049447E-02,-62.89834991029));
#195 = CARTESIAN_POINT('',(-7.838800192255E-02,-63.56885130713));
#196 = CARTESIAN_POINT('',(-7.921860895741E-02,-64.24408680464));
#197 = CARTESIAN_POINT('',(-7.975144565812E-02,-64.92237335707));
#198 = CARTESIAN_POINT('',(-8.021780050093E-02,-66.28248529664));
#199 = CARTESIAN_POINT('',(-8.015090911912E-02,-66.9640769917));
#200 = CARTESIAN_POINT('',(-7.978227421911E-02,-67.64553117357));
#201 = CARTESIAN_POINT('',(-7.910711164137E-02,-68.32515018175));
#202 = CARTESIAN_POINT('',(-7.81182877057E-02,-69.00102607897));
#203 = CARTESIAN_POINT('',(-7.680644941923E-02,-69.67103860318));
#204 = CARTESIAN_POINT('',(-7.455290932226E-02,-70.57583477216));
#205 = CARTESIAN_POINT('',(-7.390232159957E-02,-70.81772150003));
#206 = CARTESIAN_POINT('',(-7.320577344418E-02,-71.05835693334));
#207 = CARTESIAN_POINT('',(-7.246258591142E-02,-71.29760427543));
#208 = CARTESIAN_POINT('',(-7.167203359638E-02,-71.53531467921));
#209 = CARTESIAN_POINT('',(-7.08333413007E-02,-71.7713270604));
#210 = CARTESIAN_POINT('',(-6.882578595742E-02,-72.30086584411));
#211 = CARTESIAN_POINT('',(-6.762798838318E-02,-72.59327480182));
#212 = CARTESIAN_POINT('',(-6.635059301321E-02,-72.88235403804));
#213 = CARTESIAN_POINT('',(-6.499185056499E-02,-73.16770891503));
#214 = CARTESIAN_POINT('',(-6.354995909894E-02,-73.44889046389));
#215 = CARTESIAN_POINT('',(-6.202306568073E-02,-73.72539494532));
#216 = CARTESIAN_POINT('',(-5.846549390318E-02,-74.32339869304));
#217 = CARTESIAN_POINT('',(-5.639589554637E-02,-74.64249498323));
#218 = CARTESIAN_POINT('',(-5.419699797137E-02,-74.95300943181));
#219 = CARTESIAN_POINT('',(-5.186573402765E-02,-75.25377502707));
#220 = CARTESIAN_POINT('',(-4.93996918495E-02,-75.54341842584));
#221 = CARTESIAN_POINT('',(-4.679736228944E-02,-75.82037778458));
#222 = CARTESIAN_POINT('',(-4.204224352358E-02,-76.27617668603));
#223 = CARTESIAN_POINT('',(-3.995228195625E-02,-76.4616002118));
#224 = CARTESIAN_POINT('',(-3.778854646438E-02,-76.63848721414));
#225 = CARTESIAN_POINT('',(-3.555180634448E-02,-76.80605563635));
#226 = CARTESIAN_POINT('',(-3.32436952265E-02,-76.9634633862));
#227 = CARTESIAN_POINT('',(-3.086690632864E-02,-77.10983533012));
#228 = CARTESIAN_POINT('',(-2.470226372602E-02,-77.4493537723));
#229 = CARTESIAN_POINT('',(-2.082572124236E-02,-77.62687847856));
#230 = CARTESIAN_POINT('',(-1.681432489142E-02,-77.77344228413));
#231 = CARTESIAN_POINT('',(-1.269220883815E-02,-77.88597336751));
#232 = CARTESIAN_POINT('',(-8.489686645354E-03,-77.9620120935));
#233 = CARTESIAN_POINT('',(-4.243853603146E-03,-78.));
#234 = CARTESIAN_POINT('',(0.,-78.));
#235 = ( GEOMETRIC_REPRESENTATION_CONTEXT(2) 
PARAMETRIC_REPRESENTATION_CONTEXT() REPRESENTATION_CONTEXT('2D SPACE',''
  ) );
#236 = PCURVE('',#237,#242);
#237 = CYLINDRICAL_SURFACE('',#238,12.);
#238 = AXIS2_PLACEMENT_3D('',#239,#240,#241);
#239 = CARTESIAN_POINT('',(0.,0.,-85.25));
#240 = DIRECTION('',(1.,0.,0.));
#241 = DIRECTION('',(-0.,0.,1.));
#242 = DEFINITIONAL_REPRESENTATION('',(#243),#318);
#243 = B_SPLINE_CURVE_WITH_KNOTS('',7,(#244,#245,#246,#247,#248,#249,
    #250,#251,#252,#253,#254,#255,#256,#257,#258,#259,#260,#261,#262,
    #263,#264,#265,#266,#267,#268,#269,#270,#271,#272,#273,#274,#275,
    #276,#277,#278,#279,#280,#281,#282,#283,#284,#285,#286,#287,#288,
    #289,#290,#291,#292,#293,#294,#295,#296,#297,#298,#299,#300,#301,
    #302,#303,#304,#305,#306,#307,#308,#309,#310,#311,#312,#313,#314,
    #315,#316,#317),.UNSPECIFIED.,.F.,.F.,(8,6,6,6,6,6,6,6,6,6,6,6,8),(
    0.,8.704642633826E-02,0.144104164588,0.222622112699,0.288269813988,
    0.341167681787,0.489972172939,0.638858206803,0.693530585385,
    0.76250662103,0.845586327744,0.906740773302,1.),.UNSPECIFIED.);
#244 = CARTESIAN_POINT('',(3.14159265359,152.74054054054));
#245 = CARTESIAN_POINT('',(3.190211436999,152.74054054054));
#246 = CARTESIAN_POINT('',(3.238851340191,152.73042758304));
#247 = CARTESIAN_POINT('',(3.287226890894,152.71018593429));
#248 = CARTESIAN_POINT('',(3.335140313229,152.68025766081));
#249 = CARTESIAN_POINT('',(3.382436954878,152.64136265373));
#250 = CARTESIAN_POINT('',(3.428990949089,152.59439406409));
#251 = CARTESIAN_POINT('',(3.504655358732,152.50489884593));
#252 = CARTESIAN_POINT('',(3.534264273889,152.46639951126));
#253 = CARTESIAN_POINT('',(3.563507674658,152.42508982444));
#254 = CARTESIAN_POINT('',(3.592378302722,152.38122478999));
#255 = CARTESIAN_POINT('',(3.620875023921,152.33504995449));
#256 = CARTESIAN_POINT('',(3.649001938691,152.28679364175));
#257 = CARTESIAN_POINT('',(3.714978422056,152.16767596962));
#258 = CARTESIAN_POINT('',(3.752500202007,152.09514907423));
#259 = CARTESIAN_POINT('',(3.789364355623,152.01961204321));
#260 = CARTESIAN_POINT('',(3.825602868022,151.94154081568));
#261 = CARTESIAN_POINT('',(3.861250670687,151.86135308234));
#262 = CARTESIAN_POINT('',(3.896347130941,151.77940448226));
#263 = CARTESIAN_POINT('',(3.959858074752,151.6262388302));
#264 = CARTESIAN_POINT('',(3.988421708257,151.55547233092));
#265 = CARTESIAN_POINT('',(4.016653017548,151.48386011409));
#266 = CARTESIAN_POINT('',(4.044574624858,151.41155859263));
#267 = CARTESIAN_POINT('',(4.072208004616,151.33870647667));
#268 = CARTESIAN_POINT('',(4.099574289021,151.26542547023));
#269 = CARTESIAN_POINT('',(4.148548568091,151.13251163704));
#270 = CARTESIAN_POINT('',(4.170242043633,151.07299391516));
#271 = CARTESIAN_POINT('',(4.191786384548,151.01332394254));
#272 = CARTESIAN_POINT('',(4.213191797664,150.95355332634));
#273 = CARTESIAN_POINT('',(4.234468013567,150.89372932474));
#274 = CARTESIAN_POINT('',(4.255624487838,150.83389503103));
#275 = CARTESIAN_POINT('',(4.335874431932,150.60585360809));
#276 = CARTESIAN_POINT('',(4.394193167945,150.43787917122));
#277 = CARTESIAN_POINT('',(4.451851481394,150.27099194752));
#278 = CARTESIAN_POINT('',(4.509023496752,150.1058885522));
#279 = CARTESIAN_POINT('',(4.565870263478,149.94315426571));
#280 = CARTESIAN_POINT('',(4.622549538459,149.78326942806));
#281 = CARTESIAN_POINT('',(4.735954515366,149.46988127007));
#282 = CARTESIAN_POINT('',(4.792660571762,149.31643573964));
#283 = CARTESIAN_POINT('',(4.849528859472,149.16666586172));
#284 = CARTESIAN_POINT('',(4.906713843753,149.02095708997));
#285 = CARTESIAN_POINT('',(4.964370608942,148.87968336708));
#286 = CARTESIAN_POINT('',(5.022664301592,148.74319633079));
#287 = CARTESIAN_POINT('',(5.10351845997,148.563581214));
#288 = CARTESIAN_POINT('',(5.125346899344,148.5160324362));
#289 = CARTESIAN_POINT('',(5.147297254441,148.46919410736));
#290 = CARTESIAN_POINT('',(5.169379102071,148.42308476046));
#291 = CARTESIAN_POINT('',(5.191602247039,148.37772369514));
#292 = CARTESIAN_POINT('',(5.213976921766,148.33313082747));
#293 = CARTESIAN_POINT('',(5.264947307814,148.23406195857));
#294 = CARTESIAN_POINT('',(5.29363811476,148.18005442495));
#295 = CARTESIAN_POINT('',(5.322609039029,148.12734342841));
#296 = CARTESIAN_POINT('',(5.351882117326,148.07597383067));
#297 = CARTESIAN_POINT('',(5.381479645395,148.02599510777));
#298 = CARTESIAN_POINT('',(5.41142503264,147.97746059222));
#299 = CARTESIAN_POINT('',(5.478261591926,147.87377572483));
#300 = CARTESIAN_POINT('',(5.515316278645,147.81930899095));
#301 = CARTESIAN_POINT('',(5.552955418666,147.76711994805));
#302 = CARTESIAN_POINT('',(5.59122026435,147.71732614893));
#303 = CARTESIAN_POINT('',(5.630147337735,147.67006501659));
#304 = CARTESIAN_POINT('',(5.669770149615,147.62548959619));
#305 = CARTESIAN_POINT('',(5.739822863927,147.5530505862));
#306 = CARTESIAN_POINT('',(5.769915967338,147.5238846765));
#307 = CARTESIAN_POINT('',(5.800410535535,147.4963345079));
#308 = CARTESIAN_POINT('',(5.831311037816,147.47047640172));
#309 = CARTESIAN_POINT('',(5.862616312274,147.4463922667));
#310 = CARTESIAN_POINT('',(5.894318601507,147.4241668068));
#311 = CARTESIAN_POINT('',(5.97532702938,147.37295502218));
#312 = CARTESIAN_POINT('',(6.025176471122,147.34652020026));
#313 = CARTESIAN_POINT('',(6.075831391132,147.32493252963));
#314 = CARTESIAN_POINT('',(6.127154832088,147.30848910251));
#315 = CARTESIAN_POINT('',(6.178980150863,147.29742127995));
#316 = CARTESIAN_POINT('',(6.23109487167,147.29189189189));
#317 = CARTESIAN_POINT('',(6.28318530718,147.29189189189));
#318 = ( GEOMETRIC_REPRESENTATION_CONTEXT(2) 
PARAMETRIC_REPRESENTATION_CONTEXT() REPRESENTATION_CONTEXT('2D SPACE',''
  ) );
#319 = ORIENTED_EDGE('',*,*,#320,.F.);
#320 = EDGE_CURVE('',#321,#80,#323,.T.);
#321 = VERTEX_POINT('',#322);
#322 = CARTESIAN_POINT('',(165.,-4.041334437186E-14,-151.25));
#323 = SEAM_CURVE('',#324,(#328,#335),.PCURVE_S1.);
#324 = LINE('',#325,#326);
#325 = CARTESIAN_POINT('',(165.,-4.041334437186E-14,-151.25));
#326 = VECTOR('',#327,1.);
#327 = DIRECTION('',(-0.221393262767,5.422571012E-17,0.975184609806));
#328 = PCURVE('',#32,#329);
#329 = DEFINITIONAL_REPRESENTATION('',(#330),#334);
#330 = LINE('',#331,#332);
#331 = CARTESIAN_POINT('',(-6.28318530718,0.));
#332 = VECTOR('',#333,1.);
#333 = DIRECTION('',(-0.,-1.));
#334 = ( GEOMETRIC_REPRESENTATION_CONTEXT(2) 
PARAMETRIC_REPRESENTATION_CONTEXT() REPRESENTATION_CONTEXT('2D SPACE',''
  ) );
#335 = PCURVE('',#32,#336);
#336 = DEFINITIONAL_REPRESENTATION('',(#337),#341);
#337 = LINE('',#338,#339);
#338 = CARTESIAN_POINT('',(0.,-0.));
#339 = VECTOR('',#340,1.);
#340 = DIRECTION('',(-0.,-1.));
#341 = ( GEOMETRIC_REPRESENTATION_CONTEXT(2) 
PARAMETRIC_REPRESENTATION_CONTEXT() REPRESENTATION_CONTEXT('2D SPACE',''
  ) );
#342 = ORIENTED_EDGE('',*,*,#343,.T.);
#343 = EDGE_CURVE('',#321,#321,#344,.T.);
#344 = SURFACE_CURVE('',#345,(#350,#357),.PCURVE_S1.);
#345 = CIRCLE('',#346,165.);
#346 = AXIS2_PLACEMENT_3D('',#347,#348,#349);
#347 = CARTESIAN_POINT('',(0.,0.,-151.25));
#348 = DIRECTION('',(0.,0.,1.));
#349 = DIRECTION('',(1.,0.,-0.));
#350 = PCURVE('',#32,#351);
#351 = DEFINITIONAL_REPRESENTATION('',(#352),#356);
#352 = LINE('',#353,#354);
#353 = CARTESIAN_POINT('',(-0.,-0.));
#354 = VECTOR('',#355,1.);
#355 = DIRECTION('',(-1.,-0.));
#356 = ( GEOMETRIC_REPRESENTATION_CONTEXT(2) 
PARAMETRIC_REPRESENTATION_CONTEXT() REPRESENTATION_CONTEXT('2D SPACE',''
  ) );
#357 = PCURVE('',#358,#363);
#358 = PLANE('',#359);
#359 = AXIS2_PLACEMENT_3D('',#360,#361,#362);
#360 = CARTESIAN_POINT('',(0.,0.,-151.25));
#361 = DIRECTION('',(0.,0.,1.));
#362 = DIRECTION('',(1.,0.,-0.));
#363 = DEFINITIONAL_REPRESENTATION('',(#364),#368);
#364 = CIRCLE('',#365,165.);
#365 = AXIS2_PLACEMENT_2D('',#366,#367);
#366 = CARTESIAN_POINT('',(0.,0.));
#367 = DIRECTION('',(1.,0.));
#368 = ( GEOMETRIC_REPRESENTATION_CONTEXT(2) 
PARAMETRIC_REPRESENTATION_CONTEXT() REPRESENTATION_CONTEXT('2D SPACE',''
  ) );
#369 = ORIENTED_EDGE('',*,*,#320,.T.);
#370 = ORIENTED_EDGE('',*,*,#371,.F.);
#371 = EDGE_CURVE('',#22,#80,#372,.T.);
#372 = SURFACE_CURVE('',#373,(#448,#526),.PCURVE_S1.);
#373 = B_SPLINE_CURVE_WITH_KNOTS('',7,(#374,#375,#376,#377,#378,#379,
    #380,#381,#382,#383,#384,#385,#386,#387,#388,#389,#390,#391,#392,
    #393,#394,#395,#396,#397,#398,#399,#400,#401,#402,#403,#404,#405,
    #406,#407,#408,#409,#410,#411,#412,#413,#414,#415,#416,#417,#418,
    #419,#420,#421,#422,#423,#424,#425,#426,#427,#428,#429,#430,#431,
    #432,#433,#434,#435,#436,#437,#438,#439,#440,#441,#442,#443,#444,
    #445,#446,#447),.UNSPECIFIED.,.F.,.F.,(8,6,6,6,6,6,6,6,6,6,6,6,8),(
    0.,9.325779012655E-02,0.153948159041,0.236979335662,0.305921505266,
    0.360573315049,0.510027596946,0.658265326764,0.711730265002,
    0.777378114909,0.855432574059,0.912524413276,1.),.UNSPECIFIED.);
#374 = CARTESIAN_POINT('',(147.29189189189,3.552713678801E-15,-73.25));
#375 = CARTESIAN_POINT('',(147.29189189189,-0.625121121467,-73.25));
#376 = CARTESIAN_POINT('',(147.29742191924,-1.250498996075,
    -73.28799229391));
#377 = CARTESIAN_POINT('',(147.30848988398,-1.869613392066,
    -73.36403201434));
#378 = CARTESIAN_POINT('',(147.32493277827,-2.477160414897,
    -73.47655929478));
#379 = CARTESIAN_POINT('',(147.34652022805,-3.068793160075,
    -73.62312179095));
#380 = CARTESIAN_POINT('',(147.37295558383,-3.641025400729,
    -73.80064995123));
#381 = CARTESIAN_POINT('',(147.42401283886,-4.549159848252,
    -74.1391439096));
#382 = CARTESIAN_POINT('',(147.4460549606,-4.897999616003,-74.2843151404
    ));
#383 = CARTESIAN_POINT('',(147.46992828905,-5.237104455621,
    -74.44036184861));
#384 = CARTESIAN_POINT('',(147.49555001473,-5.566092147872,
    -74.60642856854));
#385 = CARTESIAN_POINT('',(147.52284002962,-5.884727802752,
    -74.78169169762));
#386 = CARTESIAN_POINT('',(147.55172362649,-6.192897024632,
    -74.96538561397));
#387 = CARTESIAN_POINT('',(147.62373925694,-6.897860402063,
    -75.41872404127));
#388 = CARTESIAN_POINT('',(147.66819594577,-7.285459132564,
    -75.69507737385));
#389 = CARTESIAN_POINT('',(147.71533967276,-7.653421372646,
    -75.98414581895));
#390 = CARTESIAN_POINT('',(147.76501719817,-8.001946960834,
    -76.28436523938));
#391 = CARTESIAN_POINT('',(147.81709090408,-8.331363758642,
    -76.59435983912));
#392 = CARTESIAN_POINT('',(147.87144305847,-8.642093848511,
    -76.91296025034));
#393 = CARTESIAN_POINT('',(147.97492370974,-9.177508847345,
    -77.51012187265));
#394 = CARTESIAN_POINT('',(148.02336868561,-9.407821303177,
    -77.7862742788));
#395 = CARTESIAN_POINT('',(148.07325848546,-9.625820076848,
    -78.06711860884));
#396 = CARTESIAN_POINT('',(148.1245397019,-9.831759890729,
    -78.35214996887));
#397 = CARTESIAN_POINT('',(148.17716280089,-10.02588737125,
    -78.64091837294));
#398 = CARTESIAN_POINT('',(148.23108288112,-10.20844120821,
    -78.93302831503));
#399 = CARTESIAN_POINT('',(148.33000076102,-10.51537471499,
    -79.46207784561));
#400 = CARTESIAN_POINT('',(148.37453011489,-10.64396545121,
    -79.6978962785));
#401 = CARTESIAN_POINT('',(148.41982809497,-10.76553711769,
    -79.93541971095));
#402 = CARTESIAN_POINT('',(148.46587477296,-10.88019434153,
    -80.17448668591));
#403 = CARTESIAN_POINT('',(148.51265084277,-10.98803432669,
    -80.41494803086));
#404 = CARTESIAN_POINT('',(148.560137771,-11.08914739878,-80.6566666707)
  );
#405 = CARTESIAN_POINT('',(148.74007449326,-11.44196157616,
    -81.56363245488));
#406 = CARTESIAN_POINT('',(148.8769904001,-11.65057800524,
    -82.23608783212));
#407 = CARTESIAN_POINT('',(149.01873508586,-11.81127592936,
    -82.91448443606));
#408 = CARTESIAN_POINT('',(149.16495289643,-11.92524472919,
    -83.59667409234));
#409 = CARTESIAN_POINT('',(149.31526560241,-11.99333719457,
    -84.28072509405));
#410 = CARTESIAN_POINT('',(149.46928345662,-12.01605211364,-84.964920179
    ));
#411 = CARTESIAN_POINT('',(149.78267238477,-11.97094438477,
    -86.32503546109));
#412 = CARTESIAN_POINT('',(149.94193594558,-11.9038649633,
    -87.00074447567));
#413 = CARTESIAN_POINT('',(150.10402871418,-11.79223544922,
    -87.67343099938));
#414 = CARTESIAN_POINT('',(150.26847597744,-11.63566710782,
    -88.34143119423));
#415 = CARTESIAN_POINT('',(150.43469994242,-11.43341467333,
    -89.00287630902));
#416 = CARTESIAN_POINT('',(150.602013468,-11.18438276687,-89.6556938553)
  );
#417 = CARTESIAN_POINT('',(150.83004729363,-10.77945307747,
    -90.52906291099));
#418 = CARTESIAN_POINT('',(150.89052338266,-10.66580943758,
    -90.75912428581));
#419 = CARTESIAN_POINT('',(150.95099084767,-10.54577721408,
    -90.98762832203));
#420 = CARTESIAN_POINT('',(151.01140532262,-10.41927115395,
    -91.21444700931));
#421 = CARTESIAN_POINT('',(151.07171810708,-10.28619880641,
    -91.43944057656));
#422 = CARTESIAN_POINT('',(151.13187597242,-10.14645970068,
    -91.66245728374));
#423 = CARTESIAN_POINT('',(151.26542546823,-9.820043327376,
    -92.1545395476));
#424 = CARTESIAN_POINT('',(151.33870647322,-9.62993260796,-92.4225089346
    ));
#425 = CARTESIAN_POINT('',(151.41155858837,-9.42940491172,
    -92.68694487214));
#426 = CARTESIAN_POINT('',(151.4838601097,-9.218245728383,
    -92.94750264635));
#427 = CARTESIAN_POINT('',(151.55547232716,-8.996232346546,
    -93.20378883807));
#428 = CARTESIAN_POINT('',(151.6262388279,-8.763132709107,-93.455360829)
  );
#429 = CARTESIAN_POINT('',(151.77891187352,-8.228081959749,
    -93.99465173083));
#430 = CARTESIAN_POINT('',(151.86038533477,-7.921481513322,
    -94.28017880072));
#431 = CARTESIAN_POINT('',(151.94012030019,-7.59847211803,
    -94.55750990909));
#432 = CARTESIAN_POINT('',(152.01776773038,-7.258677453399,
    -94.82565407909));
#433 = CARTESIAN_POINT('',(152.09291807351,-6.901802327265,
    -95.08344213995));
#434 = CARTESIAN_POINT('',(152.1651049092,-6.527659313161,-95.3295419016
    ));
#435 = CARTESIAN_POINT('',(152.28406093753,-5.849864590795,
    -95.73284775427));
#436 = CARTESIAN_POINT('',(152.33244451491,-5.554297772165,
    -95.89615888091));
#437 = CARTESIAN_POINT('',(152.37875309341,-5.249498729441,
    -96.05181709265));
#438 = CARTESIAN_POINT('',(152.42275850315,-4.935562195241,
    -96.19916635556));
#439 = CARTESIAN_POINT('',(152.46421520607,-4.612689915538,
    -96.3374994821));
#440 = CARTESIAN_POINT('',(152.5028680047,-4.281214151368,
    -96.46608088335));
#441 = CARTESIAN_POINT('',(152.59300104107,-3.421318776458,
    -96.76512229263));
#442 = CARTESIAN_POINT('',(152.64040119742,-2.881581541706,
    -96.9215872902));
#443 = CARTESIAN_POINT('',(152.67966554452,-2.324765277222,
    -97.05065144203));
#444 = CARTESIAN_POINT('',(152.70988546342,-1.753918299776,
    -97.14968628059));
#445 = CARTESIAN_POINT('',(152.73032753167,-1.172866018271,
    -97.21657952115));
#446 = CARTESIAN_POINT('',(152.74054054054,-0.586304309709,-97.25));
#447 = CARTESIAN_POINT('',(152.74054054054,-3.730349362741E-14,-97.25));
#448 = PCURVE('',#32,#449);
#449 = DEFINITIONAL_REPRESENTATION('',(#450),#525);
#450 = B_SPLINE_CURVE_WITH_KNOTS('',7,(#451,#452,#453,#454,#455,#456,
    #457,#458,#459,#460,#461,#462,#463,#464,#465,#466,#467,#468,#469,
    #470,#471,#472,#473,#474,#475,#476,#477,#478,#479,#480,#481,#482,
    #483,#484,#485,#486,#487,#488,#489,#490,#491,#492,#493,#494,#495,
    #496,#497,#498,#499,#500,#501,#502,#503,#504,#505,#506,#507,#508,
    #509,#510,#511,#512,#513,#514,#515,#516,#517,#518,#519,#520,#521,
    #522,#523,#524),.UNSPECIFIED.,.F.,.F.,(8,6,6,6,6,6,6,6,6,6,6,6,8),(
    0.,9.325779012655E-02,0.153948159041,0.236979335662,0.305921505266,
    0.360573315049,0.510027596946,0.658265326764,0.711730265002,
    0.777378114909,0.855432574059,0.912524413276,1.),.UNSPECIFIED.);
#451 = CARTESIAN_POINT('',(-6.28318530718,-78.));
#452 = CARTESIAN_POINT('',(-6.278941209874,-78.));
#453 = CARTESIAN_POINT('',(-6.274695369396,-77.96200770608));
#454 = CARTESIAN_POINT('',(-6.270492972228,-77.88596798566));
#455 = CARTESIAN_POINT('',(-6.266370949777,-77.77344070521));
#456 = CARTESIAN_POINT('',(-6.262359557599,-77.62687820904));
#457 = CARTESIAN_POINT('',(-6.258482975845,-77.44935004877));
#458 = CARTESIAN_POINT('',(-6.252336934814,-77.11085609039));
#459 = CARTESIAN_POINT('',(-6.249977698774,-76.96568485959));
#460 = CARTESIAN_POINT('',(-6.247686071973,-76.80963815138));
#461 = CARTESIAN_POINT('',(-6.245464697759,-76.64357143145));
#462 = CARTESIAN_POINT('',(-6.243315188545,-76.46830830238));
#463 = CARTESIAN_POINT('',(-6.241238314351,-76.28461438602));
#464 = CARTESIAN_POINT('',(-6.236492202094,-75.83127595872));
#465 = CARTESIAN_POINT('',(-6.233886744508,-75.55492262615));
#466 = CARTESIAN_POINT('',(-6.231417449597,-75.26585418104));
#467 = CARTESIAN_POINT('',(-6.229082839415,-74.96563476061));
#468 = CARTESIAN_POINT('',(-6.226880523472,-74.65564016087));
#469 = CARTESIAN_POINT('',(-6.224807448361,-74.33703974966));
#470 = CARTESIAN_POINT('',(-6.221243270943,-73.73987812734));
#471 = CARTESIAN_POINT('',(-6.219713280769,-73.46372572119));
#472 = CARTESIAN_POINT('',(-6.218268278672,-73.18288139115));
#473 = CARTESIAN_POINT('',(-6.216906414119,-72.89785003112));
#474 = CARTESIAN_POINT('',(-6.215625886147,-72.60908162705));
#475 = CARTESIAN_POINT('',(-6.214424945267,-72.31697168496));
#476 = CARTESIAN_POINT('',(-6.212411631684,-71.78792215438));
#477 = CARTESIAN_POINT('',(-6.211570340242,-71.55210372149));
#478 = CARTESIAN_POINT('',(-6.21077719192,-71.31458028904));
#479 = CARTESIAN_POINT('',(-6.21003141055,-71.07551331408));
#480 = CARTESIAN_POINT('',(-6.209332269597,-70.83505196914));
#481 = CARTESIAN_POINT('',(-6.208679088832,-70.59333332929));
#482 = CARTESIAN_POINT('',(-6.206408944724,-69.68636754511));
#483 = CARTESIAN_POINT('',(-6.205085917937,-69.01391216788));
#484 = CARTESIAN_POINT('',(-6.204088518918,-68.33551556393));
#485 = CARTESIAN_POINT('',(-6.203407262911,-67.65332590765));
#486 = CARTESIAN_POINT('',(-6.203034913149,-66.96927490594));
#487 = CARTESIAN_POINT('',(-6.202966617069,-66.28507982099));
#488 = CARTESIAN_POINT('',(-6.203432973058,-64.9249645389));
#489 = CARTESIAN_POINT('',(-6.203962641574,-64.24925552432));
#490 = CARTESIAN_POINT('',(-6.204787824608,-63.57656900061));
#491 = CARTESIAN_POINT('',(-6.205909600324,-62.90856880576));
#492 = CARTESIAN_POINT('',(-6.207331374484,-62.24712369097));
#493 = CARTESIAN_POINT('',(-6.209058857415,-61.59430614469));
#494 = CARTESIAN_POINT('',(-6.211839323818,-60.720937089));
#495 = CARTESIAN_POINT('',(-6.212617386742,-60.49087571418));
#496 = CARTESIAN_POINT('',(-6.213436948437,-60.26237167797));
#497 = CARTESIAN_POINT('',(-6.214298498912,-60.03555299069));
#498 = CARTESIAN_POINT('',(-6.215202575267,-59.81055942343));
#499 = CARTESIAN_POINT('',(-6.216149767497,-59.58754271625));
#500 = CARTESIAN_POINT('',(-6.218357487752,-59.09546045239));
#501 = CARTESIAN_POINT('',(-6.219640189406,-58.82749106539));
#502 = CARTESIAN_POINT('',(-6.220990064928,-58.56305512785));
#503 = CARTESIAN_POINT('',(-6.222408394578,-58.30249735364));
#504 = CARTESIAN_POINT('',(-6.223896513736,-58.04621116192));
#505 = CARTESIAN_POINT('',(-6.225455823424,-57.79463917099));
#506 = CARTESIAN_POINT('',(-6.22902820122,-57.25534826916));
#507 = CARTESIAN_POINT('',(-6.231071082105,-56.96982119927));
#508 = CARTESIAN_POINT('',(-6.233219083929,-56.6924900909));
#509 = CARTESIAN_POINT('',(-6.235474491366,-56.42434592091));
#510 = CARTESIAN_POINT('',(-6.237839078713,-56.16655786004));
#511 = CARTESIAN_POINT('',(-6.24031395528,-55.92045809839));
#512 = CARTESIAN_POINT('',(-6.244790505931,-55.51715224572));
#513 = CARTESIAN_POINT('',(-6.246740558399,-55.35384111908));
#514 = CARTESIAN_POINT('',(-6.248749520638,-55.19818290734));
#515 = CARTESIAN_POINT('',(-6.250816765256,-55.05083364443));
#516 = CARTESIAN_POINT('',(-6.252940987793,-54.91250051789));
#517 = CARTESIAN_POINT('',(-6.255120059281,-54.78391911664));
#518 = CARTESIAN_POINT('',(-6.260768792582,-54.48487770737));
#519 = CARTESIAN_POINT('',(-6.264310676883,-54.32841270979));
#520 = CARTESIAN_POINT('',(-6.267961375463,-54.19934855796));
#521 = CARTESIAN_POINT('',(-6.271701422655,-54.10031371941));
#522 = CARTESIAN_POINT('',(-6.275506494373,-54.03342047884));
#523 = CARTESIAN_POINT('',(-6.27934674338,-54.));
#524 = CARTESIAN_POINT('',(-6.28318530718,-54.));
#525 = ( GEOMETRIC_REPRESENTATION_CONTEXT(2) 
PARAMETRIC_REPRESENTATION_CONTEXT() REPRESENTATION_CONTEXT('2D SPACE',''
  ) );
#526 = PCURVE('',#237,#527);
#527 = DEFINITIONAL_REPRESENTATION('',(#528),#603);
#528 = B_SPLINE_CURVE_WITH_KNOTS('',7,(#529,#530,#531,#532,#533,#534,
    #535,#536,#537,#538,#539,#540,#541,#542,#543,#544,#545,#546,#547,
    #548,#549,#550,#551,#552,#553,#554,#555,#556,#557,#558,#559,#560,
    #561,#562,#563,#564,#565,#566,#567,#568,#569,#570,#571,#572,#573,
    #574,#575,#576,#577,#578,#579,#580,#581,#582,#583,#584,#585,#586,
    #587,#588,#589,#590,#591,#592,#593,#594,#595,#596,#597,#598,#599,
    #600,#601,#602),.UNSPECIFIED.,.F.,.F.,(8,6,6,6,6,6,6,6,6,6,6,6,8),(
    0.,9.325779012655E-02,0.153948159041,0.236979335662,0.305921505266,
    0.360573315049,0.510027596946,0.658265326764,0.711730265002,
    0.777378114909,0.855432574059,0.912524413276,1.),.UNSPECIFIED.);
#529 = CARTESIAN_POINT('',(0.,147.29189189189));
#530 = CARTESIAN_POINT('',(5.209342678888E-02,147.29189189189));
#531 = CARTESIAN_POINT('',(0.104208237782,147.29742191924));
#532 = CARTESIAN_POINT('',(0.156032068803,147.30848988398));
#533 = CARTESIAN_POINT('',(0.207354350764,147.32493277827));
#534 = CARTESIAN_POINT('',(0.258009168617,147.34652022805));
#535 = CARTESIAN_POINT('',(0.307859166228,147.37295558383));
#536 = CARTESIAN_POINT('',(0.388623154294,147.42401283886));
#537 = CARTESIAN_POINT('',(0.420087685825,147.4460549606));
#538 = CARTESIAN_POINT('',(0.451161330665,147.46992828905));
#539 = CARTESIAN_POINT('',(0.481836424664,147.49555001473));
#540 = CARTESIAN_POINT('',(0.512111732272,147.52284002962));
#541 = CARTESIAN_POINT('',(0.541991510708,147.55172362649));
#542 = CARTESIAN_POINT('',(0.611837029393,147.62373925694));
#543 = CARTESIAN_POINT('',(0.651460605542,147.66819594577));
#544 = CARTESIAN_POINT('',(0.690388333562,147.71533967276));
#545 = CARTESIAN_POINT('',(0.728653502147,147.76501719817));
#546 = CARTESIAN_POINT('',(0.766292481737,147.81709090408));
#547 = CARTESIAN_POINT('',(0.80334642389,147.87144305847));
#548 = CARTESIAN_POINT('',(0.870183249659,147.97492370974));
#549 = CARTESIAN_POINT('',(0.900129780235,148.02336868561));
#550 = CARTESIAN_POINT('',(0.929727902945,148.07325848546));
#551 = CARTESIAN_POINT('',(0.959001007463,148.1245397019));
#552 = CARTESIAN_POINT('',(0.987971376684,148.17716280089));
#553 = CARTESIAN_POINT('',(1.016661040818,148.23108288112));
#554 = CARTESIAN_POINT('',(1.067630910962,148.33000076102));
#555 = CARTESIAN_POINT('',(1.090006392194,148.37453011489));
#556 = CARTESIAN_POINT('',(1.112229937347,148.41982809497));
#557 = CARTESIAN_POINT('',(1.134311780933,148.46587477296));
#558 = CARTESIAN_POINT('',(1.156261729667,148.51265084277));
#559 = CARTESIAN_POINT('',(1.178089362308,148.560137771));
#560 = CARTESIAN_POINT('',(1.259187073325,148.74007449326));
#561 = CARTESIAN_POINT('',(1.317715315741,148.8769904001));
#562 = CARTESIAN_POINT('',(1.375599253299,149.01873508586));
#563 = CARTESIAN_POINT('',(1.433005956849,149.16495289643));
#564 = CARTESIAN_POINT('',(1.490092289398,149.31526560241));
#565 = CARTESIAN_POINT('',(1.54701446258,149.46928345662));
#566 = CARTESIAN_POINT('',(1.660419718183,149.78267238477));
#567 = CARTESIAN_POINT('',(1.716883134813,149.94193594558));
#568 = CARTESIAN_POINT('',(1.773512088704,150.10402871418));
#569 = CARTESIAN_POINT('',(1.830462552437,150.26847597744));
#570 = CARTESIAN_POINT('',(1.887893721057,150.43469994242));
#571 = CARTESIAN_POINT('',(1.945977683378,150.602013468));
#572 = CARTESIAN_POINT('',(2.026200531017,150.83004729363));
#573 = CARTESIAN_POINT('',(2.047577280538,150.89052338266));
#574 = CARTESIAN_POINT('',(2.069075939915,150.95099084767));
#575 = CARTESIAN_POINT('',(2.090706259209,151.01140532262));
#576 = CARTESIAN_POINT('',(2.112478274157,151.07171810708));
#577 = CARTESIAN_POINT('',(2.134402518045,151.13187597242));
#578 = CARTESIAN_POINT('',(2.183611017421,151.26542546823));
#579 = CARTESIAN_POINT('',(2.210977301274,151.33870647322));
#580 = CARTESIAN_POINT('',(2.238610680696,151.41155858837));
#581 = CARTESIAN_POINT('',(2.26653228792,151.4838601097));
#582 = CARTESIAN_POINT('',(2.294763597418,151.55547232716));
#583 = CARTESIAN_POINT('',(2.323327231473,151.6262388279));
#584 = CARTESIAN_POINT('',(2.38663391343,151.77891187352));
#585 = CARTESIAN_POINT('',(2.421520209589,151.86038533477));
#586 = CARTESIAN_POINT('',(2.456951082735,151.94012030019));
#587 = CARTESIAN_POINT('',(2.492965209403,152.01776773038));
#588 = CARTESIAN_POINT('',(2.529596968136,152.09291807351));
#589 = CARTESIAN_POINT('',(2.56687789346,152.1651049092));
#590 = CARTESIAN_POINT('',(2.63260361228,152.28406093753));
#591 = CARTESIAN_POINT('',(2.660729538567,152.33244451491));
#592 = CARTESIAN_POINT('',(2.689225493022,152.37875309341));
#593 = CARTESIAN_POINT('',(2.718095738657,152.42275850315));
#594 = CARTESIAN_POINT('',(2.747339327247,152.46421520607));
#595 = CARTESIAN_POINT('',(2.776949220329,152.5028680047));
#596 = CARTESIAN_POINT('',(2.852816695256,152.59300104107));
#597 = CARTESIAN_POINT('',(2.899582011084,152.64040119742));
#598 = CARTESIAN_POINT('',(2.947099536513,152.67966554452));
#599 = CARTESIAN_POINT('',(2.995242259653,152.70988546342));
#600 = CARTESIAN_POINT('',(3.043853826136,152.73032753167));
#601 = CARTESIAN_POINT('',(3.092733961114,152.74054054054));
#602 = CARTESIAN_POINT('',(3.14159265359,152.74054054054));
#603 = ( GEOMETRIC_REPRESENTATION_CONTEXT(2) 
PARAMETRIC_REPRESENTATION_CONTEXT() REPRESENTATION_CONTEXT('2D SPACE',''
  ) );
#604 = ADVANCED_FACE('',(#605),#237,.F.);
#605 = FACE_BOUND('',#606,.F.);
#606 = EDGE_LOOP('',(#607,#608,#631,#872,#1106,#1107));
#607 = ORIENTED_EDGE('',*,*,#371,.F.);
#608 = ORIENTED_EDGE('',*,*,#609,.F.);
#609 = EDGE_CURVE('',#610,#22,#612,.T.);
#610 = VERTEX_POINT('',#611);
#611 = CARTESIAN_POINT('',(144.91060240963,-1.627685438137E-14,-73.25));
#612 = SEAM_CURVE('',#613,(#617,#624),.PCURVE_S1.);
#613 = LINE('',#614,#615);
#614 = CARTESIAN_POINT('',(0.,2.939152317954E-15,-73.25));
#615 = VECTOR('',#616,1.);
#616 = DIRECTION('',(1.,0.,0.));
#617 = PCURVE('',#237,#618);
#618 = DEFINITIONAL_REPRESENTATION('',(#619),#623);
#619 = LINE('',#620,#621);
#620 = CARTESIAN_POINT('',(6.28318530718,-0.));
#621 = VECTOR('',#622,1.);
#622 = DIRECTION('',(0.,1.));
#623 = ( GEOMETRIC_REPRESENTATION_CONTEXT(2) 
PARAMETRIC_REPRESENTATION_CONTEXT() REPRESENTATION_CONTEXT('2D SPACE',''
  ) );
#624 = PCURVE('',#237,#625);
#625 = DEFINITIONAL_REPRESENTATION('',(#626),#630);
#626 = LINE('',#627,#628);
#627 = CARTESIAN_POINT('',(0.,-0.));
#628 = VECTOR('',#629,1.);
#629 = DIRECTION('',(0.,1.));
#630 = ( GEOMETRIC_REPRESENTATION_CONTEXT(2) 
PARAMETRIC_REPRESENTATION_CONTEXT() REPRESENTATION_CONTEXT('2D SPACE',''
  ) );
#631 = ORIENTED_EDGE('',*,*,#632,.T.);
#632 = EDGE_CURVE('',#610,#633,#635,.T.);
#633 = VERTEX_POINT('',#634);
#634 = CARTESIAN_POINT('',(150.25421686747,-3.680166914903E-14,-97.25));
#635 = SURFACE_CURVE('',#636,(#711,#789),.PCURVE_S1.);
#636 = B_SPLINE_CURVE_WITH_KNOTS('',7,(#637,#638,#639,#640,#641,#642,
    #643,#644,#645,#646,#647,#648,#649,#650,#651,#652,#653,#654,#655,
    #656,#657,#658,#659,#660,#661,#662,#663,#664,#665,#666,#667,#668,
    #669,#670,#671,#672,#673,#674,#675,#676,#677,#678,#679,#680,#681,
    #682,#683,#684,#685,#686,#687,#688,#689,#690,#691,#692,#693,#694,
    #695,#696,#697,#698,#699,#700,#701,#702,#703,#704,#705,#706,#707,
    #708,#709,#710),.UNSPECIFIED.,.F.,.F.,(8,6,6,6,6,6,6,6,6,6,6,6,8),(
    0.,9.418779409384E-02,0.154971812035,0.238106314792,0.307102405562,
    0.36177610084,0.510023424063,0.658192810177,0.711640789512,
    0.7772780539,0.855340902774,0.912457676606,1.),.UNSPECIFIED.);
#637 = CARTESIAN_POINT('',(144.91060240963,3.552713678801E-15,-73.25));
#638 = CARTESIAN_POINT('',(144.91060240963,-0.630819581075,-73.25));
#639 = CARTESIAN_POINT('',(144.91601260855,-1.261903383976,
    -73.28868811689));
#640 = CARTESIAN_POINT('',(144.9268408822,-1.886561556224,
    -73.36612156587));
#641 = CARTESIAN_POINT('',(144.94292909068,-2.499365965919,
    -73.48068685139));
#642 = CARTESIAN_POINT('',(144.96405699512,-3.095877939674,
    -73.62985555493));
#643 = CARTESIAN_POINT('',(144.98994042958,-3.672548200121,
    -73.81046859334));
#644 = CARTESIAN_POINT('',(145.03979169533,-4.584208217124,
    -74.15355889607));
#645 = CARTESIAN_POINT('',(145.0611940548,-4.932573978206,
    -74.29982473005));
#646 = CARTESIAN_POINT('',(145.08436868755,-5.271172690678,
    -74.45693460912));
#647 = CARTESIAN_POINT('',(145.10923862211,-5.599628884154,
    -74.62403424935));
#648 = CARTESIAN_POINT('',(145.13572942663,-5.917712863346,
    -74.80030196074));
#649 = CARTESIAN_POINT('',(145.16377170684,-6.225314128774,
    -74.98497436894));
#650 = CARTESIAN_POINT('',(145.23369470553,-6.928779223548,
    -75.44049530961));
#651 = CARTESIAN_POINT('',(145.2768661332,-7.315447950616,
    -75.71802334777));
#652 = CARTESIAN_POINT('',(145.32266566387,-7.682472489608,
    -76.00822058446));
#653 = CARTESIAN_POINT('',(145.37095105022,-8.03005545156,
    -76.30952956808));
#654 = CARTESIAN_POINT('',(145.42159426498,-8.3585252391,-76.62058036551
    ));
#655 = CARTESIAN_POINT('',(145.47448564894,-8.668302773677,
    -76.94020826665));
#656 = CARTESIAN_POINT('',(145.57522788619,-9.201848093073,
    -77.53907812925));
#657 = CARTESIAN_POINT('',(145.62240143112,-9.431257788883,
    -77.81591458914));
#658 = CARTESIAN_POINT('',(145.67100605114,-9.64835870348,
    -78.09742329729));
#659 = CARTESIAN_POINT('',(145.72099176277,-9.853403889833,
    -78.3831015543));
#660 = CARTESIAN_POINT('',(145.77231201286,-10.04663821981,
    -78.67250110894));
#661 = CARTESIAN_POINT('',(145.82492444985,-10.22829854337,
    -78.9652277344));
#662 = CARTESIAN_POINT('',(145.92147703152,-10.53357463965,
    -79.49526895434));
#663 = CARTESIAN_POINT('',(145.96494916009,-10.66140782749,
    -79.73146608871));
#664 = CARTESIAN_POINT('',(146.00918878915,-10.7822249564,
    -79.96935892632));
#665 = CARTESIAN_POINT('',(146.05417698843,-10.89612965463,
    -80.20878653319));
#666 = CARTESIAN_POINT('',(146.09989534264,-11.00321816743,
    -80.44960013951));
#667 = CARTESIAN_POINT('',(146.14632610506,-11.10357989107,
    -80.69166295634));
#668 = CARTESIAN_POINT('',(146.32123482124,-11.45141361792,
    -81.59424985475));
#669 = CARTESIAN_POINT('',(146.45410716203,-11.65663660088,
    -82.26179408082));
#670 = CARTESIAN_POINT('',(146.59175946394,-11.81470963608,
    -82.93514425409));
#671 = CARTESIAN_POINT('',(146.73385473481,-11.92678236501,
    -83.61220241917));
#672 = CARTESIAN_POINT('',(146.88003166079,-11.993678663,-84.29107871525
    ));
#673 = CARTESIAN_POINT('',(147.02991532289,-12.01588068072,
    -84.97008932703));
#674 = CARTESIAN_POINT('',(147.33626393611,-11.97094329527,
    -86.32506831218));
#675 = CARTESIAN_POINT('',(147.49267339694,-11.90385851668,
    -87.00080814697));
#676 = CARTESIAN_POINT('',(147.65198226948,-11.79222002838,
    -87.67351770884));
#677 = CARTESIAN_POINT('',(147.81372009005,-11.63564179261,
    -88.34152778445));
#678 = CARTESIAN_POINT('',(147.97731318806,-11.4333833118,
    -89.00296466779));
#679 = CARTESIAN_POINT('',(148.1420783435,-11.18435611607,
    -89.65575133685));
#680 = CARTESIAN_POINT('',(148.36677082931,-10.77944724449,
    -90.52907549181));
#681 = CARTESIAN_POINT('',(148.42637885642,-10.66579879933,
    -90.75914559383));
#682 = CARTESIAN_POINT('',(148.4859897769,-10.54576328519,
    -90.98765427647));
#683 = CARTESIAN_POINT('',(148.54555944921,-10.41925599082,
    -91.21447332358));
#684 = CARTESIAN_POINT('',(148.60503942606,-10.28618507576,
    -91.43946278263));
#685 = CARTESIAN_POINT('',(148.66437676066,-10.14645076167,
    -91.66247075957));
#686 = CARTESIAN_POINT('',(148.79613759344,-9.820026240565,
    -92.15456530647));
#687 = CARTESIAN_POINT('',(148.86845680596,-9.629901473788,
    -92.42255232573));
#688 = CARTESIAN_POINT('',(148.94036654689,-9.429364169664,
    -92.68699736385));
#689 = CARTESIAN_POINT('',(149.01174575274,-9.218201373752,
    -92.94755541694));
#690 = CARTESIAN_POINT('',(149.08245650629,-8.996192149389,
    -93.20383291459));
#691 = CARTESIAN_POINT('',(149.15234334301,-8.763106496213,
    -93.45538724963));
#692 = CARTESIAN_POINT('',(149.30316297273,-8.228035022666,
    -93.99469903988));
#693 = CARTESIAN_POINT('',(149.38367159751,-7.921396072549,
    -94.28025731077));
#694 = CARTESIAN_POINT('',(149.46247501147,-7.598360579341,
    -94.55760292951));
#695 = CARTESIAN_POINT('',(149.53922635283,-7.258556488768,
    -94.82574505738));
#696 = CARTESIAN_POINT('',(149.61351894944,-6.901693270651,
    -95.08351549062));
#697 = CARTESIAN_POINT('',(149.68488995004,-6.527588658266,
    -95.32958394314));
#698 = CARTESIAN_POINT('',(149.80252968956,-5.849822020141,
    -95.73287308494));
#699 = CARTESIAN_POINT('',(149.85039024397,-5.554223553437,
    -95.89619930781));
#700 = CARTESIAN_POINT('',(149.89620088992,-5.249405984984,
    -96.05186297185));
#701 = CARTESIAN_POINT('',(149.93973529532,-4.935466060153,
    -96.19920914109));
#702 = CARTESIAN_POINT('',(149.98075004631,-4.612607280739,
    -96.33753220578));
#703 = CARTESIAN_POINT('',(150.01899228304,-4.281163285655,
    -96.46609857266));
#704 = CARTESIAN_POINT('',(150.10818899105,-3.42122710145,
    -96.76515417397));
#705 = CARTESIAN_POINT('',(150.155103731,-2.881432592623,-96.92162808172
    ));
#706 = CARTESIAN_POINT('',(150.19396612523,-2.324595103068,
    -97.05068539881));
#707 = CARTESIAN_POINT('',(150.223876399,-1.753761146723,-97.14970613344
    ));
#708 = CARTESIAN_POINT('',(150.2441086566,-1.172750111604,
    -97.21658607884));
#709 = CARTESIAN_POINT('',(150.25421686747,-0.586246788602,-97.25));
#710 = CARTESIAN_POINT('',(150.25421686747,-3.730349362741E-14,-97.25));
#711 = PCURVE('',#237,#712);
#712 = DEFINITIONAL_REPRESENTATION('',(#713),#788);
#713 = B_SPLINE_CURVE_WITH_KNOTS('',7,(#714,#715,#716,#717,#718,#719,
    #720,#721,#722,#723,#724,#725,#726,#727,#728,#729,#730,#731,#732,
    #733,#734,#735,#736,#737,#738,#739,#740,#741,#742,#743,#744,#745,
    #746,#747,#748,#749,#750,#751,#752,#753,#754,#755,#756,#757,#758,
    #759,#760,#761,#762,#763,#764,#765,#766,#767,#768,#769,#770,#771,
    #772,#773,#774,#775,#776,#777,#778,#779,#780,#781,#782,#783,#784,
    #785,#786,#787),.UNSPECIFIED.,.F.,.F.,(8,6,6,6,6,6,6,6,6,6,6,6,8),(
    0.,9.418779409384E-02,0.154971812035,0.238106314792,0.307102405562,
    0.36177610084,0.510023424063,0.658192810177,0.711640789512,
    0.7772780539,0.855340902774,0.912457676606,1.),.UNSPECIFIED.);
#714 = CARTESIAN_POINT('',(0.,144.91060240963));
#715 = CARTESIAN_POINT('',(5.256829842291E-02,144.91060240963));
#716 = CARTESIAN_POINT('',(0.105158602601,144.91601260855));
#717 = CARTESIAN_POINT('',(0.157450791847,144.9268408822));
#718 = CARTESIAN_POINT('',(0.209230333136,144.94292909068));
#719 = CARTESIAN_POINT('',(0.260328555783,144.96405699512));
#720 = CARTESIAN_POINT('',(0.310606169914,144.98994042958));
#721 = CARTESIAN_POINT('',(0.391779635681,145.03979169533));
#722 = CARTESIAN_POINT('',(0.423242903781,145.0611940548));
#723 = CARTESIAN_POINT('',(0.454315430731,145.08436868755));
#724 = CARTESIAN_POINT('',(0.484989929356,145.10923862211));
#725 = CARTESIAN_POINT('',(0.515265449711,145.13572942663));
#726 = CARTESIAN_POINT('',(0.545146467413,145.16377170684));
#727 = CARTESIAN_POINT('',(0.614985690859,145.23369470553));
#728 = CARTESIAN_POINT('',(0.654603223433,145.2768661332));
#729 = CARTESIAN_POINT('',(0.693527829413,145.32266566387));
#730 = CARTESIAN_POINT('',(0.731792928095,145.37095105022));
#731 = CARTESIAN_POINT('',(0.769434917943,145.42159426498));
#732 = CARTESIAN_POINT('',(0.80649488982,145.47448564894));
#733 = CARTESIAN_POINT('',(0.87333402715,145.57522788619));
#734 = CARTESIAN_POINT('',(0.903276313581,145.62240143112));
#735 = CARTESIAN_POINT('',(0.932872448542,145.67100605114));
#736 = CARTESIAN_POINT('',(0.962145730894,145.72099176277));
#737 = CARTESIAN_POINT('',(0.991118357548,145.77231201286));
#738 = CARTESIAN_POINT('',(1.019812271698,145.82492444985));
#739 = CARTESIAN_POINT('',(1.0707845674,145.92147703152));
#740 = CARTESIAN_POINT('',(1.093157648283,145.96494916009));
#741 = CARTESIAN_POINT('',(1.11538006125,146.00918878915));
#742 = CARTESIAN_POINT('',(1.137461992778,146.05417698843));
#743 = CARTESIAN_POINT('',(1.159413206446,146.09989534264));
#744 = CARTESIAN_POINT('',(1.181243241105,146.14632610506));
#745 = CARTESIAN_POINT('',(1.261850804281,146.32123482124));
#746 = CARTESIAN_POINT('',(1.319908168564,146.45410716203));
#747 = CARTESIAN_POINT('',(1.377337606439,146.59175946394));
#748 = CARTESIAN_POINT('',(1.43430182307,146.73385473481));
#749 = CARTESIAN_POINT('',(1.49095367304,146.88003166079));
#750 = CARTESIAN_POINT('',(1.547445461747,147.02991532289));
#751 = CARTESIAN_POINT('',(1.66042245728,147.33626393611));
#752 = CARTESIAN_POINT('',(1.716888455747,147.49267339694));
#753 = CARTESIAN_POINT('',(1.773519395505,147.65198226948));
#754 = CARTESIAN_POINT('',(1.83047083182,147.81372009005));
#755 = CARTESIAN_POINT('',(1.887901500595,147.97731318806));
#756 = CARTESIAN_POINT('',(1.945982963314,148.1420783435));
#757 = CARTESIAN_POINT('',(2.026201686621,148.36677082931));
#758 = CARTESIAN_POINT('',(2.047579264407,148.42637885642));
#759 = CARTESIAN_POINT('',(2.069078392924,148.4859897769));
#760 = CARTESIAN_POINT('',(2.090708788262,148.54555944921));
#761 = CARTESIAN_POINT('',(2.112480448762,148.60503942606));
#762 = CARTESIAN_POINT('',(2.134403865634,148.66437676066));
#763 = CARTESIAN_POINT('',(2.183613593322,148.79613759344));
#764 = CARTESIAN_POINT('',(2.210981748908,148.86845680596));
#765 = CARTESIAN_POINT('',(2.238616211864,148.94036654689));
#766 = CARTESIAN_POINT('',(2.266538025533,149.01174575274));
#767 = CARTESIAN_POINT('',(2.294768564321,149.08245650629));
#768 = CARTESIAN_POINT('',(2.323330332957,149.15234334301));
#769 = CARTESIAN_POINT('',(2.38663946698,149.30316297273));
#770 = CARTESIAN_POINT('',(2.421529869542,149.38367159751));
#771 = CARTESIAN_POINT('',(2.456963163783,149.46247501147));
#772 = CARTESIAN_POINT('',(2.492977796705,149.53922635283));
#773 = CARTESIAN_POINT('',(2.529607904462,149.61351894944));
#774 = CARTESIAN_POINT('',(2.566884744861,149.68488995004));
#775 = CARTESIAN_POINT('',(2.632607740354,149.80252968956));
#776 = CARTESIAN_POINT('',(2.660736576407,149.85039024397));
#777 = CARTESIAN_POINT('',(2.689234105436,149.89620088992));
#778 = CARTESIAN_POINT('',(2.718104496334,149.93973529532));
#779 = CARTESIAN_POINT('',(2.747346727106,149.98075004631));
#780 = CARTESIAN_POINT('',(2.776953708146,150.01899228304));
#781 = CARTESIAN_POINT('',(2.852824783625,150.10818899105));
#782 = CARTESIAN_POINT('',(2.899594851303,150.155103731));
#783 = CARTESIAN_POINT('',(2.947113944126,150.19396612523));
#784 = CARTESIAN_POINT('',(2.995255412009,150.223876399));
#785 = CARTESIAN_POINT('',(3.043863484979,150.2441086566));
#786 = CARTESIAN_POINT('',(3.09273875454,150.25421686747));
#787 = CARTESIAN_POINT('',(3.14159265359,150.25421686747));
#788 = ( GEOMETRIC_REPRESENTATION_CONTEXT(2) 
PARAMETRIC_REPRESENTATION_CONTEXT() REPRESENTATION_CONTEXT('2D SPACE',''
  ) );
#789 = PCURVE('',#790,#795);
#790 = CONICAL_SURFACE('',#791,162.5,0.219077129942);
#791 = AXIS2_PLACEMENT_3D('',#792,#793,#794);
#792 = CARTESIAN_POINT('',(0.,0.,-152.25));
#793 = DIRECTION('',(-0.,-0.,-1.));
#794 = DIRECTION('',(1.,0.,-0.));
#795 = DEFINITIONAL_REPRESENTATION('',(#796),#871);
#796 = B_SPLINE_CURVE_WITH_KNOTS('',7,(#797,#798,#799,#800,#801,#802,
    #803,#804,#805,#806,#807,#808,#809,#810,#811,#812,#813,#814,#815,
    #816,#817,#818,#819,#820,#821,#822,#823,#824,#825,#826,#827,#828,
    #829,#830,#831,#832,#833,#834,#835,#836,#837,#838,#839,#840,#841,
    #842,#843,#844,#845,#846,#847,#848,#849,#850,#851,#852,#853,#854,
    #855,#856,#857,#858,#859,#860,#861,#862,#863,#864,#865,#866,#867,
    #868,#869,#870),.UNSPECIFIED.,.F.,.F.,(8,6,6,6,6,6,6,6,6,6,6,6,8),(
    0.,9.418779409384E-02,0.154971812035,0.238106314792,0.307102405562,
    0.36177610084,0.510023424063,0.658192810177,0.711640789512,
    0.7772780539,0.855340902774,0.912457676606,1.),.UNSPECIFIED.);
#797 = CARTESIAN_POINT('',(-6.28318530718,-79.));
#798 = CARTESIAN_POINT('',(-6.278832143432,-79.));
#799 = CARTESIAN_POINT('',(-6.274477156325,-78.9613118831));
#800 = CARTESIAN_POINT('',(-6.270167463423,-78.88387843412));
#801 = CARTESIAN_POINT('',(-6.265941478462,-78.7693131486));
#802 = CARTESIAN_POINT('',(-6.261830599502,-78.62014444506));
#803 = CARTESIAN_POINT('',(-6.257859844706,-78.43953140666));
#804 = CARTESIAN_POINT('',(-6.25158875733,-78.09644110392));
#805 = CARTESIAN_POINT('',(-6.249194091786,-77.95017526994));
#806 = CARTESIAN_POINT('',(-6.246868364587,-77.79306539087));
#807 = CARTESIAN_POINT('',(-6.244614214522,-77.62596575064));
#808 = CARTESIAN_POINT('',(-6.242433243668,-77.44969803926));
#809 = CARTESIAN_POINT('',(-6.24032620721,-77.26502563105));
#810 = CARTESIAN_POINT('',(-6.235512530868,-76.80950469038));
#811 = CARTESIAN_POINT('',(-6.232870709553,-76.53197665222));
#812 = CARTESIAN_POINT('',(-6.230367326049,-76.24177941553));
#813 = CARTESIAN_POINT('',(-6.228000859107,-75.94047043191));
#814 = CARTESIAN_POINT('',(-6.225768875938,-75.62941963448));
#815 = CARTESIAN_POINT('',(-6.223668281933,-75.30979173334));
#816 = CARTESIAN_POINT('',(-6.22005835141,-74.71092187074));
#817 = CARTESIAN_POINT('',(-6.218509391502,-74.43408541085));
#818 = CARTESIAN_POINT('',(-6.21704677289,-74.1525767027));
#819 = CARTESIAN_POINT('',(-6.215668626883,-73.86689844569));
#820 = CARTESIAN_POINT('',(-6.214373135753,-73.57749889105));
#821 = CARTESIAN_POINT('',(-6.213158534611,-73.28477226559));
#822 = CARTESIAN_POINT('',(-6.211123385813,-72.75473104565));
#823 = CARTESIAN_POINT('',(-6.210273402543,-72.51853391128));
#824 = CARTESIAN_POINT('',(-6.209472328341,-72.28064107367));
#825 = CARTESIAN_POINT('',(-6.208719381505,-72.0412134668));
#826 = CARTESIAN_POINT('',(-6.208013830472,-71.80039986049));
#827 = CARTESIAN_POINT('',(-6.207354990508,-71.55833704366));
#828 = CARTESIAN_POINT('',(-6.205080698739,-70.65575014524));
#829 = CARTESIAN_POINT('',(-6.203758198233,-69.98820591917));
#830 = CARTESIAN_POINT('',(-6.20276135906,-69.3148557459));
#831 = CARTESIAN_POINT('',(-6.202080853644,-68.63779758082));
#832 = CARTESIAN_POINT('',(-6.201709563992,-67.95892128474));
#833 = CARTESIAN_POINT('',(-6.20164270939,-67.27991067296));
#834 = CARTESIAN_POINT('',(-6.202114499301,-65.92493168781));
#835 = CARTESIAN_POINT('',(-6.202652745223,-65.24919185302));
#836 = CARTESIAN_POINT('',(-6.203491441692,-64.57648229115));
#837 = CARTESIAN_POINT('',(-6.204631667919,-63.90847221554));
#838 = CARTESIAN_POINT('',(-6.206076854226,-63.24703533221));
#839 = CARTESIAN_POINT('',(-6.207832758422,-62.59424866314));
#840 = CARTESIAN_POINT('',(-6.210658947987,-61.72092450818));
#841 = CARTESIAN_POINT('',(-6.211449884912,-61.49085440616));
#842 = CARTESIAN_POINT('',(-6.212282999713,-61.26234572352));
#843 = CARTESIAN_POINT('',(-6.213158786792,-61.03552667641));
#844 = CARTESIAN_POINT('',(-6.214077787963,-60.81053721736));
#845 = CARTESIAN_POINT('',(-6.215040598259,-60.58752924042));
#846 = CARTESIAN_POINT('',(-6.217284862872,-60.09543469352));
#847 = CARTESIAN_POINT('',(-6.218588865864,-59.82744767426));
#848 = CARTESIAN_POINT('',(-6.219961127242,-59.56300263614));
#849 = CARTESIAN_POINT('',(-6.221402937831,-59.30244458305));
#850 = CARTESIAN_POINT('',(-6.222915643052,-59.0461670854));
#851 = CARTESIAN_POINT('',(-6.224500653201,-58.79461275036));
#852 = CARTESIAN_POINT('',(-6.228132276593,-58.25530096011));
#853 = CARTESIAN_POINT('',(-6.23020922073,-57.96974268922));
#854 = CARTESIAN_POINT('',(-6.23239294333,-57.69239707048));
#855 = CARTESIAN_POINT('',(-6.234685738131,-57.42425494261));
#856 = CARTESIAN_POINT('',(-6.237089377558,-57.16648450937));
#857 = CARTESIAN_POINT('',(-6.239604954868,-56.92041605686));
#858 = CARTESIAN_POINT('',(-6.244155405603,-56.51712691505));
#859 = CARTESIAN_POINT('',(-6.246137944158,-56.35380069218));
#860 = CARTESIAN_POINT('',(-6.248180278967,-56.19813702815));
#861 = CARTESIAN_POINT('',(-6.250281758926,-56.0507908589));
#862 = CARTESIAN_POINT('',(-6.252441046429,-55.91246779421));
#863 = CARTESIAN_POINT('',(-6.254655968253,-55.78390142733));
#864 = CARTESIAN_POINT('',(-6.260398457138,-55.48484582602));
#865 = CARTESIAN_POINT('',(-6.263999337015,-55.32837191827));
#866 = CARTESIAN_POINT('',(-6.267710589308,-55.19931460118));
#867 = CARTESIAN_POINT('',(-6.271512439216,-55.10029386655));
#868 = CARTESIAN_POINT('',(-6.275380201029,-55.03341392115));
#869 = CARTESIAN_POINT('',(-6.279283607774,-55.));
#870 = CARTESIAN_POINT('',(-6.28318530718,-55.));
#871 = ( GEOMETRIC_REPRESENTATION_CONTEXT(2) 
PARAMETRIC_REPRESENTATION_CONTEXT() REPRESENTATION_CONTEXT('2D SPACE',''
  ) );
#872 = ORIENTED_EDGE('',*,*,#873,.T.);
#873 = EDGE_CURVE('',#633,#610,#874,.T.);
#874 = SURFACE_CURVE('',#875,(#950,#1028),.PCURVE_S1.);
#875 = B_SPLINE_CURVE_WITH_KNOTS('',7,(#876,#877,#878,#879,#880,#881,
    #882,#883,#884,#885,#886,#887,#888,#889,#890,#891,#892,#893,#894,
    #895,#896,#897,#898,#899,#900,#901,#902,#903,#904,#905,#906,#907,
    #908,#909,#910,#911,#912,#913,#914,#915,#916,#917,#918,#919,#920,
    #921,#922,#923,#924,#925,#926,#927,#928,#929,#930,#931,#932,#933,
    #934,#935,#936,#937,#938,#939,#940,#941,#942,#943,#944,#945,#946,
    #947,#948,#949),.UNSPECIFIED.,.F.,.F.,(8,6,6,6,6,6,6,6,6,6,6,6,8),(
    0.,8.754203157402E-02,0.14465860511,0.223233319548,0.288904196381,
    0.341806100289,0.489974975049,0.638789605596,0.693442528724,
    0.762404509068,0.845490177575,0.906670080934,1.),.UNSPECIFIED.);
#876 = CARTESIAN_POINT('',(150.25421686747,-3.680166914903E-14,-97.25));
#877 = CARTESIAN_POINT('',(150.25421686747,0.586246754839,-97.25));
#878 = CARTESIAN_POINT('',(150.24410865777,1.17275004377,-97.21658608269
    ));
#879 = CARTESIAN_POINT('',(150.22387640252,1.753761055129,
    -97.14970614506));
#880 = CARTESIAN_POINT('',(150.19396613119,2.324595004744,
    -97.05068541855));
#881 = CARTESIAN_POINT('',(150.15510373803,2.881432507614,
    -96.92162810511));
#882 = CARTESIAN_POINT('',(150.10818899638,3.421227050029,
    -96.76515419186));
#883 = CARTESIAN_POINT('',(150.01899228567,4.281163260361,
    -96.46609858146));
#884 = CARTESIAN_POINT('',(149.98075005108,4.612607240259,
    -96.33753222184));
#885 = CARTESIAN_POINT('',(149.93973530146,4.935466013671,
    -96.19920916182));
#886 = CARTESIAN_POINT('',(149.89620089639,5.249405940697,
    -96.05186299379));
#887 = CARTESIAN_POINT('',(149.85039024957,5.554223518442,-95.8961993269
    ));
#888 = CARTESIAN_POINT('',(149.802529693,5.849822000327,-95.73287309673)
  );
#889 = CARTESIAN_POINT('',(149.68444425575,6.530156470156,-95.3280560269
    ));
#890 = CARTESIAN_POINT('',(149.6125824688,6.906600411417,-95.08028670566
    ));
#891 = CARTESIAN_POINT('',(149.53776406052,7.265576529694,
    -94.82067119264));
#892 = CARTESIAN_POINT('',(149.46046059728,7.607271945446,
    -94.55056480165));
#893 = CARTESIAN_POINT('',(149.38108604517,7.931984156893,
    -94.27115669462));
#894 = CARTESIAN_POINT('',(149.29999306937,8.240093615532,
    -93.98345424316));
#895 = CARTESIAN_POINT('',(149.14849795854,8.776035052636,
    -93.44155724162));
#896 = CARTESIAN_POINT('',(149.07853483332,9.008714496262,
    -93.18964609029));
#897 = CARTESIAN_POINT('',(149.00775324047,9.230315248506,
    -92.93302482548));
#898 = CARTESIAN_POINT('',(148.936308261,9.441067553504,-92.67213495459)
  );
#899 = CARTESIAN_POINT('',(148.86433747115,9.641192397107,
    -92.40736908377));
#900 = CARTESIAN_POINT('',(148.79196163921,9.83090262043,-92.13907139846
    ));
#901 = CARTESIAN_POINT('',(148.66074028896,10.155003389461,
    -91.64880151638));
#902 = CARTESIAN_POINT('',(148.60200184453,10.292973818348,
    -91.42797124608));
#903 = CARTESIAN_POINT('',(148.54312577651,10.424420245329,
    -91.20520584808));
#904 = CARTESIAN_POINT('',(148.48416328241,10.549439208207,
    -90.98065221738));
#905 = CARTESIAN_POINT('',(148.42516125339,10.668119625568,
    -90.75444582307));
#906 = CARTESIAN_POINT('',(148.3661624579,10.780543565004,
    -90.52671090251));
#907 = CARTESIAN_POINT('',(148.14207834653,11.184356110609,
    -89.65575134864));
#908 = CARTESIAN_POINT('',(147.97731319247,11.433383305618,
    -89.00296468537));
#909 = CARTESIAN_POINT('',(147.81372009459,11.635641787818,
    -88.34152780306));
#910 = CARTESIAN_POINT('',(147.65198227333,11.792220025567,
    -87.67351772504));
#911 = CARTESIAN_POINT('',(147.4926733996,11.903858515547,
    -87.00080815849));
#912 = CARTESIAN_POINT('',(147.33626393742,11.970943295087,
    -86.32506831796));
#913 = CARTESIAN_POINT('',(147.02932847495,12.015966763742,
    -84.96749370036));
#914 = CARTESIAN_POINT('',(146.87888385125,11.993507887909,
    -84.28587857421));
#915 = CARTESIAN_POINT('',(146.73217579306,11.926011946205,
    -83.60440430579));
#916 = CARTESIAN_POINT('',(146.58958340833,11.8129892319,-82.92477423867
    ));
#917 = CARTESIAN_POINT('',(146.45147215187,11.65360328845,
    -82.24890186025));
#918 = CARTESIAN_POINT('',(146.31818284704,11.446687650553,
    -81.57891282845));
#919 = CARTESIAN_POINT('',(146.14296372877,11.096375063946,
    -80.67415298274));
#920 = CARTESIAN_POINT('',(146.09659441266,10.995635490457,
    -80.43225764582));
#921 = CARTESIAN_POINT('',(146.05093787649,10.888169648204,
    -80.19161752842));
#922 = CARTESIAN_POINT('',(146.00601186479,10.773887938866,
    -79.95236969647));
#923 = CARTESIAN_POINT('',(145.96183479639,10.652693937379,
    -79.71466324357));
#924 = CARTESIAN_POINT('',(145.91842561056,10.524483859123,
    -79.47865947457));
#925 = CARTESIAN_POINT('',(145.82202245746,10.218374467637,
    -78.94910620484));
#926 = CARTESIAN_POINT('',(145.7694964564,10.036260281987,-78.6566778844
    ));
#927 = CARTESIAN_POINT('',(145.71826300204,9.84257427622,-78.36758845908
    ));
#928 = CARTESIAN_POINT('',(145.66836447831,9.637079530704,
    -78.08223301989));
#929 = CARTESIAN_POINT('',(145.61984748812,9.419531274054,
    -77.80106083023));
#930 = CARTESIAN_POINT('',(145.5727620807,9.189676757077,-77.52457573831
    ));
#931 = CARTESIAN_POINT('',(145.47222059001,8.655184581203,
    -76.92654658347));
#932 = CARTESIAN_POINT('',(145.41944167013,8.344909868798,
    -76.60741386487));
#933 = CARTESIAN_POINT('',(145.36891149442,8.015951936331,
    -76.29688221175));
#934 = CARTESIAN_POINT('',(145.32073988325,7.66789175422,-75.99611867952
    ));
#935 = CARTESIAN_POINT('',(145.27505504029,7.300403902407,
    -75.70649564322));
#936 = CARTESIAN_POINT('',(145.23199939044,6.913290156291,
    -75.42957283965));
#937 = CARTESIAN_POINT('',(145.16206978899,6.206983886559,
    -74.97379309448));
#938 = CARTESIAN_POINT('',(145.13392577634,5.896825618305,
    -74.78835149692));
#939 = CARTESIAN_POINT('',(145.10735654545,5.57605101625,-74.61145792722
    ));
#940 = CARTESIAN_POINT('',(145.08243307619,5.244776888499,
    -74.44389316752));
#941 = CARTESIAN_POINT('',(145.05923147721,4.903243375934,
    -74.28649744009));
#942 = CARTESIAN_POINT('',(145.03783038287,4.551841591527,
    -74.14014349055));
#943 = CARTESIAN_POINT('',(144.98852770515,3.640914171002,
    -73.80060849196));
#944 = CARTESIAN_POINT('',(144.96309648229,3.06862407642,-73.62307321439
    ));
#945 = CARTESIAN_POINT('',(144.94234359318,2.476966805674,
    -73.47651748651));
#946 = CARTESIAN_POINT('',(144.92654464082,1.869420182552,
    -73.36400309458));
#947 = CARTESIAN_POINT('',(144.91591360155,1.250333113204,
    -73.28798013345));
#948 = CARTESIAN_POINT('',(144.91060240963,0.625021276309,-73.25));
#949 = CARTESIAN_POINT('',(144.91060240963,2.939152317954E-15,-73.25));
#950 = PCURVE('',#237,#951);
#951 = DEFINITIONAL_REPRESENTATION('',(#952),#1027);
#952 = B_SPLINE_CURVE_WITH_KNOTS('',7,(#953,#954,#955,#956,#957,#958,
    #959,#960,#961,#962,#963,#964,#965,#966,#967,#968,#969,#970,#971,
    #972,#973,#974,#975,#976,#977,#978,#979,#980,#981,#982,#983,#984,
    #985,#986,#987,#988,#989,#990,#991,#992,#993,#994,#995,#996,#997,
    #998,#999,#1000,#1001,#1002,#1003,#1004,#1005,#1006,#1007,#1008,
    #1009,#1010,#1011,#1012,#1013,#1014,#1015,#1016,#1017,#1018,#1019,
    #1020,#1021,#1022,#1023,#1024,#1025,#1026),.UNSPECIFIED.,.F.,.F.,(8,
    6,6,6,6,6,6,6,6,6,6,6,8),(0.,8.754203157402E-02,0.14465860511,
    0.223233319548,0.288904196381,0.341806100289,0.489974975049,
    0.638789605596,0.693442528724,0.762404509068,0.845490177575,
    0.906670080934,1.),.UNSPECIFIED.);
#953 = CARTESIAN_POINT('',(3.14159265359,150.25421686747));
#954 = CARTESIAN_POINT('',(3.190446549826,150.25421686747));
#955 = CARTESIAN_POINT('',(3.239321816548,150.24410865777));
#956 = CARTESIAN_POINT('',(3.287929887505,150.22387640252));
#957 = CARTESIAN_POINT('',(3.336071354728,150.19396613119));
#958 = CARTESIAN_POINT('',(3.383590448545,150.15510373803));
#959 = CARTESIAN_POINT('',(3.430360519017,150.10818899638));
#960 = CARTESIAN_POINT('',(3.506231596801,150.01899228567));
#961 = CARTESIAN_POINT('',(3.535838576448,149.98075005108));
#962 = CARTESIAN_POINT('',(3.56508080661,149.93973530146));
#963 = CARTESIAN_POINT('',(3.593951197629,149.89620089639));
#964 = CARTESIAN_POINT('',(3.622448727454,149.85039024957));
#965 = CARTESIAN_POINT('',(3.650577564905,149.802529693));
#966 = CARTESIAN_POINT('',(3.716549562903,149.68444425575));
#967 = CARTESIAN_POINT('',(3.754066410817,149.6125824688));
#968 = CARTESIAN_POINT('',(3.790928225479,149.53776406052));
#969 = CARTESIAN_POINT('',(3.827166933049,149.46046059728));
#970 = CARTESIAN_POINT('',(3.862817368581,149.38108604517));
#971 = CARTESIAN_POINT('',(3.897918763189,149.29999306937));
#972 = CARTESIAN_POINT('',(3.961431971805,149.14849795854));
#973 = CARTESIAN_POINT('',(3.989992582944,149.07853483332));
#974 = CARTESIAN_POINT('',(4.018222523981,149.00775324047));
#975 = CARTESIAN_POINT('',(4.046144316968,148.936308261));
#976 = CARTESIAN_POINT('',(4.073779346405,148.86433747115));
#977 = CARTESIAN_POINT('',(4.101148658992,148.79196163921));
#978 = CARTESIAN_POINT('',(4.150124692371,148.66074028896));
#979 = CARTESIAN_POINT('',(4.171816533672,148.60200184453));
#980 = CARTESIAN_POINT('',(4.193360120718,148.54312577651));
#981 = CARTESIAN_POINT('',(4.214765615564,148.48416328241));
#982 = CARTESIAN_POINT('',(4.236042708664,148.42516125339));
#983 = CARTESIAN_POINT('',(4.257200818644,148.3661624579));
#984 = CARTESIAN_POINT('',(4.337202342782,148.14207834653));
#985 = CARTESIAN_POINT('',(4.395283805038,147.97731319247));
#986 = CARTESIAN_POINT('',(4.452714473766,147.81372009459));
#987 = CARTESIAN_POINT('',(4.50966591031,147.65198227333));
#988 = CARTESIAN_POINT('',(4.56629685047,147.4926733996));
#989 = CARTESIAN_POINT('',(4.622762849419,147.33626393742));
#990 = CARTESIAN_POINT('',(4.735956266577,147.02932847495));
#991 = CARTESIAN_POINT('',(4.792664269033,146.87888385125));
#992 = CARTESIAN_POINT('',(4.849534241824,146.73217579306));
#993 = CARTESIAN_POINT('',(4.906720219603,146.58958340833));
#994 = CARTESIAN_POINT('',(4.964376816656,146.45147215187));
#995 = CARTESIAN_POINT('',(5.022668641745,146.31818284704));
#996 = CARTESIAN_POINT('',(5.103519554213,146.14296372877));
#997 = CARTESIAN_POINT('',(5.125348784419,146.09659441266));
#998 = CARTESIAN_POINT('',(5.147299592968,146.05093787649));
#999 = CARTESIAN_POINT('',(5.169381520597,146.00601186479));
#1000 = CARTESIAN_POINT('',(5.19160433272,145.96183479639));
#1001 = CARTESIAN_POINT('',(5.213978217833,145.91842561056));
#1002 = CARTESIAN_POINT('',(5.264949998222,145.82202245746));
#1003 = CARTESIAN_POINT('',(5.293642772483,145.7694964564));
#1004 = CARTESIAN_POINT('',(5.322614845613,145.71826300204));
#1005 = CARTESIAN_POINT('',(5.351888154233,145.66836447831));
#1006 = CARTESIAN_POINT('',(5.38148488238,145.61984748812));
#1007 = CARTESIAN_POINT('',(5.411428309217,145.5727620807));
#1008 = CARTESIAN_POINT('',(5.478267708157,145.47222059001));
#1009 = CARTESIAN_POINT('',(5.515326934036,145.41944167013));
#1010 = CARTESIAN_POINT('',(5.55296876141,145.36891149442));
#1011 = CARTESIAN_POINT('',(5.591234180853,145.32073988325));
#1012 = CARTESIAN_POINT('',(5.630159440203,145.27505504029));
#1013 = CARTESIAN_POINT('',(5.669777738281,145.23199939044));
#1014 = CARTESIAN_POINT('',(5.739827508423,145.16206978899));
#1015 = CARTESIAN_POINT('',(5.769923888267,145.13392577634));
#1016 = CARTESIAN_POINT('',(5.800420230616,145.10735654545));
#1017 = CARTESIAN_POINT('',(5.831320897653,145.08243307619));
#1018 = CARTESIAN_POINT('',(5.862624644078,145.05923147721));
#1019 = CARTESIAN_POINT('',(5.89432365485,145.03783038287));
#1020 = CARTESIAN_POINT('',(5.975336033051,144.98852770515));
#1021 = CARTESIAN_POINT('',(6.025190754659,144.96309648229));
#1022 = CARTESIAN_POINT('',(6.075847410693,144.94234359318));
#1023 = CARTESIAN_POINT('',(6.127169453942,144.92654464082));
#1024 = CARTESIAN_POINT('',(6.178990891861,144.91591360155));
#1025 = CARTESIAN_POINT('',(6.23110020082,144.91060240963));
#1026 = CARTESIAN_POINT('',(6.28318530718,144.91060240963));
#1027 = ( GEOMETRIC_REPRESENTATION_CONTEXT(2) 
PARAMETRIC_REPRESENTATION_CONTEXT() REPRESENTATION_CONTEXT('2D SPACE',''
  ) );
#1028 = PCURVE('',#790,#1029);
#1029 = DEFINITIONAL_REPRESENTATION('',(#1030),#1105);
#1030 = B_SPLINE_CURVE_WITH_KNOTS('',7,(#1031,#1032,#1033,#1034,#1035,
    #1036,#1037,#1038,#1039,#1040,#1041,#1042,#1043,#1044,#1045,#1046,
    #1047,#1048,#1049,#1050,#1051,#1052,#1053,#1054,#1055,#1056,#1057,
    #1058,#1059,#1060,#1061,#1062,#1063,#1064,#1065,#1066,#1067,#1068,
    #1069,#1070,#1071,#1072,#1073,#1074,#1075,#1076,#1077,#1078,#1079,
    #1080,#1081,#1082,#1083,#1084,#1085,#1086,#1087,#1088,#1089,#1090,
    #1091,#1092,#1093,#1094,#1095,#1096,#1097,#1098,#1099,#1100,#1101,
    #1102,#1103,#1104),.UNSPECIFIED.,.F.,.F.,(8,6,6,6,6,6,6,6,6,6,6,6,8)
  ,(0.,8.754203157402E-02,0.14465860511,0.223233319548,0.288904196381,
    0.341806100289,0.489974975049,0.638789605596,0.693442528724,
    0.762404509068,0.845490177575,0.906670080934,1.),.UNSPECIFIED.);
#1031 = CARTESIAN_POINT('',(0.,-55.));
#1032 = CARTESIAN_POINT('',(-3.90169918064E-03,-55.));
#1033 = CARTESIAN_POINT('',(-7.80510569869E-03,-55.0334139173));
#1034 = CARTESIAN_POINT('',(-1.167286735357E-02,-55.10029385493));
#1035 = CARTESIAN_POINT('',(-1.547471721612E-02,-55.19931458144));
#1036 = CARTESIAN_POINT('',(-1.91859695975E-02,-55.32837189488));
#1037 = CARTESIAN_POINT('',(-2.27868496986E-02,-55.48484580814));
#1038 = CARTESIAN_POINT('',(-2.85293387573E-02,-55.78390141854));
#1039 = CARTESIAN_POINT('',(-3.074426048042E-02,-55.91246777815));
#1040 = CARTESIAN_POINT('',(-3.290354794248E-02,-56.05079083817));
#1041 = CARTESIAN_POINT('',(-3.500502791609E-02,-56.1981370062));
#1042 = CARTESIAN_POINT('',(-3.704736278663E-02,-56.35380067309));
#1043 = CARTESIAN_POINT('',(-3.902990144336E-02,-56.51712690326));
#1044 = CARTESIAN_POINT('',(-4.35975923184E-02,-56.9219439731));
#1045 = CARTESIAN_POINT('',(-4.612892671031E-02,-57.16971329433));
#1046 = CARTESIAN_POINT('',(-4.85468528266E-02,-57.42932880735));
#1047 = CARTESIAN_POINT('',(-5.085249349795E-02,-57.69943519834));
#1048 = CARTESIAN_POINT('',(-5.304766381484E-02,-57.97884330537));
#1049 = CARTESIAN_POINT('',(-5.513470930812E-02,-58.26654575683));
#1050 = CARTESIAN_POINT('',(-5.877254736522E-02,-58.80844275837));
#1051 = CARTESIAN_POINT('',(-6.035493914275E-02,-59.0603539097));
#1052 = CARTESIAN_POINT('',(-6.186500766996E-02,-59.31697517452));
#1053 = CARTESIAN_POINT('',(-6.330416454548E-02,-59.5778650454));
#1054 = CARTESIAN_POINT('',(-6.467375524053E-02,-59.84263091622));
#1055 = CARTESIAN_POINT('',(-6.597506958076E-02,-60.11092860153));
#1056 = CARTESIAN_POINT('',(-6.820364231751E-02,-60.60119848361));
#1057 = CARTESIAN_POINT('',(-6.915440516346E-02,-60.82202875391));
#1058 = CARTESIAN_POINT('',(-7.00622729192E-02,-61.04479415191));
#1059 = CARTESIAN_POINT('',(-7.092782113857E-02,-61.26934778261));
#1060 = CARTESIAN_POINT('',(-7.175157429632E-02,-61.49555417692));
#1061 = CARTESIAN_POINT('',(-7.253401130854E-02,-61.72328909748));
#1062 = CARTESIAN_POINT('',(-7.535254871912E-02,-62.59424865135));
#1063 = CARTESIAN_POINT('',(-7.710845291027E-02,-63.24703531462));
#1064 = CARTESIAN_POINT('',(-7.855363922587E-02,-63.90847219693));
#1065 = CARTESIAN_POINT('',(-7.969386546662E-02,-64.57648227495));
#1066 = CARTESIAN_POINT('',(-8.053256194737E-02,-65.2491918415));
#1067 = CARTESIAN_POINT('',(-8.107080787667E-02,-65.92493168204));
#1068 = CARTESIAN_POINT('',(-8.154350155992E-02,-67.28250629963));
#1069 = CARTESIAN_POINT('',(-8.147522614932E-02,-67.96412142578));
#1070 = CARTESIAN_POINT('',(-8.110017501599E-02,-68.64559569419));
#1071 = CARTESIAN_POINT('',(-8.041349886135E-02,-69.32522576132));
#1072 = CARTESIAN_POINT('',(-7.940797649717E-02,-70.00109813974));
#1073 = CARTESIAN_POINT('',(-7.807414843491E-02,-70.67108717154));
#1074 = CARTESIAN_POINT('',(-7.578303839202E-02,-71.57584701725));
#1075 = CARTESIAN_POINT('',(-7.512156081887E-02,-71.81774235417));
#1076 = CARTESIAN_POINT('',(-7.441337249451E-02,-72.05838247157));
#1077 = CARTESIAN_POINT('',(-7.365778738795E-02,-72.29763030352));
#1078 = CARTESIAN_POINT('',(-7.285407279498E-02,-72.53533675642));
#1079 = CARTESIAN_POINT('',(-7.200144603944E-02,-72.77134052542));
#1080 = CARTESIAN_POINT('',(-6.996043934821E-02,-73.30089379515));
#1081 = CARTESIAN_POINT('',(-6.874263985297E-02,-73.59332211559));
#1082 = CARTESIAN_POINT('',(-6.744396136652E-02,-73.88241154092));
#1083 = CARTESIAN_POINT('',(-6.606263879627E-02,-74.1677669801));
#1084 = CARTESIAN_POINT('',(-6.459685540473E-02,-74.44893916976));
#1085 = CARTESIAN_POINT('',(-6.304474493473E-02,-74.72542426168));
#1086 = CARTESIAN_POINT('',(-5.942809207724E-02,-75.32345341652));
#1087 = CARTESIAN_POINT('',(-5.732395898073E-02,-75.64258613512));
#1088 = CARTESIAN_POINT('',(-5.508849614474E-02,-75.95311778824));
#1089 = CARTESIAN_POINT('',(-5.271862285856E-02,-76.25388132047));
#1090 = CARTESIAN_POINT('',(-5.021192793193E-02,-76.54350435677));
#1091 = CARTESIAN_POINT('',(-4.756692162577E-02,-76.82042716034));
#1092 = CARTESIAN_POINT('',(-4.273356631609E-02,-77.27620690551));
#1093 = CARTESIAN_POINT('',(-4.060890273246E-02,-77.46164850307));
#1094 = CARTESIAN_POINT('',(-3.840936128301E-02,-77.63854207277));
#1095 = CARTESIAN_POINT('',(-3.613574133072E-02,-77.80610683247));
#1096 = CARTESIAN_POINT('',(-3.378971854207E-02,-77.9635025599));
#1097 = CARTESIAN_POINT('',(-3.137404220791E-02,-78.10985650944));
#1098 = CARTESIAN_POINT('',(-2.510763690582E-02,-78.44939150803));
#1099 = CARTESIAN_POINT('',(-2.116688450319E-02,-78.6269267856));
#1100 = CARTESIAN_POINT('',(-1.708936015932E-02,-78.77348251348));
#1101 = CARTESIAN_POINT('',(-1.289958049247E-02,-78.8859969054));
#1102 = CARTESIAN_POINT('',(-8.628306652407E-03,-78.96201986655));
#1103 = CARTESIAN_POINT('',(-4.31315076962E-03,-79.));
#1104 = CARTESIAN_POINT('',(0.,-79.));
#1105 = ( GEOMETRIC_REPRESENTATION_CONTEXT(2) 
PARAMETRIC_REPRESENTATION_CONTEXT() REPRESENTATION_CONTEXT('2D SPACE',''
  ) );
#1106 = ORIENTED_EDGE('',*,*,#609,.T.);
#1107 = ORIENTED_EDGE('',*,*,#79,.F.);
#1108 = ADVANCED_FACE('',(#1109,#1112),#358,.F.);
#1109 = FACE_BOUND('',#1110,.F.);
#1110 = EDGE_LOOP('',(#1111));
#1111 = ORIENTED_EDGE('',*,*,#343,.T.);
#1112 = FACE_BOUND('',#1113,.F.);
#1113 = EDGE_LOOP('',(#1114));
#1114 = ORIENTED_EDGE('',*,*,#1115,.F.);
#1115 = EDGE_CURVE('',#1116,#1116,#1118,.T.);
#1116 = VERTEX_POINT('',#1117);
#1117 = CARTESIAN_POINT('',(162.27734939759,-3.974648730278E-14,-151.25)
  );
#1118 = SURFACE_CURVE('',#1119,(#1124,#1131),.PCURVE_S1.);
#1119 = CIRCLE('',#1120,162.27734939759);
#1120 = AXIS2_PLACEMENT_3D('',#1121,#1122,#1123);
#1121 = CARTESIAN_POINT('',(0.,0.,-151.25));
#1122 = DIRECTION('',(0.,0.,1.));
#1123 = DIRECTION('',(1.,0.,-0.));
#1124 = PCURVE('',#358,#1125);
#1125 = DEFINITIONAL_REPRESENTATION('',(#1126),#1130);
#1126 = CIRCLE('',#1127,162.27734939759);
#1127 = AXIS2_PLACEMENT_2D('',#1128,#1129);
#1128 = CARTESIAN_POINT('',(0.,0.));
#1129 = DIRECTION('',(1.,0.));
#1130 = ( GEOMETRIC_REPRESENTATION_CONTEXT(2) 
PARAMETRIC_REPRESENTATION_CONTEXT() REPRESENTATION_CONTEXT('2D SPACE',''
  ) );
#1131 = PCURVE('',#790,#1132);
#1132 = DEFINITIONAL_REPRESENTATION('',(#1133),#1137);
#1133 = LINE('',#1134,#1135);
#1134 = CARTESIAN_POINT('',(-0.,-1.));
#1135 = VECTOR('',#1136,1.);
#1136 = DIRECTION('',(-1.,-0.));
#1137 = ( GEOMETRIC_REPRESENTATION_CONTEXT(2) 
PARAMETRIC_REPRESENTATION_CONTEXT() REPRESENTATION_CONTEXT('2D SPACE',''
  ) );
#1138 = ADVANCED_FACE('',(#1139,#1142),#66,.T.);
#1139 = FACE_BOUND('',#1140,.T.);
#1140 = EDGE_LOOP('',(#1141));
#1141 = ORIENTED_EDGE('',*,*,#51,.T.);
#1142 = FACE_BOUND('',#1143,.T.);
#1143 = EDGE_LOOP('',(#1144));
#1144 = ORIENTED_EDGE('',*,*,#1145,.F.);
#1145 = EDGE_CURVE('',#1146,#1146,#1148,.T.);
#1146 = VERTEX_POINT('',#1147);
#1147 = CARTESIAN_POINT('',(139.62265060241,-3.419768642974E-14,-49.5));
#1148 = SURFACE_CURVE('',#1149,(#1154,#1161),.PCURVE_S1.);
#1149 = CIRCLE('',#1150,139.62265060241);
#1150 = AXIS2_PLACEMENT_3D('',#1151,#1152,#1153);
#1151 = CARTESIAN_POINT('',(0.,0.,-49.5));
#1152 = DIRECTION('',(0.,0.,1.));
#1153 = DIRECTION('',(1.,0.,-0.));
#1154 = PCURVE('',#66,#1155);
#1155 = DEFINITIONAL_REPRESENTATION('',(#1156),#1160);
#1156 = CIRCLE('',#1157,139.62265060241);
#1157 = AXIS2_PLACEMENT_2D('',#1158,#1159);
#1158 = CARTESIAN_POINT('',(0.,0.));
#1159 = DIRECTION('',(1.,0.));
#1160 = ( GEOMETRIC_REPRESENTATION_CONTEXT(2) 
PARAMETRIC_REPRESENTATION_CONTEXT() REPRESENTATION_CONTEXT('2D SPACE',''
  ) );
#1161 = PCURVE('',#790,#1162);
#1162 = DEFINITIONAL_REPRESENTATION('',(#1163),#1167);
#1163 = LINE('',#1164,#1165);
#1164 = CARTESIAN_POINT('',(-0.,-102.75));
#1165 = VECTOR('',#1166,1.);
#1166 = DIRECTION('',(-1.,-0.));
#1167 = ( GEOMETRIC_REPRESENTATION_CONTEXT(2) 
PARAMETRIC_REPRESENTATION_CONTEXT() REPRESENTATION_CONTEXT('2D SPACE',''
  ) );
#1168 = ADVANCED_FACE('',(#1169),#790,.F.);
#1169 = FACE_BOUND('',#1170,.F.);
#1170 = EDGE_LOOP('',(#1171,#1192,#1193,#1194,#1195,#1216,#1217,#1218));
#1171 = ORIENTED_EDGE('',*,*,#1172,.T.);
#1172 = EDGE_CURVE('',#610,#1146,#1173,.T.);
#1173 = SEAM_CURVE('',#1174,(#1178,#1185),.PCURVE_S1.);
#1174 = LINE('',#1175,#1176);
#1175 = CARTESIAN_POINT('',(162.5,-3.980102097229E-14,-152.25));
#1176 = VECTOR('',#1177,1.);
#1177 = DIRECTION('',(-0.217328903741,5.323022926583E-17,0.976098431306)
  );
#1178 = PCURVE('',#790,#1179);
#1179 = DEFINITIONAL_REPRESENTATION('',(#1180),#1184);
#1180 = LINE('',#1181,#1182);
#1181 = CARTESIAN_POINT('',(-6.28318530718,0.));
#1182 = VECTOR('',#1183,1.);
#1183 = DIRECTION('',(-0.,-1.));
#1184 = ( GEOMETRIC_REPRESENTATION_CONTEXT(2) 
PARAMETRIC_REPRESENTATION_CONTEXT() REPRESENTATION_CONTEXT('2D SPACE',''
  ) );
#1185 = PCURVE('',#790,#1186);
#1186 = DEFINITIONAL_REPRESENTATION('',(#1187),#1191);
#1187 = LINE('',#1188,#1189);
#1188 = CARTESIAN_POINT('',(0.,-0.));
#1189 = VECTOR('',#1190,1.);
#1190 = DIRECTION('',(-0.,-1.));
#1191 = ( GEOMETRIC_REPRESENTATION_CONTEXT(2) 
PARAMETRIC_REPRESENTATION_CONTEXT() REPRESENTATION_CONTEXT('2D SPACE',''
  ) );
#1192 = ORIENTED_EDGE('',*,*,#1145,.F.);
#1193 = ORIENTED_EDGE('',*,*,#1172,.F.);
#1194 = ORIENTED_EDGE('',*,*,#873,.F.);
#1195 = ORIENTED_EDGE('',*,*,#1196,.F.);
#1196 = EDGE_CURVE('',#1116,#633,#1197,.T.);
#1197 = SEAM_CURVE('',#1198,(#1202,#1209),.PCURVE_S1.);
#1198 = LINE('',#1199,#1200);
#1199 = CARTESIAN_POINT('',(162.5,-3.980102097229E-14,-152.25));
#1200 = VECTOR('',#1201,1.);
#1201 = DIRECTION('',(-0.217328903741,5.323022926583E-17,0.976098431306)
  );
#1202 = PCURVE('',#790,#1203);
#1203 = DEFINITIONAL_REPRESENTATION('',(#1204),#1208);
#1204 = LINE('',#1205,#1206);
#1205 = CARTESIAN_POINT('',(-6.28318530718,0.));
#1206 = VECTOR('',#1207,1.);
#1207 = DIRECTION('',(-0.,-1.));
#1208 = ( GEOMETRIC_REPRESENTATION_CONTEXT(2) 
PARAMETRIC_REPRESENTATION_CONTEXT() REPRESENTATION_CONTEXT('2D SPACE',''
  ) );
#1209 = PCURVE('',#790,#1210);
#1210 = DEFINITIONAL_REPRESENTATION('',(#1211),#1215);
#1211 = LINE('',#1212,#1213);
#1212 = CARTESIAN_POINT('',(0.,-0.));
#1213 = VECTOR('',#1214,1.);
#1214 = DIRECTION('',(-0.,-1.));
#1215 = ( GEOMETRIC_REPRESENTATION_CONTEXT(2) 
PARAMETRIC_REPRESENTATION_CONTEXT() REPRESENTATION_CONTEXT('2D SPACE',''
  ) );
#1216 = ORIENTED_EDGE('',*,*,#1115,.T.);
#1217 = ORIENTED_EDGE('',*,*,#1196,.T.);
#1218 = ORIENTED_EDGE('',*,*,#632,.F.);
#1219 = ( GEOMETRIC_REPRESENTATION_CONTEXT(3) 
GLOBAL_UNCERTAINTY_ASSIGNED_CONTEXT((#1223)) 
GLOBAL_UNIT_ASSIGNED_CONTEXT((#1220,#1221,#1222)) REPRESENTATION_CONTEXT
('Context #1','3D Context with UNIT and UNCERTAINTY') );
#1220 = ( LENGTH_UNIT() NAMED_UNIT(*) SI_UNIT(.MILLI.,.METRE.) );
#1221 = ( NAMED_UNIT(*) PLANE_ANGLE_UNIT() SI_UNIT($,.RADIAN.) );
#1222 = ( NAMED_UNIT(*) SI_UNIT($,.STERADIAN.) SOLID_ANGLE_UNIT() );
#1223 = UNCERTAINTY_MEASURE_WITH_UNIT(LENGTH_MEASURE(1.E-07),#1220,
  'distance_accuracy_value','confusion accuracy');
#1224 = PRODUCT_RELATED_PRODUCT_CATEGORY('part',$,(#7));
ENDSEC;
END-ISO-10303-21;
